<svg width="512" height="512" viewBox="0 0 512 512" fill="none" xmlns="http://www.w3.org/2000/svg">
<rect x="5.33333" y="5.33333" width="501.333" height="501.333" rx="250.667" fill="white"/>
<rect x="5.33333" y="5.33333" width="501.333" height="501.333" rx="250.667" stroke="black" stroke-width="10.6667"/>
<path d="M415.948 191.754C415.852 190.64 417.209 189.725 418.15 188.669C419.878 186.724 422.111 185.418 424.556 184.567C426.374 183.94 426.924 184.368 427.052 186.269C427.142 187.594 427.718 188.727 428.55 189.674C429.356 190.596 429.42 191.6 428.812 192.42C426.559 195.472 423.923 198.058 419.993 198.839C419.353 198.967 418.726 198.935 418.361 198.346C417.209 196.496 416.102 194.628 415.948 191.754Z" fill="#D6428A"/>
<path d="M250.383 221.009C249.084 219.601 247.97 218.052 246.946 216.439C247.074 216.491 247.209 216.548 247.337 216.599C248.22 217.79 249.109 218.98 249.993 220.171C250.185 220.42 250.396 220.663 250.383 221.009Z" fill="#DD68A0"/>
<path d="M295.027 228.707C294.618 228.131 294.694 227.44 294.605 226.793C294.208 226.518 294.144 226.032 293.888 225.661L293.85 225.609C294.259 225.296 294.477 225.488 294.63 225.897C294.957 226.806 295.13 227.734 295.027 228.707Z" fill="#F2B4D1"/>
<path d="M286.694 197.809C290.521 193.105 293.888 188.1 296.556 182.667C299.872 175.908 301.9 168.766 302.72 161.246C303.52 153.918 303.219 146.679 301.593 139.518C299.769 131.479 296.934 123.793 293.209 116.433C290.227 110.539 286.7 104.983 282.726 99.7291C276.806 91.9083 270.028 84.8875 262.348 78.7563C257.004 74.4875 251.379 70.6219 245.369 67.3451C239.827 64.3243 234.016 61.9435 227.98 60.0619C220.755 57.8091 213.382 56.3179 205.849 55.8827C189.542 54.9355 173.612 56.9451 158.131 62.3147C149.42 65.3355 141.024 69.0283 132.992 73.5467C126.4 77.2587 120.057 81.3483 113.932 85.8091C108.275 89.9307 102.976 94.4555 97.9901 99.3387C93.4333 103.806 89.2477 108.606 85.4269 113.739C81.9517 118.404 79.1613 123.364 77.8493 129.067C76.9341 133.035 77.3053 136.855 79.7501 140.196C80.7229 141.521 81.5997 143.511 83.8269 142.993C88.2813 141.963 91.4813 139.166 93.9197 135.409C94.4573 134.583 94.2973 133.841 93.5805 133.169C89.3821 129.259 89.0621 124.587 90.9757 119.518C93.2221 113.572 97.0685 108.683 101.382 104.139C107.859 97.3099 114.918 91.1723 122.796 85.9819C130.252 81.0667 138.131 76.9515 146.432 73.7323C153.632 70.9419 161.056 68.8875 168.665 67.4091C176.512 65.8859 184.428 65.5275 192.339 65.7259C201.779 65.9627 210.963 67.9083 219.923 70.9547C226.944 73.3419 233.568 76.5163 239.827 80.4523C250.265 87.0251 259.276 95.2171 267.161 104.683C270.937 109.22 274.502 113.924 277.516 118.987C281.286 125.335 284.358 132.023 286.662 139.07C290.886 152.004 291.961 165.06 288.428 178.327C286.841 184.279 284.198 189.777 280.697 194.807C275.526 202.238 269.382 208.721 261.798 213.803C255.462 218.046 248.556 220.99 241.222 222.814C232.876 224.894 224.358 225.655 215.731 225.412C205.433 225.124 195.353 223.511 185.401 220.964C179.68 219.505 174.073 217.662 168.448 215.876C167.174 215.473 166.918 215.012 167.187 213.854C167.948 210.596 168.627 207.319 169.408 204.068C170.451 199.723 171.488 195.371 172.646 191.051C173.996 186.02 175.468 181.022 176.966 176.03C178.617 170.526 180.467 165.092 182.476 159.716C184.646 153.918 187.046 148.215 190.144 142.839C194.099 135.979 198.291 129.271 204.307 123.979C205.856 122.615 207.097 120.791 209.376 120.337C213.792 119.46 216.672 116.503 218.899 112.843C219.756 111.428 219.04 110.487 217.35 110.539C214.246 110.635 211.462 111.729 208.966 113.489C201.625 118.66 194.931 124.535 189.299 131.595C184.096 138.123 179.75 145.175 176.025 152.619C173.318 158.02 170.995 163.595 168.953 169.284C166.297 176.695 163.955 184.209 161.811 191.78C159.84 198.737 158.022 205.732 156.524 212.811C155.18 219.153 153.753 225.483 152.518 231.851C151.462 237.31 150.668 242.814 149.696 248.286C147.859 258.596 146.272 268.951 144.761 279.319C143.27 289.547 141.824 299.78 140.281 310.001C138.617 321.041 137.126 332.107 135.174 343.102C133.843 350.609 132.716 358.155 131.34 365.655C129.958 373.195 128.364 380.695 126.892 388.222C124.838 398.711 122.08 409.015 118.777 419.179C118.464 420.119 118.112 421.047 117.907 422.027L117.868 422.116C117.747 422.334 117.708 422.583 117.664 422.82C117.299 424.9 117.798 425.431 119.872 425.246C121.337 425.111 122.822 425.028 124.288 425.073C125.529 425.105 126.336 424.491 126.771 423.569C127.372 422.289 128.147 421.079 128.512 419.691C130.214 415.447 131.673 411.121 133.004 406.75C136.806 394.257 139.225 381.451 141.664 368.651C144.249 355.07 146.521 341.438 148.78 327.799C150.777 315.71 152.556 303.595 154.361 291.479C155.596 283.204 156.704 274.916 158.003 266.654C159.897 254.603 161.536 242.513 163.993 230.558C164.499 228.113 164.422 228.062 166.777 228.772C174.329 231.044 181.99 232.811 189.785 233.982C198.137 235.23 206.508 235.908 214.956 235.441C226.476 234.807 237.497 232.145 248.076 227.569C255.008 224.568 261.523 220.83 267.52 216.26C274.617 210.859 281.056 204.74 286.694 197.809Z" fill="#D6418A"/>
<path d="M341.525 157.585C343.036 149.464 344.501 141.329 347.612 133.617C349.109 129.905 350.76 126.296 354.056 123.736C355.119 122.91 355.74 121.707 356.412 120.568C356.776 119.953 356.802 119.345 356.367 118.769C355.957 118.232 355.368 118.168 354.76 118.315C354.236 118.443 353.724 118.616 353.212 118.782C350.402 119.685 348.29 121.643 346.178 123.55C339.055 129.995 335.176 138.334 332.808 147.409C330.498 156.261 328.911 165.278 327.311 174.283C326.274 180.139 324.949 185.944 323.887 191.793C322.223 200.933 319.983 209.944 317.704 218.936C316.61 223.269 315.535 227.608 314.485 231.941C313.02 237.963 311.605 243.985 309.212 249.72C307.656 253.445 306.012 257.086 302.453 259.493C301.314 260.267 300.367 261.464 299.944 262.891C299.592 264.094 300.207 264.913 301.685 264.869C302.639 264.497 303.932 264.139 305.09 263.525C308.917 261.489 312.072 258.609 314.76 255.256C320.175 248.51 322.984 240.561 325.045 232.293C326.031 228.337 326.978 224.376 327.983 220.427C329.327 215.141 330.844 209.893 332.034 204.574C334.287 194.494 336.527 184.414 338.332 174.245C339.317 168.677 340.488 163.141 341.525 157.585Z" fill="#D6418A"/>
<path d="M308.772 229.351C309.45 228.045 308.733 227.06 307.28 227.226C306.608 227.303 305.943 227.553 305.309 227.796C304.464 228.122 303.965 228.007 304.004 226.977C304.068 225.153 304.042 223.329 304.208 221.517C304.72 215.975 306.167 210.586 306.98 205.089C307.389 202.337 306.762 201.748 304.055 202.497C303.588 202.625 303.12 202.817 302.698 203.06C301.546 203.713 300.42 204.417 299.274 205.089C299.012 205.242 298.685 205.748 298.423 205.281C297.239 203.156 295.671 204.135 294.205 204.743C290.512 206.285 287.088 208.327 283.997 210.849C278.039 215.7 273.924 221.581 274.128 229.562C274.205 230.97 274.109 232.237 274.301 233.524C274.5 234.81 274.98 235.988 275.364 237.197C276.637 241.217 279.543 242.541 283.44 240.909C285.668 239.975 287.748 238.765 289.674 237.281C290.237 236.845 290.762 235.866 291.421 236.141C292.215 236.481 291.818 237.562 291.863 238.311C292.074 241.601 292.624 242.541 296.516 240.922C296.605 240.884 296.682 240.82 296.772 240.775C299.831 239.22 302.391 237.012 304.848 234.669C306.474 233.133 307.748 231.322 308.772 229.351ZM292.906 221.594C292.586 223.585 292.285 225.575 291.978 227.565C291.85 228.41 289.693 230.285 288.855 230.273C288.234 230.26 288.023 229.684 287.882 229.3C286.045 224.429 285.789 219.553 287.997 214.708C288.189 214.285 288.484 213.921 288.912 213.793C291.018 213.165 292.752 211.879 294.698 210.465C294.378 214.401 293.495 217.972 292.906 221.594Z" fill="#D6418A"/>
<path d="M352.053 205.969C347.944 207.883 344.303 210.321 341.282 213.739C337.538 217.975 335.247 222.756 335.138 228.465C334.991 230.129 335.285 231.729 335.72 233.297C336.508 236.145 337.845 238.692 340.303 240.446C343.388 242.654 346.818 242.481 350.012 240.996C358.562 237.015 364.815 230.795 367.061 221.393C368.175 216.74 367.656 212.049 363.944 208.497C360.45 205.156 356.815 203.748 352.053 205.969ZM354.018 230.551C353.602 231.755 353.096 231.959 352.092 231.159C349.519 229.118 347.938 226.455 347.56 223.191C347.311 221.035 347.394 218.865 348.008 216.747C348.303 215.735 348.77 215.332 349.813 215.947C352.808 217.707 354.511 220.305 354.952 223.735C355.023 224.267 354.959 224.817 354.959 225.476C355.132 227.179 354.6 228.868 354.018 230.551Z" fill="#D6418A"/>
<path d="M389.685 205.63C384.815 207.78 380.54 210.66 377.263 214.833C374.108 218.846 371.957 223.32 372.085 229.041C371.817 230.993 372.489 233.227 373.365 235.364C374.863 239.019 378.012 242.609 383.362 241.963C385.743 241.675 387.874 240.721 389.916 239.505C394.818 236.587 398.876 232.824 401.602 227.768C404.213 222.923 405.378 217.892 403.484 212.44C401.948 208.011 395.471 203.07 389.685 205.63ZM391.093 230.232C390.498 231.883 389.909 232.068 388.585 230.846C385.481 227.979 384.015 224.414 384.361 220.171C384.45 219.102 384.629 218.027 384.879 216.977C385.231 215.48 385.781 215.224 387.029 216.081C390.191 218.27 392.156 221.156 391.977 225.31C392.079 226.936 391.676 228.6 391.093 230.232Z" fill="#D6418A"/>
<path d="M434.356 203.965C433.844 203.273 433.063 203.491 432.314 203.6C430.055 203.92 428.423 205.405 426.637 206.589C424.705 207.869 422.746 208.95 420.455 209.571C416.474 210.653 413.351 213.059 411.213 216.637C410.861 217.225 410.234 217.904 410.849 218.653C411.469 219.408 412.327 219.421 413.274 219.299C415.444 219.024 417.357 217.961 419.623 217.27C418.689 219.817 417.748 222.096 417.025 224.438C415.617 228.969 414.887 233.552 416.717 238.166C417.511 240.163 417.946 240.253 419.956 239.657C422.586 238.877 424.794 237.379 426.65 235.497C428.481 233.648 430.497 231.613 428.634 228.592C428.564 228.47 428.57 228.304 428.532 228.163C427.431 223.849 428.378 219.753 429.991 215.779C431.316 212.509 432.813 209.302 434.228 206.064C434.522 205.385 434.849 204.637 434.356 203.965Z" fill="#D6418A"/>
<path d="M205.768 276.282C210.082 358.484 281.832 407.169 281.832 407.169C281.832 407.169 185.621 379.943 205.768 276.282Z" fill="#DA3E86"/>
<path d="M205.768 276.282C205.768 276.282 300.788 304.826 281.832 407.169C281.825 407.169 275.054 320.724 205.768 276.282Z" fill="#F3B3D1"/>
<path d="M205.768 276.282L281.832 407.169C281.825 407.169 210.075 358.49 205.768 276.282Z" fill="#E169A1"/>
<path d="M281.825 407.169L205.768 276.282C275.054 320.724 281.825 407.169 281.825 407.169Z" fill="#EB8CB7"/>
<path d="M205.769 276.276C185.622 379.937 281.833 407.163 281.833 407.163C300.783 304.82 205.769 276.276 205.769 276.276Z" stroke="white" stroke-width="4.79872" stroke-miterlimit="10"/>
<path d="M359.008 274.664C354.695 356.865 282.944 405.55 282.944 405.55C282.944 405.55 379.156 378.324 359.008 274.664Z" fill="#DA3E86"/>
<path d="M359.009 274.664C359.009 274.664 263.988 303.208 282.945 405.55C282.945 405.55 289.722 319.105 359.009 274.664Z" fill="#F3B3D1"/>
<path d="M359.008 274.664L282.944 405.55C282.944 405.55 354.695 356.865 359.008 274.664Z" fill="#E169A1"/>
<path d="M282.944 405.55L359.008 274.664C289.722 319.105 282.944 405.55 282.944 405.55Z" fill="#EB8CB7"/>
<path d="M358.998 274.656C358.998 274.656 263.977 303.2 282.934 405.543C282.934 405.543 379.145 378.317 358.998 274.656Z" stroke="white" stroke-width="4.79872" stroke-miterlimit="10"/>
<path d="M412.584 332.497C370.363 404.503 282.747 410.334 282.747 410.334C282.747 410.334 382.485 436.913 412.584 332.497Z" fill="#DA3E86"/>
<path d="M412.584 332.497C412.584 332.497 313.307 307.748 282.747 410.334C282.747 410.34 329.173 335.812 412.584 332.497Z" fill="#F3B3D1"/>
<path d="M412.584 332.497L282.747 410.34C282.747 410.34 370.357 404.51 412.584 332.497Z" fill="#E169A1"/>
<path d="M282.747 410.34L412.584 332.503C329.173 335.812 282.747 410.34 282.747 410.34Z" fill="#EB8CB7"/>
<path d="M282.735 410.336C282.735 410.336 382.473 436.909 412.572 332.499C412.572 332.493 313.295 307.751 282.735 410.336Z" stroke="#F8F7F8" stroke-width="4.79872" stroke-miterlimit="10"/>
<path d="M151.975 333.101C194.195 405.107 281.811 410.938 281.811 410.938C281.811 410.938 182.074 437.511 151.975 333.101Z" fill="#DA3E86"/>
<path d="M151.975 333.101C151.975 333.101 251.251 308.352 281.811 410.938C281.811 410.938 235.386 336.41 151.975 333.101Z" fill="#F3B3D1"/>
<path d="M151.975 333.101L281.811 410.938C281.811 410.938 194.202 405.107 151.975 333.101Z" fill="#E169A1"/>
<path d="M281.811 410.938L151.975 333.101C235.386 336.41 281.811 410.938 281.811 410.938Z" fill="#EB8CB7"/>
<path d="M151.975 333.096C182.074 437.505 281.811 410.932 281.811 410.932C251.251 308.347 151.975 333.096 151.975 333.096Z" stroke="#FCFAFC" stroke-width="4.79872" stroke-miterlimit="10"/>
<path d="M281.807 258.255C321.218 331.497 281.807 409.635 281.807 409.635C281.807 409.635 354.709 337.756 281.807 258.255Z" fill="#DA3E86"/>
<path d="M281.807 258.255C281.807 258.255 210.677 330.678 281.807 409.635C281.807 409.635 242.395 331.491 281.807 258.255Z" fill="#F3B3D1"/>
<path d="M281.807 258.255V409.635C281.807 409.635 321.218 331.491 281.807 258.255Z" fill="#E169A1"/>
<path d="M281.803 409.635V258.255C242.392 331.491 281.803 409.635 281.803 409.635Z" fill="#EB8CB7"/>
<path d="M281.796 258.255C281.796 258.255 210.666 330.678 281.796 409.635C281.796 409.635 354.698 337.756 281.796 258.255Z" stroke="#F9F9FA" stroke-width="4.79872" stroke-miterlimit="10"/>
<path d="M121.344 410.938L115.213 431.405L111.642 443.968C111.642 443.968 117.92 446.061 119.52 443.968C121.12 441.876 129.741 416.544 129.741 416.544L121.344 410.938Z" fill="url(#paint0_linear_3022_6715)"/>
<path d="M150.369 415.32C150.369 415.48 150.312 415.742 150.203 416.12C150.094 416.497 149.947 416.952 149.755 417.483C149.569 418.014 149.371 418.584 149.166 419.179C148.961 419.774 148.763 420.357 148.577 420.92C148.328 420.856 148.027 420.747 147.681 420.587C147.336 420.427 147.163 420.241 147.163 420.024C147.163 419.806 147.246 419.397 147.419 418.801C147.592 418.206 147.822 417.483 148.104 416.638C147.822 416.574 147.489 416.529 147.112 416.497C146.734 416.465 146.389 416.453 146.075 416.453C145.038 416.453 143.957 416.734 142.824 417.297C141.691 417.861 140.661 418.603 139.713 419.512C138.773 420.421 138.005 421.457 137.403 422.622C136.808 423.787 136.507 424.977 136.507 426.2C136.507 426.827 136.654 427.269 136.955 427.518C137.256 427.768 137.64 427.896 138.107 427.896C138.766 427.896 139.451 427.781 140.155 427.544C140.859 427.307 141.518 427.045 142.133 426.744C142.747 426.443 143.246 426.181 143.637 425.944C144.027 425.707 144.257 425.592 144.321 425.592C144.481 425.592 144.641 425.765 144.814 426.11C144.987 426.456 145.153 426.942 145.307 427.569C143.829 428.075 142.299 428.773 140.718 429.662C139.131 430.558 137.678 431.595 136.36 432.773C135.041 433.95 133.96 435.256 133.109 436.683C132.264 438.11 131.835 439.608 131.835 441.182C131.835 441.496 131.867 441.899 131.931 442.385C131.995 442.872 132.168 443.345 132.449 443.8C132.731 444.254 133.147 444.651 133.697 444.977C134.248 445.304 135.022 445.47 136.027 445.47C137.249 445.47 138.485 445.131 139.726 444.459C140.968 443.787 142.094 442.942 143.118 441.937C144.136 440.933 144.987 439.851 145.659 438.686C146.331 437.528 146.702 436.472 146.766 435.531C146.798 435.531 146.881 435.576 147.022 435.672C147.163 435.768 147.31 435.883 147.47 436.024C147.624 436.165 147.758 436.325 147.873 436.497C147.982 436.67 148.04 436.849 148.04 437.041C148.04 437.982 147.656 438.987 146.888 440.056C146.12 441.125 145.147 442.123 143.969 443.045C142.792 443.973 141.505 444.734 140.11 445.329C138.715 445.925 137.403 446.225 136.181 446.225C134.421 446.225 132.968 445.771 131.822 444.862C130.677 443.953 130.101 442.539 130.101 440.625C130.101 438.929 130.446 437.419 131.137 436.081C131.829 434.75 132.661 433.579 133.633 432.574C134.606 431.569 135.617 430.731 136.673 430.053C137.723 429.381 138.625 428.849 139.381 428.472V428.427C139.195 428.491 139.003 428.555 138.817 428.613C138.472 428.709 138.113 428.753 137.736 428.753C137.55 428.753 137.294 428.721 136.981 428.657C136.667 428.593 136.353 428.459 136.04 428.254C135.726 428.049 135.457 427.729 135.24 427.288C135.022 426.846 134.907 426.251 134.907 425.496C134.907 423.928 135.253 422.501 135.944 421.208C136.635 419.921 137.48 418.827 138.485 417.937C139.489 417.041 140.545 416.35 141.665 415.864C142.779 415.377 143.758 415.134 144.609 415.134C145.71 415.134 146.529 415.301 147.08 415.627C147.63 415.953 147.995 416.248 148.187 416.497L149.032 414.001C149.313 414.187 149.601 414.411 149.902 414.661C150.216 414.91 150.369 415.134 150.369 415.32Z" fill="#233770" stroke="#223870" stroke-width="0.361728" stroke-miterlimit="10"/>
<path d="M153.752 435.007C153.221 433.215 152.786 431.672 152.46 430.367C152.127 429.061 151.826 428.005 151.538 427.186C151.724 427.218 151.941 427.263 152.172 427.327C152.408 427.391 152.645 427.461 152.876 427.538C153.112 427.615 153.324 427.711 153.509 427.82C153.695 427.928 153.823 428.05 153.887 428.172C154.104 428.703 154.316 429.458 154.52 430.431C154.725 431.404 155 432.453 155.346 433.586C156.133 432.773 156.844 431.89 157.49 430.949C158.13 430.008 158.7 429.042 159.186 428.05C159.672 427.064 160.063 426.085 160.364 425.132C160.664 424.172 160.856 423.288 160.952 422.469C161.266 422.629 161.522 422.776 161.727 422.917C161.932 423.058 162.034 423.256 162.034 423.506C162.034 424.012 161.836 424.696 161.445 425.58C161.055 426.456 160.549 427.404 159.941 428.408C159.327 429.413 158.629 430.431 157.848 431.468C157.061 432.504 156.293 433.413 155.538 434.2L155.775 434.904C156.466 437.042 157.1 438.578 157.682 439.519C158.264 440.46 158.853 440.933 159.448 440.933C159.762 440.933 160.178 440.664 160.696 440.133C161.215 439.602 161.784 438.885 162.418 437.989C163.045 437.093 163.692 436.05 164.351 434.86C165.01 433.669 165.624 432.428 166.188 431.141V431.992C165.938 432.556 165.541 433.375 165.01 434.444C164.479 435.512 163.858 436.588 163.148 437.669C162.437 438.751 161.701 439.692 160.933 440.498C160.165 441.298 159.436 441.701 158.744 441.701C158.085 441.701 157.522 441.548 157.048 441.228C156.575 440.914 156.152 440.492 155.775 439.954C155.397 439.423 155.071 438.796 154.783 438.072C154.501 437.349 154.232 436.581 153.983 435.762C153.324 436.485 152.428 437.394 151.301 438.495C150.168 439.596 148.837 440.645 147.301 441.65C147.141 441.778 146.981 441.797 146.808 441.72C146.636 441.644 146.488 441.541 146.36 441.413C147.615 440.6 148.812 439.711 149.938 438.751C151.071 437.791 152.338 436.575 153.752 435.103V435.007Z" fill="#233770" stroke="#223870" stroke-width="0.361728" stroke-miterlimit="10"/>
<path d="M174.955 434.907C176.242 434.465 177.387 434.152 178.392 433.966L178.347 434.388C177.842 434.516 177.285 434.657 176.677 434.811C176.063 434.971 175.429 435.188 174.77 435.47C174.488 436.257 174.143 437.019 173.733 437.755C173.323 438.491 172.869 439.15 172.37 439.732C171.864 440.315 171.32 440.782 170.719 441.147C170.123 441.505 169.477 441.691 168.786 441.691C168.28 441.691 167.871 441.588 167.538 441.384C167.205 441.179 167.045 440.891 167.045 440.513C167.045 440.104 167.199 439.688 167.519 439.265C167.832 438.843 168.255 438.42 168.792 437.992C169.323 437.569 169.944 437.166 170.655 436.788C171.359 436.411 172.107 436.052 172.895 435.707C173.49 434.075 173.791 432.411 173.791 430.715C173.791 429.646 173.714 428.942 173.554 428.596C173.394 428.251 173.176 428.078 172.895 428.078C172.645 428.078 172.261 428.404 171.743 429.064C171.224 429.723 170.603 430.651 169.88 431.841C169.157 433.038 168.376 434.446 167.525 436.078C166.68 437.71 165.829 439.483 164.984 441.396C164.639 442.401 164.319 443.374 164.018 444.315C163.717 445.256 163.461 446.12 163.243 446.907C163.026 447.694 162.84 448.366 162.699 448.929C162.559 449.492 162.488 449.902 162.488 450.152C162.488 450.312 162.488 450.44 162.488 450.555C162.488 450.67 162.507 450.843 162.533 451.099C162.034 450.971 161.592 450.708 161.215 450.299C160.837 449.889 160.651 449.595 160.651 449.403C160.651 448.961 160.811 448.168 161.125 447.022C161.439 445.876 161.829 444.558 162.303 443.067C162.776 441.576 163.295 440.001 163.858 438.337C164.421 436.673 164.939 435.086 165.413 433.582C165.887 432.078 166.277 430.734 166.591 429.556C166.904 428.379 167.064 427.553 167.064 427.086C167.442 427.15 167.832 427.297 168.242 427.534C168.651 427.771 168.856 427.982 168.856 428.168C168.856 428.449 168.786 428.904 168.645 429.531C168.504 430.158 168.306 430.913 168.056 431.79C167.807 432.667 167.525 433.627 167.211 434.664C166.898 435.7 166.552 436.75 166.175 437.819H166.271C166.616 437.096 167.083 436.129 167.685 434.92C168.28 433.71 168.914 432.526 169.592 431.361C170.264 430.203 170.943 429.198 171.615 428.347C172.287 427.496 172.875 427.073 173.381 427.073C174.29 427.073 174.917 427.387 175.263 428.014C175.608 428.641 175.781 429.505 175.781 430.606C175.781 431.169 175.711 431.828 175.57 432.584C175.429 433.339 175.205 434.12 174.955 434.907ZM172.645 436.27C171.327 436.897 170.162 437.563 169.163 438.273C168.159 438.977 167.659 439.681 167.659 440.366C167.659 440.584 167.736 440.75 167.896 440.859C168.056 440.968 168.255 441.025 168.511 441.025C169.202 441.025 169.925 440.577 170.674 439.681C171.423 438.785 172.082 437.652 172.645 436.27Z" fill="#233770" stroke="#223870" stroke-width="0.361728" stroke-miterlimit="10"/>
<path d="M184.739 431.94C183.984 433.444 183.216 434.795 182.429 435.992C181.641 437.188 180.905 438.206 180.214 439.051C179.523 439.896 178.902 440.548 178.352 441.003C177.801 441.457 177.373 441.688 177.059 441.688C176.777 441.688 176.515 441.611 176.285 441.451C176.048 441.291 175.933 440.932 175.933 440.369C175.933 439.928 176.08 439.147 176.381 438.014C176.681 436.881 177.059 435.576 177.513 434.084C177.968 432.593 178.454 431.019 178.973 429.348C179.491 427.684 179.977 426.11 180.432 424.612C180.886 423.121 181.264 421.809 181.565 420.683C181.865 419.55 182.013 418.769 182.013 418.328C182.013 418.232 182.013 418.123 182.013 418.001C182.013 417.873 181.981 417.688 181.917 417.438C182.448 417.598 182.921 417.867 183.331 418.264C183.741 418.654 183.945 418.98 183.945 419.23C183.945 419.576 183.779 420.331 183.453 421.489C183.12 422.654 182.723 424.024 182.249 425.611C181.776 427.198 181.27 428.862 180.72 430.603C180.169 432.344 179.683 433.944 179.261 435.403C178.838 436.862 178.505 438.072 178.275 439.032C178.038 439.992 177.987 440.465 178.109 440.465C178.237 440.465 178.518 440.248 178.953 439.806C179.395 439.364 179.92 438.744 180.528 437.944C181.136 437.144 181.814 436.164 182.55 435C183.286 433.841 184.016 432.548 184.739 431.14V431.94Z" fill="#233770" stroke="#223870" stroke-width="0.361728" stroke-miterlimit="10"/>
<path d="M198.209 429.355C197.768 430.078 197.294 430.68 196.776 431.166C196.257 431.652 195.733 432.062 195.201 432.388C194.67 432.715 194.158 432.977 193.672 433.163C193.185 433.348 192.75 433.496 192.379 433.585C192.033 434.686 191.585 435.723 191.035 436.696C190.485 437.669 189.883 438.526 189.224 439.262C188.565 439.998 187.88 440.587 187.176 441.028C186.472 441.47 185.768 441.688 185.083 441.688C184.424 441.688 183.841 441.412 183.342 440.862C182.843 440.312 182.587 439.288 182.587 437.777C182.587 436.741 182.766 435.684 183.131 434.596C183.489 433.515 183.925 432.536 184.424 431.653C184.923 430.776 185.422 430.059 185.909 429.508C186.395 428.958 186.766 428.683 187.016 428.683C187.297 428.683 187.541 428.862 187.745 429.227C187.95 429.585 188.065 429.848 188.097 430.001C187.253 430.756 186.581 431.531 186.094 432.331C185.608 433.131 185.23 433.905 184.961 434.66C184.693 435.416 184.52 436.1 184.443 436.708C184.366 437.323 184.328 437.816 184.328 438.193C184.328 438.884 184.398 439.512 184.539 440.075C184.68 440.638 185.019 440.926 185.55 440.926C186.024 440.926 186.549 440.74 187.125 440.363C187.707 439.985 188.277 439.467 188.846 438.808C189.409 438.148 189.947 437.387 190.446 436.523C190.945 435.659 191.387 434.724 191.765 433.72C191.605 433.752 191.445 433.764 191.272 433.764C191.099 433.764 190.952 433.764 190.824 433.764C190.005 433.764 189.397 433.464 188.987 432.868C188.577 432.273 188.373 431.595 188.373 430.846C188.373 430.315 188.443 429.777 188.584 429.246C188.725 428.715 188.936 428.235 189.217 427.813C189.499 427.39 189.838 427.051 190.229 426.801C190.619 426.552 191.067 426.424 191.573 426.424C192.072 426.424 192.481 426.609 192.795 426.987C193.109 427.364 193.269 428.056 193.269 429.06C193.269 429.656 193.205 430.309 193.083 431.013C192.955 431.717 192.801 432.389 192.609 433.016C193.55 432.766 194.491 432.312 195.438 431.653C196.385 430.993 197.166 430.18 197.793 429.201C197.134 428.952 196.552 428.587 196.053 428.12C195.547 427.646 195.297 426.961 195.297 426.046C195.297 425.515 195.361 424.964 195.483 424.395C195.611 423.832 195.797 423.313 196.046 422.84C196.296 422.366 196.609 421.976 196.987 421.662C197.365 421.348 197.806 421.188 198.305 421.188C198.869 421.188 199.253 421.419 199.457 421.873C199.662 422.328 199.765 422.776 199.765 423.217C199.765 424.037 199.649 424.913 199.413 425.854C199.176 426.795 198.888 427.736 198.542 428.683C199.041 428.779 199.534 428.817 200.001 428.798C200.475 428.785 200.789 428.76 200.942 428.728C201.224 428.977 201.499 429.208 201.768 429.413C202.037 429.617 202.171 429.796 202.171 429.956C202.171 430.116 202.075 430.481 201.889 431.064C201.704 431.646 201.467 432.337 201.185 433.137C200.904 433.937 200.603 434.788 200.289 435.678C199.976 436.574 199.701 437.4 199.464 438.148C199.227 438.904 199.048 439.531 198.92 440.03C198.792 440.536 198.792 440.785 198.92 440.785C199.137 440.785 199.579 440.414 200.238 439.678C200.897 438.942 201.601 438.053 202.357 437.016C203.112 435.979 203.841 434.923 204.545 433.835C205.249 432.753 205.774 431.851 206.12 431.128V431.979C205.806 432.51 205.313 433.31 204.635 434.379C203.957 435.448 203.221 436.523 202.421 437.604C201.621 438.686 200.833 439.64 200.065 440.453C199.297 441.272 198.677 441.675 198.203 441.675C197.921 441.675 197.659 441.598 197.429 441.438C197.192 441.278 197.077 440.939 197.077 440.401C197.077 439.928 197.192 439.256 197.429 438.379C197.665 437.502 197.947 436.542 198.273 435.505C198.606 434.468 198.965 433.432 199.355 432.395C199.745 431.358 200.117 430.43 200.462 429.617C200.302 429.617 200.021 429.611 199.617 429.592C199.214 429.598 198.747 429.508 198.209 429.355ZM191.899 433.214C192.117 432.555 192.309 431.832 192.462 431.051C192.622 430.264 192.699 429.56 192.699 428.933C192.699 428.459 192.622 428.037 192.462 427.659C192.302 427.281 192.008 427.096 191.566 427.096C191.157 427.096 190.817 427.243 190.555 427.544C190.286 427.844 190.081 428.196 189.941 428.606C189.8 429.016 189.697 429.445 189.633 429.899C189.569 430.353 189.537 430.724 189.537 431.006C189.537 431.697 189.704 432.241 190.03 432.632C190.363 433.022 190.76 433.22 191.233 433.22H191.899V433.214ZM198.497 422.193C197.966 422.193 197.486 422.571 197.064 423.326C196.641 424.081 196.43 425.009 196.43 426.104C196.43 426.795 196.584 427.326 196.904 427.704C197.217 428.081 197.595 428.35 198.037 428.504C198.35 427.563 198.606 426.641 198.811 425.752C199.016 424.856 199.118 423.985 199.118 423.14C199.118 422.795 199.054 422.552 198.933 422.411C198.792 422.264 198.651 422.193 198.497 422.193Z" fill="#233770" stroke="#223870" stroke-width="0.361728" stroke-miterlimit="10"/>
<path d="M217.893 431.99C217.266 432.777 216.46 433.731 215.468 434.863C214.482 435.996 213.433 437.084 212.338 438.134C211.237 439.183 210.162 440.079 209.113 440.815C208.063 441.551 207.173 441.923 206.45 441.923C205.541 441.923 204.895 441.596 204.517 440.937C204.14 440.278 203.954 439.587 203.954 438.863C203.954 437.731 204.121 436.495 204.447 435.145C204.78 433.795 205.273 432.547 205.932 431.401C206.591 430.255 207.417 429.295 208.402 428.527C209.388 427.759 210.527 427.375 211.813 427.375C212.601 427.375 213.209 427.548 213.65 427.894C214.092 428.239 214.309 428.681 214.309 429.212C214.309 429.903 214.092 430.55 213.65 431.145C213.209 431.74 212.652 432.284 211.98 432.771C211.301 433.257 210.565 433.699 209.765 434.089C208.965 434.479 208.204 434.819 207.481 435.1C208.172 434.94 208.876 434.812 209.599 434.697C210.322 434.588 210.853 434.531 211.199 434.531C211.762 434.531 212.044 434.595 212.044 434.716C212.044 434.966 211.967 435.203 211.807 435.42C210.962 435.26 210.047 435.235 209.074 435.324C208.101 435.42 207.161 435.542 206.245 435.702C205.996 436.867 205.868 437.807 205.868 438.531C205.868 439.407 205.964 440.028 206.149 440.393C206.335 440.751 206.649 440.937 207.09 440.937C207.653 440.937 208.415 440.579 209.375 439.855C210.335 439.132 211.34 438.255 212.389 437.219C213.439 436.182 214.463 435.107 215.449 433.993C216.441 432.879 217.247 431.926 217.874 431.145V431.99H217.893ZM206.495 434.953C207.218 434.703 207.961 434.371 208.735 433.967C209.503 433.558 210.201 433.097 210.828 432.579C211.455 432.06 211.973 431.503 212.383 430.908C212.793 430.313 212.997 429.699 212.997 429.071C212.997 428.854 212.933 428.643 212.812 428.438C212.684 428.233 212.453 428.131 212.108 428.131C211.449 428.131 210.828 428.335 210.245 428.745C209.663 429.155 209.138 429.686 208.671 430.345C208.204 431.004 207.775 431.74 207.397 432.559C207.013 433.372 206.719 434.172 206.495 434.953Z" fill="#233770" stroke="#223870" stroke-width="0.361728" stroke-miterlimit="10"/>
<path d="M234.143 437.217C233.451 439.291 232.639 441.448 231.691 443.694C230.751 445.941 229.707 447.995 228.562 449.864C227.416 451.733 226.175 453.275 224.843 454.504C223.512 455.726 222.104 456.341 220.626 456.341C220.376 456.341 220.114 456.309 219.851 456.245C219.583 456.181 219.339 456.072 219.122 455.918C218.904 455.758 218.719 455.528 218.578 455.214C218.437 454.901 218.399 454.478 218.463 453.941C218.495 453.121 218.891 452.11 219.666 450.901C220.434 449.691 221.439 448.392 222.68 446.99C223.922 445.595 225.336 444.155 226.917 442.683C228.504 441.205 230.13 439.809 231.794 438.491C232.267 437.077 232.696 435.694 233.087 434.344C233.477 432.993 233.816 431.771 234.098 430.67H234.002C233.656 431.393 233.125 432.373 232.402 433.614C231.679 434.856 230.885 436.072 230.021 437.262C229.157 438.453 228.293 439.489 227.429 440.373C226.565 441.249 225.835 441.691 225.24 441.691C224.709 441.691 224.331 441.563 224.107 441.313C223.89 441.064 223.775 440.731 223.775 440.321C223.775 440.008 223.851 439.515 224.011 438.837C224.171 438.165 224.37 437.403 224.626 436.552C224.875 435.707 225.144 434.811 225.426 433.87C225.707 432.929 225.976 432.021 226.226 431.137C226.475 430.261 226.687 429.448 226.859 428.712C227.032 427.976 227.135 427.4 227.167 426.99C227.512 427.118 227.903 427.291 228.344 427.509C228.786 427.726 229.003 427.931 229.003 428.123C229.003 428.373 228.927 428.789 228.767 429.371C228.607 429.953 228.408 430.625 228.152 431.393C227.903 432.161 227.634 432.981 227.352 433.845C227.071 434.709 226.802 435.541 226.552 436.341C226.303 437.141 226.098 437.864 225.938 438.504C225.784 439.15 225.701 439.643 225.701 439.989C225.701 440.462 225.861 440.693 226.175 440.693C226.424 440.693 226.898 440.334 227.589 439.611C228.28 438.888 229.074 437.915 229.97 436.693C230.866 435.47 231.775 434.03 232.703 432.385C233.631 430.734 234.45 428.974 235.173 427.086C235.487 427.214 235.813 427.387 236.159 427.605C236.504 427.822 236.677 428.027 236.677 428.219C236.677 428.315 236.619 428.59 236.511 429.045C236.402 429.499 236.255 430.088 236.063 430.811C235.877 431.534 235.64 432.373 235.359 433.333C235.077 434.293 234.763 435.317 234.418 436.417C235.455 435.662 236.466 434.965 237.458 434.325C238.45 433.685 239.397 433.121 240.306 432.654L240.21 433.269C239.141 433.896 238.104 434.542 237.099 435.201C236.101 435.848 235.115 436.526 234.143 437.217ZM231.455 439.285C229.663 440.731 228.018 442.19 226.507 443.662C225.003 445.134 223.704 446.529 222.623 447.829C221.541 449.134 220.677 450.318 220.031 451.387C219.391 452.456 219.051 453.301 219.019 453.928C218.955 454.683 219.09 455.176 219.423 455.413C219.749 455.649 220.075 455.765 220.389 455.765C221.458 455.765 222.507 455.278 223.544 454.305C224.581 453.333 225.567 452.065 226.514 450.517C227.455 448.961 228.344 447.201 229.176 445.243C230.002 443.285 230.763 441.294 231.455 439.285Z" fill="#233770" stroke="#223870" stroke-width="0.361728" stroke-miterlimit="10"/>
<path d="M243.554 430.015C242.703 430.77 242.037 431.544 241.551 432.344C241.064 433.144 240.687 433.919 240.418 434.674C240.149 435.429 239.976 436.114 239.9 436.722C239.823 437.336 239.784 437.829 239.784 438.207C239.784 438.898 239.855 439.525 239.996 440.088C240.136 440.651 240.476 440.939 241.007 440.939C241.48 440.939 242.005 440.735 242.581 440.325C243.164 439.915 243.74 439.359 244.322 438.655C244.904 437.951 245.455 437.151 245.973 436.255C246.492 435.359 246.92 434.411 247.266 433.407H246.325C245.506 433.407 244.892 433.17 244.463 432.703C244.04 432.229 243.829 431.621 243.829 430.866C243.829 430.335 243.9 429.797 244.04 429.266C244.181 428.735 244.392 428.255 244.674 427.832C244.956 427.41 245.295 427.071 245.685 426.821C246.076 426.571 246.524 426.443 247.029 426.443C247.528 426.443 247.938 426.629 248.252 427.007C248.565 427.384 248.725 428.075 248.725 429.08C248.725 430.303 248.54 431.499 248.162 432.658C248.636 432.53 249.122 432.363 249.621 432.139C250.12 431.922 250.594 431.685 251.036 431.435C251.477 431.186 251.861 430.923 252.188 430.661C252.52 430.392 252.757 430.168 252.917 429.976V430.776C252.412 431.25 251.682 431.717 250.728 432.191C249.768 432.664 248.834 433.023 247.925 433.272C247.58 434.373 247.125 435.423 246.562 436.427C245.999 437.432 245.384 438.328 244.725 439.109C244.066 439.896 243.375 440.523 242.652 440.991C241.928 441.464 241.224 441.695 240.533 441.695C239.874 441.695 239.292 441.419 238.792 440.869C238.293 440.319 238.037 439.295 238.037 437.784C238.037 436.747 238.216 435.691 238.581 434.603C238.946 433.522 239.375 432.543 239.874 431.659C240.373 430.783 240.872 430.066 241.359 429.515C241.845 428.965 242.216 428.69 242.466 428.69C242.748 428.69 242.991 428.869 243.196 429.234C243.407 429.599 243.522 429.855 243.554 430.015ZM247.464 432.837C247.65 432.178 247.816 431.519 247.957 430.859C248.098 430.2 248.168 429.554 248.168 428.927C248.168 428.453 248.092 428.031 247.932 427.653C247.772 427.275 247.477 427.09 247.036 427.09C246.626 427.09 246.287 427.237 246.024 427.538C245.756 427.839 245.551 428.191 245.41 428.6C245.269 429.01 245.167 429.439 245.103 429.893C245.039 430.347 245.007 430.719 245.007 431C245.007 431.691 245.18 432.178 245.525 432.459C245.871 432.741 246.293 432.882 246.799 432.882C247.087 432.888 247.304 432.869 247.464 432.837Z" fill="#233770" stroke="#223870" stroke-width="0.361728" stroke-miterlimit="10"/>
<path d="M267.391 429.352C266.95 430.734 266.297 432.149 265.439 433.589C264.575 435.035 263.679 436.36 262.758 437.569C261.83 438.779 260.959 439.765 260.146 440.539C259.327 441.307 258.764 441.691 258.45 441.691C258.201 441.691 257.964 441.64 257.746 441.525C257.529 441.416 257.42 441.121 257.42 440.654C257.42 440.437 257.548 439.848 257.798 438.888C258.047 437.928 258.342 436.885 258.668 435.758C258.994 434.625 259.308 433.569 259.609 432.577C259.903 431.592 260.102 430.952 260.198 430.67H260.102C259.756 431.393 259.225 432.373 258.502 433.614C257.778 434.856 256.998 436.072 256.146 437.262C255.295 438.453 254.444 439.489 253.58 440.373C252.716 441.249 251.986 441.691 251.391 441.691C250.828 441.691 250.431 441.563 250.214 441.313C249.996 441.064 249.881 440.731 249.881 440.321C249.881 440.008 249.958 439.515 250.118 438.837C250.278 438.165 250.47 437.403 250.706 436.552C250.943 435.707 251.212 434.811 251.506 433.87C251.807 432.929 252.082 432.021 252.332 431.137C252.582 430.261 252.793 429.448 252.966 428.712C253.138 427.976 253.241 427.4 253.273 426.99C253.618 427.118 254.009 427.291 254.45 427.509C254.892 427.726 255.11 427.931 255.11 428.123C255.11 428.373 255.033 428.789 254.873 429.371C254.713 429.953 254.514 430.625 254.258 431.393C254.009 432.161 253.74 432.981 253.458 433.845C253.177 434.709 252.908 435.541 252.658 436.341C252.409 437.141 252.204 437.864 252.044 438.504C251.884 439.15 251.807 439.643 251.807 439.989C251.807 440.462 251.967 440.693 252.281 440.693C252.53 440.693 253.004 440.334 253.695 439.611C254.386 438.888 255.174 437.915 256.05 436.693C256.927 435.47 257.842 434.03 258.783 432.385C259.724 430.741 260.556 428.974 261.279 427.086C261.561 427.214 261.874 427.387 262.22 427.605C262.566 427.822 262.738 428.027 262.738 428.219C262.738 428.283 262.642 428.629 262.457 429.256C262.271 429.883 262.041 430.651 261.772 431.566C261.503 432.475 261.215 433.467 260.902 434.536C260.588 435.605 260.313 436.59 260.076 437.505C259.839 438.414 259.654 439.169 259.513 439.765C259.372 440.36 259.346 440.661 259.442 440.661C259.57 440.661 259.961 440.283 260.62 439.528C261.279 438.773 262.015 437.832 262.834 436.699C263.654 435.566 264.454 434.337 265.234 433C266.022 431.669 266.598 430.401 266.975 429.211C266.316 428.961 265.734 428.597 265.234 428.129C264.729 427.656 264.479 426.971 264.479 426.056C264.479 425.525 264.543 424.974 264.665 424.405C264.793 423.841 264.978 423.323 265.228 422.849C265.478 422.376 265.791 421.985 266.169 421.672C266.546 421.358 266.982 421.198 267.487 421.198C268.05 421.198 268.434 421.429 268.639 421.883C268.844 422.337 268.946 422.785 268.946 423.227C268.946 424.046 268.831 424.923 268.594 425.864C268.358 426.805 268.07 427.745 267.724 428.693C268.223 428.789 268.716 428.827 269.183 428.808C269.657 428.795 269.97 428.769 270.124 428.737C270.406 428.987 270.681 429.217 270.95 429.422C271.218 429.627 271.353 429.806 271.353 429.966C271.353 430.126 271.257 430.491 271.071 431.073C270.886 431.656 270.649 432.347 270.367 433.147C270.086 433.947 269.785 434.798 269.471 435.688C269.158 436.584 268.882 437.409 268.646 438.158C268.409 438.913 268.23 439.541 268.102 440.04C267.974 440.545 267.974 440.795 268.102 440.795C268.319 440.795 268.761 440.424 269.42 439.688C270.079 438.952 270.783 438.062 271.538 437.025C272.294 435.989 273.023 434.933 273.727 433.845C274.431 432.757 274.956 431.861 275.302 431.137V431.989C274.988 432.52 274.495 433.32 273.817 434.389C273.138 435.457 272.402 436.533 271.602 437.614C270.802 438.696 270.015 439.649 269.247 440.462C268.479 441.281 267.858 441.685 267.385 441.685C267.103 441.685 266.841 441.608 266.61 441.448C266.374 441.288 266.258 440.949 266.258 440.411C266.258 439.937 266.374 439.265 266.61 438.389C266.847 437.512 267.129 436.552 267.455 435.515C267.782 434.478 268.146 433.441 268.537 432.405C268.927 431.368 269.298 430.44 269.644 429.627C269.484 429.627 269.202 429.621 268.793 429.601C268.396 429.595 267.929 429.505 267.391 429.352ZM267.679 422.19C267.148 422.19 266.668 422.568 266.246 423.323C265.823 424.078 265.612 425.006 265.612 426.101C265.612 426.792 265.766 427.323 266.086 427.701C266.399 428.078 266.777 428.347 267.218 428.501C267.532 427.56 267.788 426.638 267.993 425.749C268.198 424.853 268.3 423.982 268.3 423.137C268.3 422.792 268.236 422.549 268.114 422.408C267.974 422.261 267.833 422.19 267.679 422.19Z" fill="#233770" stroke="#223870" stroke-width="0.361728" stroke-miterlimit="10"/>
<path d="M283.535 438.063C283.848 437.372 284.36 436.425 285.064 435.215C285.768 434.006 286.549 432.822 287.394 431.657C288.239 430.498 289.09 429.481 289.935 428.617C290.786 427.753 291.503 427.324 292.098 427.324C293.199 427.324 293.749 427.772 293.749 428.662C293.749 428.982 293.653 429.506 293.468 430.236C293.282 430.966 293.052 431.778 292.783 432.674C292.514 433.57 292.226 434.486 291.912 435.426C291.599 436.367 291.324 437.231 291.087 438.018C290.85 438.806 290.671 439.446 290.543 439.951C290.415 440.457 290.415 440.706 290.543 440.706C290.671 440.706 290.952 440.45 291.388 439.932C291.829 439.414 292.36 438.716 292.988 437.839C293.615 436.962 294.293 435.945 295.01 434.799C295.733 433.654 296.437 432.438 297.128 431.151V432.002C295.151 435.484 293.538 438.012 292.303 439.586C291.061 441.154 290.127 441.942 289.5 441.942C289.218 441.942 288.968 441.871 288.744 441.73C288.527 441.59 288.412 441.206 288.412 440.578C288.412 440.169 288.488 439.65 288.648 439.023C288.808 438.396 289.007 437.711 289.263 436.975C289.512 436.239 289.775 435.471 290.037 434.665C290.306 433.865 290.562 433.11 290.812 432.406C291.061 431.702 291.266 431.049 291.426 430.454C291.586 429.858 291.663 429.385 291.663 429.039C291.663 428.566 291.503 428.335 291.189 428.335C290.94 428.335 290.466 428.687 289.775 429.398C289.084 430.102 288.29 431.068 287.394 432.297C286.498 433.519 285.589 434.966 284.661 436.63C283.733 438.294 282.914 440.066 282.191 441.948C281.877 441.82 281.564 441.66 281.25 441.455C280.936 441.25 280.776 440.994 280.776 440.681C280.776 440.585 280.924 440.041 281.224 439.03C281.525 438.025 281.89 436.777 282.332 435.286C282.773 433.794 283.26 432.169 283.791 430.409C284.322 428.649 284.808 426.978 285.25 425.391C285.692 423.804 286.056 422.409 286.357 421.199C286.652 419.99 286.805 419.196 286.805 418.818C286.805 418.658 286.805 418.53 286.805 418.415C286.805 418.306 286.786 418.14 286.76 417.922C287.292 418.05 287.746 418.313 288.124 418.722C288.501 419.132 288.687 419.439 288.687 419.657C288.687 419.938 288.591 420.463 288.405 421.225C288.22 421.993 287.976 422.895 287.676 423.945C287.375 424.988 287.042 426.14 286.664 427.394C286.287 428.649 285.903 429.91 285.512 431.183C285.122 432.457 284.738 433.692 284.36 434.902C283.983 436.111 283.656 437.167 283.375 438.082H283.535V438.063Z" fill="#233770" stroke="#223870" stroke-width="0.361728" stroke-miterlimit="10"/>
<path d="M300.491 430.015C299.64 430.77 298.975 431.544 298.488 432.344C298.002 433.144 297.624 433.919 297.355 434.674C297.087 435.429 296.914 436.114 296.837 436.722C296.76 437.336 296.722 437.829 296.722 438.207C296.722 438.898 296.792 439.525 296.933 440.088C297.074 440.651 297.413 440.939 297.944 440.939C298.418 440.939 298.943 440.735 299.519 440.325C300.101 439.915 300.677 439.359 301.259 438.655C301.842 437.951 302.392 437.151 302.911 436.255C303.429 435.359 303.858 434.411 304.203 433.407H303.263C302.443 433.407 301.829 433.17 301.4 432.703C300.978 432.229 300.767 431.621 300.767 430.866C300.767 430.335 300.837 429.797 300.978 429.266C301.119 428.735 301.33 428.255 301.611 427.832C301.893 427.41 302.232 427.071 302.623 426.821C303.013 426.571 303.461 426.443 303.967 426.443C304.466 426.443 304.875 426.629 305.189 427.007C305.503 427.384 305.663 428.075 305.663 429.08C305.663 430.303 305.477 431.499 305.099 432.658C305.573 432.53 306.059 432.363 306.559 432.139C307.058 431.922 307.531 431.685 307.973 431.435C308.415 431.186 308.799 430.923 309.125 430.661C309.458 430.392 309.695 430.168 309.855 429.976V430.776C309.349 431.25 308.619 431.717 307.666 432.191C306.706 432.664 305.771 433.023 304.863 433.272C304.517 434.373 304.063 435.423 303.499 436.427C302.936 437.432 302.322 438.328 301.663 439.109C301.003 439.896 300.312 440.523 299.589 440.991C298.866 441.464 298.162 441.695 297.471 441.695C296.811 441.695 296.229 441.419 295.73 440.869C295.231 440.319 294.975 439.295 294.975 437.784C294.975 436.747 295.154 435.691 295.519 434.603C295.883 433.522 296.312 432.543 296.811 431.659C297.311 430.783 297.81 430.066 298.296 429.515C298.783 428.965 299.154 428.69 299.403 428.69C299.685 428.69 299.928 428.869 300.133 429.234C300.344 429.599 300.459 429.855 300.491 430.015ZM304.402 432.837C304.587 432.178 304.754 431.519 304.895 430.859C305.035 430.2 305.106 429.554 305.106 428.927C305.106 428.453 305.029 428.031 304.869 427.653C304.709 427.275 304.415 427.09 303.973 427.09C303.563 427.09 303.224 427.237 302.962 427.538C302.693 427.839 302.488 428.191 302.347 428.6C302.207 429.01 302.104 429.439 302.04 429.893C301.976 430.347 301.944 430.719 301.944 431C301.944 431.691 302.117 432.178 302.463 432.459C302.808 432.741 303.231 432.882 303.736 432.882C304.024 432.888 304.242 432.869 304.402 432.837Z" fill="#233770" stroke="#223870" stroke-width="0.361728" stroke-miterlimit="10"/>
<path d="M317.589 428.785C317.589 428.536 317.563 428.363 317.518 428.267C317.474 428.171 317.352 428.126 317.166 428.126C316.917 428.126 316.443 428.478 315.752 429.188C315.061 429.892 314.267 430.872 313.371 432.107C312.475 433.348 311.566 434.788 310.638 436.44C309.71 438.091 308.891 439.851 308.168 441.739C307.854 441.611 307.528 441.432 307.182 441.195C306.837 440.958 306.664 440.766 306.664 440.606C306.664 440.542 306.741 440.228 306.901 439.665C307.061 439.102 307.259 438.385 307.515 437.521C307.765 436.657 308.04 435.71 308.341 434.673C308.642 433.636 308.923 432.632 309.186 431.659C309.454 430.686 309.678 429.79 309.87 428.977C310.056 428.165 310.171 427.531 310.197 427.096C310.542 427.16 310.946 427.307 311.4 427.544C311.854 427.78 312.085 427.972 312.085 428.132C312.085 428.26 312.021 428.574 311.899 429.073C311.771 429.579 311.618 430.168 311.426 430.84C311.24 431.518 311.022 432.235 310.792 433.009C310.562 433.784 310.338 434.513 310.133 435.224C309.928 435.928 309.742 436.542 309.57 437.06C309.397 437.579 309.294 437.931 309.262 438.123C309.512 437.649 309.845 437.054 310.254 436.331C310.664 435.608 311.125 434.84 311.643 434.02C312.162 433.201 312.712 432.388 313.294 431.569C313.877 430.756 314.446 430.014 315.016 429.355C315.586 428.696 316.13 428.164 316.667 427.755C317.198 427.345 317.672 427.14 318.082 427.14C319.182 427.14 319.733 427.595 319.733 428.504C319.733 429.067 319.637 429.745 319.451 430.526C319.266 431.313 319.029 432.132 318.747 432.996C318.466 433.86 318.171 434.737 317.877 435.633C317.576 436.529 317.32 437.355 317.102 438.104H317.198C317.416 437.63 317.73 437.035 318.139 436.312C318.549 435.588 319.003 434.82 319.502 434.001C320.002 433.182 320.546 432.369 321.128 431.55C321.71 430.737 322.28 429.995 322.85 429.336C323.413 428.677 323.963 428.145 324.501 427.736C325.032 427.326 325.506 427.121 325.915 427.121C327.016 427.121 327.566 427.576 327.566 428.484C327.566 428.798 327.47 429.316 327.285 430.04C327.099 430.763 326.869 431.569 326.6 432.465C326.331 433.361 326.043 434.289 325.73 435.243C325.416 436.203 325.141 437.08 324.904 437.88C324.667 438.68 324.488 439.332 324.36 439.832C324.232 440.337 324.232 440.587 324.36 440.587C324.488 440.587 324.776 440.331 325.23 439.812C325.685 439.294 326.229 438.603 326.856 437.739C327.483 436.875 328.142 435.87 328.834 434.724C329.525 433.579 330.184 432.376 330.811 431.121V431.972C330.056 433.451 329.294 434.788 328.526 435.998C327.758 437.208 327.035 438.244 326.363 439.108C325.685 439.972 325.083 440.638 324.552 441.112C324.021 441.585 323.592 441.816 323.278 441.816C323.029 441.816 322.792 441.745 322.574 441.604C322.357 441.464 322.242 441.08 322.242 440.452C322.242 439.857 322.414 439.006 322.76 437.912C323.106 436.811 323.477 435.672 323.867 434.5C324.258 433.323 324.629 432.209 324.974 431.16C325.32 430.11 325.493 429.317 325.493 428.779C325.493 428.337 325.333 428.12 325.019 428.12C324.77 428.12 324.296 428.472 323.605 429.182C322.914 429.886 322.126 430.865 321.25 432.1C320.373 433.342 319.458 434.782 318.517 436.433C317.576 438.084 316.757 439.844 316.066 441.733C315.752 441.604 315.419 441.425 315.08 441.188C314.734 440.952 314.562 440.76 314.562 440.6C314.562 440.222 314.722 439.531 315.035 438.526C315.349 437.521 315.701 436.42 316.098 435.23C316.488 434.04 316.846 432.849 317.16 431.672C317.429 430.507 317.589 429.54 317.589 428.785Z" fill="#233770" stroke="#223870" stroke-width="0.361728" stroke-miterlimit="10"/>
<path d="M342.549 431.992C341.921 432.779 341.115 433.733 340.123 434.865C339.131 435.998 338.088 437.086 336.993 438.136C335.893 439.185 334.817 440.081 333.768 440.817C332.718 441.553 331.829 441.925 331.105 441.925C330.197 441.925 329.55 441.598 329.173 440.939C328.795 440.28 328.609 439.589 328.609 438.865C328.609 437.733 328.776 436.497 329.102 435.147C329.435 433.797 329.928 432.549 330.587 431.403C331.246 430.257 332.072 429.297 333.057 428.529C334.049 427.761 335.182 427.377 336.469 427.377C337.256 427.377 337.864 427.55 338.305 427.896C338.747 428.241 338.965 428.683 338.965 429.214C338.965 429.905 338.747 430.552 338.305 431.147C337.864 431.742 337.307 432.286 336.635 432.773C335.957 433.259 335.221 433.701 334.421 434.091C333.621 434.481 332.859 434.821 332.136 435.102C332.827 434.942 333.531 434.814 334.254 434.699C334.977 434.59 335.509 434.533 335.854 434.533C336.417 434.533 336.699 434.597 336.699 434.718C336.699 434.968 336.622 435.205 336.462 435.422C335.617 435.262 334.702 435.237 333.729 435.326C332.757 435.422 331.816 435.544 330.901 435.704C330.651 436.869 330.523 437.809 330.523 438.533C330.523 439.409 330.619 440.03 330.805 440.395C330.99 440.753 331.304 440.939 331.745 440.939C332.309 440.939 333.07 440.581 334.03 439.857C334.99 439.134 335.989 438.257 337.045 437.221C338.094 436.184 339.118 435.109 340.104 433.995C341.089 432.881 341.902 431.928 342.529 431.147V431.992H342.549ZM331.15 434.955C331.873 434.705 332.616 434.373 333.39 433.969C334.158 433.56 334.856 433.099 335.483 432.581C336.11 432.062 336.629 431.505 337.038 430.91C337.448 430.315 337.653 429.701 337.653 429.073C337.653 428.856 337.589 428.645 337.467 428.44C337.339 428.235 337.109 428.133 336.763 428.133C336.104 428.133 335.483 428.337 334.901 428.747C334.318 429.157 333.793 429.688 333.326 430.347C332.853 431.006 332.43 431.742 332.053 432.561C331.669 433.374 331.368 434.174 331.15 434.955Z" fill="#233770" stroke="#223870" stroke-width="0.361728" stroke-miterlimit="10"/>
<path d="M348.802 431.94C348.046 433.444 347.278 434.795 346.491 435.992C345.704 437.188 344.968 438.206 344.277 439.051C343.586 439.896 342.965 440.548 342.414 441.003C341.864 441.457 341.435 441.688 341.122 441.688C340.84 441.688 340.578 441.611 340.347 441.451C340.11 441.291 339.995 440.932 339.995 440.369C339.995 439.928 340.142 439.147 340.443 438.014C340.744 436.881 341.122 435.576 341.576 434.084C342.03 432.593 342.517 431.019 343.035 429.348C343.554 427.684 344.04 426.11 344.494 424.612C344.949 423.121 345.326 421.809 345.627 420.683C345.928 419.55 346.075 418.769 346.075 418.328C346.075 418.232 346.075 418.123 346.075 418.001C346.075 417.873 346.043 417.688 345.979 417.438C346.51 417.598 346.984 417.867 347.394 418.264C347.803 418.654 348.008 418.98 348.008 419.23C348.008 419.576 347.842 420.331 347.515 421.489C347.189 422.654 346.786 424.024 346.312 425.611C345.838 427.198 345.333 428.862 344.782 430.603C344.232 432.344 343.746 433.944 343.323 435.403C342.901 436.862 342.568 438.072 342.338 439.032C342.101 439.992 342.05 440.465 342.171 440.465C342.299 440.465 342.581 440.248 343.016 439.806C343.458 439.364 343.982 438.744 344.597 437.944C345.211 437.144 345.883 436.164 346.619 435C347.355 433.841 348.085 432.548 348.808 431.14V431.94H348.802Z" fill="#233770" stroke="#223870" stroke-width="0.361728" stroke-miterlimit="10"/>
<path d="M354.887 427.941C353.915 427.941 353.051 428.331 352.295 429.112C351.54 429.893 350.913 430.827 350.414 431.902C349.908 432.984 349.537 434.091 349.281 435.237C349.025 436.382 348.903 437.323 348.903 438.072C348.903 439.07 348.98 439.755 349.14 440.113C349.3 440.472 349.499 440.651 349.755 440.651C350.004 440.651 350.407 440.305 350.958 439.614C351.508 438.923 352.148 437.976 352.891 436.766C353.627 435.557 354.427 434.123 355.291 432.459C356.155 430.795 357.025 428.971 357.902 426.993C358.215 427.121 358.555 427.307 358.913 427.557C359.271 427.806 359.457 428.011 359.457 428.171C359.457 428.235 359.361 428.581 359.175 429.208C358.99 429.835 358.759 430.603 358.491 431.518C358.222 432.427 357.94 433.413 357.646 434.462C357.345 435.512 357.083 436.478 356.846 437.361C356.609 438.238 356.43 438.981 356.302 439.576C356.174 440.171 356.161 440.472 356.257 440.472C356.385 440.472 356.699 440.235 357.198 439.768C357.697 439.294 358.305 438.648 359.009 437.816C359.713 436.984 360.468 435.998 361.268 434.846C362.068 433.701 362.798 432.453 363.457 431.102V431.947C363.361 432.107 363.143 432.465 362.798 433.029C362.452 433.592 362.03 434.238 361.524 434.961C361.019 435.685 360.475 436.453 359.873 437.272C359.278 438.091 358.695 438.84 358.132 439.531C357.569 440.222 357.025 440.798 356.507 441.253C355.988 441.707 355.572 441.931 355.259 441.931C355.041 441.931 354.817 441.848 354.599 441.688C354.382 441.528 354.267 441.118 354.267 440.472C354.267 439.998 354.337 439.397 354.478 438.661C354.619 437.925 354.811 437.112 355.041 436.235C355.278 435.358 355.534 434.437 355.815 433.483C356.097 432.523 356.379 431.589 356.66 430.68H356.615C356.27 431.403 355.79 432.382 355.182 433.624C354.567 434.865 353.908 436.081 353.204 437.272C352.5 438.462 351.796 439.499 351.111 440.382C350.42 441.259 349.825 441.701 349.319 441.701C348.379 441.701 347.732 441.387 347.387 440.753C347.041 440.126 346.868 439.243 346.868 438.11C346.868 437.195 347.035 436.094 347.361 434.801C347.687 433.509 348.148 432.267 348.724 431.07C349.3 429.873 349.998 428.849 350.798 427.998C351.598 427.147 352.468 426.725 353.409 426.725C354.068 426.725 354.657 426.878 355.175 427.192C355.694 427.505 356.001 427.755 356.091 427.953V428.049C356.014 427.973 355.604 427.941 354.887 427.941Z" fill="#233770" stroke="#223870" stroke-width="0.361728" stroke-miterlimit="10"/>
<path d="M376.927 431.99C376.204 433.469 375.468 434.8 374.713 435.99C373.958 437.187 373.247 438.205 372.569 439.049C371.89 439.894 371.282 440.547 370.732 441.001C370.182 441.456 369.766 441.686 369.484 441.686C369.234 441.686 368.998 441.616 368.78 441.475C368.562 441.334 368.454 440.969 368.454 440.374C368.454 439.779 368.62 438.941 368.946 437.865C369.279 436.784 369.644 435.657 370.054 434.486C370.463 433.315 370.828 432.208 371.161 431.177C371.494 430.147 371.654 429.379 371.654 428.88C371.654 428.413 371.494 428.176 371.18 428.176C370.93 428.176 370.457 428.528 369.766 429.232C369.074 429.936 368.3 430.896 367.436 432.118C366.572 433.341 365.676 434.761 364.754 436.387C363.826 438.013 363.02 439.753 362.329 441.597C362.015 441.501 361.689 441.347 361.337 441.123C360.991 440.905 360.818 440.701 360.818 440.509C360.818 440.445 360.895 440.131 361.055 439.568C361.215 439.005 361.414 438.294 361.67 437.449C361.926 436.605 362.188 435.67 362.47 434.646C362.751 433.629 363.026 432.63 363.295 431.657C363.564 430.685 363.788 429.789 363.98 428.976C364.166 428.163 364.281 427.529 364.306 427.094C364.652 427.222 365.036 427.395 365.458 427.613C365.881 427.83 366.092 428.022 366.092 428.176C366.092 428.361 365.964 428.931 365.714 429.872C365.465 430.813 365.17 431.849 364.844 432.982C364.511 434.115 364.198 435.171 363.903 436.163C363.602 437.149 363.423 437.789 363.359 438.07H363.455C363.673 437.597 363.986 437.001 364.396 436.278C364.806 435.555 365.26 434.793 365.759 433.993C366.258 433.193 366.796 432.387 367.359 431.568C367.922 430.755 368.492 430.019 369.055 429.379C369.618 428.739 370.162 428.208 370.681 427.805C371.199 427.401 371.66 427.19 372.07 427.19C373.17 427.19 373.721 427.632 373.721 428.509C373.721 428.822 373.625 429.341 373.439 430.064C373.254 430.787 373.017 431.593 372.735 432.489C372.454 433.385 372.159 434.301 371.865 435.241C371.564 436.182 371.289 437.046 371.039 437.833C370.79 438.621 370.61 439.261 370.495 439.766C370.386 440.272 370.393 440.521 370.521 440.521C370.649 440.521 370.937 440.272 371.391 439.766C371.846 439.267 372.39 438.589 373.017 437.744C373.644 436.899 374.31 435.907 375.02 434.774C375.73 433.641 376.364 432.438 376.927 431.145V431.99Z" fill="#233770" stroke="#223870" stroke-width="0.361728" stroke-miterlimit="10"/>
<path d="M391.139 431.991C391.011 432.272 390.768 432.714 390.41 433.309C390.051 433.904 389.623 434.563 389.136 435.287C388.65 436.01 388.125 436.746 387.562 437.501C386.999 438.256 386.442 438.947 385.891 439.575C385.341 440.202 384.823 440.72 384.336 441.13C383.85 441.539 383.447 441.744 383.133 441.744C382.883 441.744 382.647 441.667 382.429 441.507C382.211 441.347 382.096 440.976 382.096 440.375C382.096 440.061 382.167 439.581 382.307 438.935C382.448 438.295 382.647 437.546 382.896 436.695C383.146 435.85 383.427 434.915 383.747 433.891C384.061 432.874 384.407 431.811 384.784 430.711H384.688C384.343 431.434 383.869 432.4 383.274 433.61C382.679 434.819 382.032 436.01 381.341 437.187C380.65 438.365 379.959 439.383 379.267 440.247C378.576 441.111 377.981 441.539 377.475 441.539C376.567 441.539 375.946 441.213 375.613 440.554C375.28 439.895 375.12 439.018 375.12 437.917C375.12 437.04 375.28 435.959 375.594 434.666C375.907 433.379 376.355 432.157 376.938 430.992C377.52 429.834 378.199 428.835 378.986 428.003C379.773 427.171 380.637 426.755 381.578 426.755C382.205 426.755 382.781 426.903 383.299 427.203C383.818 427.504 384.125 427.76 384.215 427.978V428.119C384.151 428.055 384.01 428.016 383.792 428.003C383.575 427.991 383.306 427.978 382.992 427.978C382.051 427.978 381.207 428.362 380.471 429.13C379.735 429.898 379.114 430.819 378.608 431.882C378.103 432.951 377.719 434.045 377.456 435.178C377.187 436.311 377.053 437.219 377.053 437.911C377.053 438.947 377.149 439.639 377.335 439.984C377.52 440.33 377.744 440.503 377.994 440.503C378.211 440.503 378.589 440.163 379.127 439.491C379.664 438.819 380.285 437.885 381.008 436.688C381.731 435.498 382.525 434.083 383.389 432.451C384.253 430.819 385.123 429.027 386 427.082C386.346 426.077 386.666 425.098 386.967 424.138C387.267 423.178 387.53 422.307 387.767 421.527C388.003 420.739 388.183 420.067 388.311 419.504C388.439 418.941 388.496 418.519 388.496 418.231C388.496 418.071 388.49 417.955 388.471 417.879C388.451 417.802 388.4 417.635 388.304 417.386C388.867 417.514 389.354 417.77 389.763 418.16C390.173 418.551 390.378 418.858 390.378 419.075C390.378 419.453 390.199 420.24 389.834 421.431C389.475 422.627 389.034 424.003 388.515 425.578C387.997 427.146 387.447 428.797 386.864 430.525C386.282 432.253 385.763 433.847 385.309 435.306C384.855 436.765 384.503 437.968 384.247 438.909C383.991 439.85 383.965 440.323 384.151 440.323C384.279 440.323 384.592 440.093 385.091 439.639C385.591 439.184 386.179 438.538 386.858 437.706C387.53 436.874 388.247 435.901 389.002 434.787C389.757 433.674 390.461 432.458 391.12 431.139V431.991H391.139Z" fill="#233770" stroke="#223870" stroke-width="0.361728" stroke-miterlimit="10"/>
<defs>
<linearGradient id="paint0_linear_3022_6715" x1="111.644" y1="427.918" x2="129.746" y2="427.918" gradientUnits="userSpaceOnUse">
<stop stop-color="white"/>
<stop offset="0.1138" stop-color="#F6D2E3"/>
<stop offset="0.245" stop-color="#EEA5C7"/>
<stop offset="0.3774" stop-color="#E780AF"/>
<stop offset="0.509" stop-color="#E1639D"/>
<stop offset="0.6394" stop-color="#DD4E90"/>
<stop offset="0.7681" stop-color="#DB4289"/>
<stop offset="0.8935" stop-color="#DA3E86"/>
</linearGradient>
</defs>
</svg>
