<svg width="697" height="498" viewBox="0 0 697 498" fill="none" xmlns="http://www.w3.org/2000/svg">
<g clip-path="url(#clip0_1206_13962)">
<path fill-rule="evenodd" clip-rule="evenodd" d="M348.52 498C530.272 498 678.508 489.819 678.508 479.78C678.508 469.765 530.274 461.581 348.52 461.581C166.731 461.581 18.4942 469.763 18.4942 479.78C18.4942 489.819 166.728 498 348.52 498Z" fill="#FFF4FB"/>
<path d="M167.143 373.727C96.9721 365.097 40.994 334.436 19.0106 285.623C14.4362 275.435 11.5763 264.896 10.2524 254.165C5.60724 244.166 2.46152 233.689 0.959442 222.801C-11.0153 134.474 90.3241 50.0324 231.093 27.1382C357.92 -10.4031 483.565 13.8917 529.857 84.5467C600.028 93.1766 656.006 123.838 677.953 172.65C682.564 182.872 685.424 193.378 686.745 204.14C691.393 214.105 694.538 224.582 696.038 235.473C708.013 323.799 606.637 408.241 465.905 431.135C339.08 468.677 213.435 444.382 167.143 373.727Z" fill="#FFF4FB"/>
<path fill-rule="evenodd" clip-rule="evenodd" d="M168.404 303.772C126.877 281.091 43.542 238.967 43.4843 242.337C50.2529 244.302 138.173 288.884 167.94 314.278L168.404 303.772Z" fill="#F260B6"/>
<path fill-rule="evenodd" clip-rule="evenodd" d="M30.3143 236.603C33.8191 236.386 37.358 233.991 41.2011 235.559C45.0415 237.125 47.6079 240.404 48.2318 243.94C45.3115 246.033 41.188 246.553 37.3449 244.984C33.5176 243.413 32.7443 239.499 30.3143 236.603Z" fill="#F260B6"/>
<path fill-rule="evenodd" clip-rule="evenodd" d="M46.5409 257.373C47.9303 255.225 48.0587 252.111 50.6487 250.548C53.2334 248.974 56.2638 248.882 58.589 250.049C58.5445 252.667 57.0712 255.311 54.4865 256.888C51.907 258.443 49.2856 257.208 46.5409 257.373Z" fill="#F260B6"/>
<path fill-rule="evenodd" clip-rule="evenodd" d="M51.5059 235.759C52.7983 237.102 54.9767 237.689 55.6635 239.761C56.3451 241.852 55.9152 243.995 54.7119 245.451C52.8822 245.008 51.2595 243.528 50.5727 241.453C49.8806 239.368 51.1809 237.731 51.5059 235.759Z" fill="#F260B6"/>
<path fill-rule="evenodd" clip-rule="evenodd" d="M67.4023 236.11C66.8806 239.365 64.3221 242.458 65.4415 246.193C66.5661 249.91 69.3789 252.612 72.6294 253.501C74.8314 250.97 75.7044 247.169 74.585 243.436C73.4631 239.701 69.8822 238.644 67.4023 236.11Z" fill="#F260B6"/>
<path fill-rule="evenodd" clip-rule="evenodd" d="M61.5749 271.16C63.5698 268.075 63.7585 263.618 67.4574 261.362C71.1719 259.112 75.5209 258.978 78.8685 260.665C78.8134 264.413 76.6848 268.206 72.986 270.462C69.2714 272.712 65.5096 270.929 61.5749 271.16Z" fill="#F260B6"/>
<path fill-rule="evenodd" clip-rule="evenodd" d="M87.6555 237.899C86.5361 242.479 82.5227 246.587 83.6945 252.032C84.8532 257.483 88.552 261.675 93.0792 263.332C96.5317 259.962 98.212 254.645 97.0481 249.181C95.8868 243.73 90.9113 241.792 87.6555 237.899Z" fill="#F260B6"/>
<path fill-rule="evenodd" clip-rule="evenodd" d="M74.8 291.074C78.0584 286.051 78.3651 278.748 84.4207 275.076C90.4709 271.393 97.575 271.173 103.051 273.924C102.952 280.057 99.486 286.25 93.4358 289.933C87.3698 293.611 81.2304 290.699 74.8 291.074Z" fill="#F260B6"/>
<path fill-rule="evenodd" clip-rule="evenodd" d="M116.213 238.099C113.896 244.918 107.259 250.637 108.302 259.08C109.343 267.524 114.418 274.373 121.076 277.5C126.778 272.841 130.031 264.961 128.988 256.518C127.947 248.077 120.636 244.462 116.213 238.099Z" fill="#F260B6"/>
<path fill-rule="evenodd" clip-rule="evenodd" d="M91.7947 313.333C97.3155 306.563 98.9093 296.068 108.257 291.706C117.6 287.36 127.887 288.181 135.381 293.012C134.267 301.863 128.267 310.277 118.929 314.634C109.576 318.989 101.166 313.787 91.7947 313.333Z" fill="#F260B6"/>
<path fill-rule="evenodd" clip-rule="evenodd" d="M178.001 300.813C147.676 244.368 84.2896 134.936 81.7415 138.708C87.957 145.94 154.728 261.562 169.733 312.376L178.001 300.813Z" fill="#F260B6"/>
<path fill-rule="evenodd" clip-rule="evenodd" d="M71.054 122.482C75.1853 124.821 80.963 124.719 84.1664 129.338C87.3567 133.963 87.8521 139.576 85.9463 144.043C81.0967 144.256 76.0294 141.795 72.8287 137.176C69.6384 132.552 71.6569 127.56 71.054 122.482Z" fill="#F260B6"/>
<path fill-rule="evenodd" clip-rule="evenodd" d="M74.1079 158.029C77.2694 156.616 79.7152 153.185 83.8046 153.313C87.8993 153.452 91.3884 155.593 93.1789 158.638C91.1997 161.581 87.5716 163.483 83.4822 163.354C79.3901 163.215 77.348 159.873 74.1079 158.029Z" fill="#F260B6"/>
<path fill-rule="evenodd" clip-rule="evenodd" d="M95.7007 137.2C96.1909 139.665 98.2094 141.95 97.4597 144.812C96.6968 147.679 94.6206 149.798 92.1827 150.567C90.4342 148.696 89.674 145.816 90.4368 142.949C91.1866 140.088 93.8788 139.188 95.7007 137.2Z" fill="#F260B6"/>
<path fill-rule="evenodd" clip-rule="evenodd" d="M113.464 149.352C110.475 152.663 105.287 154.276 103.809 159.328C102.32 164.388 103.523 169.524 106.538 172.939C110.926 171.703 114.722 168.029 116.198 162.974C117.681 157.906 114.415 154.05 113.464 149.352Z" fill="#F260B6"/>
<path fill-rule="evenodd" clip-rule="evenodd" d="M80.9656 184.793C85.4954 182.77 89.0029 177.841 94.8776 178.041C100.747 178.23 105.77 181.296 108.336 185.669C105.5 189.881 100.286 192.628 94.4109 192.428C88.5442 192.239 85.5977 187.431 80.9656 184.793Z" fill="#F260B6"/>
<path fill-rule="evenodd" clip-rule="evenodd" d="M135.117 166.363C130.461 170.725 122.88 172.425 120.174 179.457C117.459 186.495 118.57 193.984 122.473 199.211C128.875 197.947 134.71 193.15 137.426 186.109C140.142 179.072 135.924 173.188 135.117 166.363Z" fill="#F260B6"/>
<path fill-rule="evenodd" clip-rule="evenodd" d="M81.2408 217.156C88.6543 213.861 94.39 205.816 103.979 206.129C113.563 206.43 121.773 211.44 125.96 218.609C121.323 225.484 112.8 229.954 103.227 229.647C93.6376 229.335 88.8247 221.476 81.2408 217.156Z" fill="#F260B6"/>
<path fill-rule="evenodd" clip-rule="evenodd" d="M167.342 187.723C159.677 193.742 147.933 195.308 142.868 205.654C137.822 216.004 138.514 227.528 143.754 236C153.653 234.933 163.174 228.406 168.223 218.056C173.287 207.71 167.664 198.194 167.342 187.723Z" fill="#F260B6"/>
<path fill-rule="evenodd" clip-rule="evenodd" d="M84.0772 254.973C95.3337 251.377 104.902 240.656 118.719 242.634C132.529 244.599 143.597 253.147 148.515 264.177C140.705 273.392 127.69 278.491 113.872 276.516C100.055 274.541 94.3533 262.422 84.0772 254.973Z" fill="#F260B6"/>
<path fill-rule="evenodd" clip-rule="evenodd" d="M189.553 303.675C183.008 247.345 166.566 136.649 163.242 138.918C166.002 146.897 183.204 263.789 178.968 310.49L189.553 303.675Z" fill="#F260B6"/>
<path fill-rule="evenodd" clip-rule="evenodd" d="M159.74 122.08C162.382 125.364 167.171 127.164 168.286 132.011C169.4 136.859 167.984 141.633 164.967 144.681C160.901 143.272 157.535 139.597 156.421 134.75C155.294 129.91 158.589 126.458 159.74 122.08Z" fill="#F260B6"/>
<path fill-rule="evenodd" clip-rule="evenodd" d="M150.656 152.322C153.726 152.193 156.856 150.168 160.167 151.611C163.496 153.059 165.68 155.962 166.152 159.047C163.562 160.812 159.952 161.201 156.641 159.758C153.315 158.31 152.72 154.892 150.656 152.322Z" fill="#F260B6"/>
<path fill-rule="evenodd" clip-rule="evenodd" d="M175.217 142.239C174.81 144.429 175.733 146.965 174.173 149.069C172.621 151.183 170.212 152.246 167.955 152.078C167.135 149.971 167.447 147.361 169.004 145.258C170.558 143.143 173.078 143.28 175.217 142.239Z" fill="#F260B6"/>
<path fill-rule="evenodd" clip-rule="evenodd" d="M185.86 158.035C182.323 159.771 177.534 159.414 174.671 163.084C171.796 166.761 171.106 171.383 172.472 175.171C176.488 175.585 180.803 173.804 183.668 170.132C186.541 166.457 185.105 162.21 185.86 158.035Z" fill="#F260B6"/>
<path fill-rule="evenodd" clip-rule="evenodd" d="M147.561 176.561C151.962 176.386 156.452 173.479 161.221 175.554C165.989 177.629 169.119 181.789 169.796 186.23C166.094 188.764 160.909 189.323 156.14 187.25C151.383 185.17 150.525 180.252 147.561 176.561Z" fill="#F260B6"/>
<path fill-rule="evenodd" clip-rule="evenodd" d="M198.12 179.093C192.869 181.16 186.082 180.079 181.558 184.987C177.033 189.894 175.505 196.402 177.018 201.979C182.682 203.028 189.055 200.993 193.58 196.085C198.107 191.18 196.56 184.96 198.12 179.093Z" fill="#F260B6"/>
<path fill-rule="evenodd" clip-rule="evenodd" d="M137.25 203.283C144.425 202.997 151.765 198.238 159.548 201.627C167.331 205.016 172.451 211.813 173.552 219.076C167.499 223.213 159.037 224.12 151.254 220.731C143.471 217.34 142.069 209.313 137.25 203.283Z" fill="#F260B6"/>
<path fill-rule="evenodd" clip-rule="evenodd" d="M217.66 207.18C209.4 209.636 199.226 207.081 191.692 213.937C184.148 220.799 180.976 230.505 182.517 239.19C191.016 241.545 200.964 239.284 208.496 232.427C216.032 225.571 214.512 215.897 217.66 207.18Z" fill="#F260B6"/>
<path fill-rule="evenodd" clip-rule="evenodd" d="M127.247 235.302C137.678 236.034 149.044 230.326 159.755 236.475C170.472 242.605 176.795 253.242 177.233 263.917C167.811 268.946 155.448 268.888 144.729 262.755C134.016 256.625 133.268 244.793 127.247 235.302Z" fill="#F260B6"/>
<path fill-rule="evenodd" clip-rule="evenodd" d="M537.216 124.732L506.131 136.058L533.679 148.327L537.216 124.732Z" fill="#EB038B"/>
<path fill-rule="evenodd" clip-rule="evenodd" d="M512.931 159.598L547.573 99.1388L606.605 206.359L512.931 159.598Z" fill="white"/>
<path fill-rule="evenodd" clip-rule="evenodd" d="M506.131 136.058C509.586 132.3 525.768 121.973 536.862 118.064L604.744 204.465L530.654 128.633C523.128 132.221 509.675 135.959 506.131 136.058Z" fill="#FFF4FB"/>
<path d="M256.62 433.192H226.862V479.61H168.805V433.192H82.7377V387.359L162.094 265.622H226.862V387.359H256.62V433.192ZM168.805 387.359V324.723L129.016 387.359H168.805Z" fill="#EB038B"/>
<path d="M352.334 482.82C326.906 482.82 306.784 472.813 291.96 452.797C277.135 432.78 269.727 406.458 269.727 373.834C269.727 340.39 277.316 313.997 292.502 294.649C307.683 275.299 327.991 265.625 353.419 265.625C380.076 265.625 400.511 275.944 414.713 296.58C428.916 317.216 436.026 343.585 436.026 375.689C436.026 408.417 428.382 434.454 413.096 453.804C397.805 473.149 377.552 482.82 352.334 482.82ZM352.858 437.864C361.692 437.864 367.596 432.245 370.576 420.995C373.557 409.749 375.049 394.37 375.049 374.855C375.049 348.052 373.069 330.541 369.114 322.32C365.158 314.105 359.792 309.994 353.013 309.994C344.795 309.994 339.119 315.413 335.987 326.247C332.851 337.085 331.286 352 331.286 370.999C331.286 396.781 332.849 414.369 335.987 423.765C339.119 433.166 344.745 437.864 352.858 437.864Z" fill="#EB038B"/>
<path d="M627.684 433.192H597.925V479.61H539.869V433.192H453.802V387.359L533.158 265.622H597.925V387.359H627.684V433.192ZM539.866 387.359V324.723L500.078 387.359H539.866Z" fill="#EB038B"/>
<path d="M243.201 433.192H213.442V479.61H155.383V433.192H69.3186V387.359L148.675 265.622H213.442V387.359H243.201V433.192ZM155.383 387.359V324.723L115.595 387.359H155.383Z" fill="#EB038B"/>
<path d="M338.912 482.82C313.484 482.82 293.362 472.813 278.538 452.797C263.714 432.78 256.305 406.457 256.305 373.834C256.305 340.39 263.895 313.997 279.08 294.649C294.261 275.299 314.569 265.625 339.997 265.625C366.655 265.625 387.089 275.944 401.292 296.58C415.497 317.215 422.604 343.585 422.604 375.689C422.604 408.417 414.96 434.453 399.674 453.804C384.386 473.149 364.13 482.82 338.912 482.82ZM339.436 437.863C348.271 437.863 354.174 432.245 357.155 420.994C360.135 409.749 361.627 394.37 361.627 374.855C361.627 348.052 359.648 330.541 355.692 322.32C351.736 314.104 346.37 309.994 339.591 309.994C331.373 309.994 325.697 315.413 322.565 326.247C319.43 337.085 317.865 352 317.865 370.999C317.865 396.781 319.427 414.369 322.565 423.764C325.697 433.165 331.323 437.863 339.436 437.863Z" fill="#EB038B"/>
<path d="M614.262 433.192H584.504V479.61H526.447V433.192H440.38V387.359L519.736 265.622H584.504V387.359H614.262V433.192ZM526.447 387.359V324.723L486.659 387.359H526.447Z" fill="#EB038B"/>
<path d="M305.192 201.266C302.709 201.266 300.429 200.683 298.352 199.518C296.274 198.353 294.628 196.744 293.412 194.692C292.196 192.615 291.588 190.271 291.588 187.662C291.588 185.078 292.196 182.76 293.412 180.708C294.628 178.631 296.274 177.009 298.352 175.844C300.429 174.679 302.709 174.096 305.192 174.096C307.7 174.096 309.98 174.679 312.032 175.844C314.109 177.009 315.743 178.631 316.934 180.708C318.15 182.76 318.758 185.078 318.758 187.662C318.758 190.271 318.15 192.615 316.934 194.692C315.743 196.744 314.109 198.353 312.032 199.518C309.954 200.683 307.674 201.266 305.192 201.266ZM305.192 196.516C306.788 196.516 308.194 196.161 309.41 195.452C310.626 194.717 311.576 193.679 312.26 192.336C312.944 190.993 313.286 189.435 313.286 187.662C313.286 185.889 312.944 184.343 312.26 183.026C311.576 181.683 310.626 180.657 309.41 179.948C308.194 179.239 306.788 178.884 305.192 178.884C303.596 178.884 302.177 179.239 300.936 179.948C299.72 180.657 298.77 181.683 298.086 183.026C297.402 184.343 297.06 185.889 297.06 187.662C297.06 189.435 297.402 190.993 298.086 192.336C298.77 193.679 299.72 194.717 300.936 195.452C302.177 196.161 303.596 196.516 305.192 196.516ZM328.036 182.988C328.72 182.025 329.657 181.227 330.848 180.594C332.064 179.935 333.444 179.606 334.99 179.606C336.788 179.606 338.41 180.049 339.854 180.936C341.323 181.823 342.476 183.089 343.312 184.736C344.173 186.357 344.604 188.245 344.604 190.398C344.604 192.551 344.173 194.464 343.312 196.136C342.476 197.783 341.323 199.062 339.854 199.974C338.41 200.886 336.788 201.342 334.99 201.342C333.444 201.342 332.076 201.025 330.886 200.392C329.72 199.759 328.77 198.961 328.036 197.998V211.032H322.716V179.948H328.036V182.988ZM339.17 190.398C339.17 189.131 338.904 188.042 338.372 187.13C337.865 186.193 337.181 185.483 336.32 185.002C335.484 184.521 334.572 184.28 333.584 184.28C332.621 184.28 331.709 184.533 330.848 185.04C330.012 185.521 329.328 186.231 328.796 187.168C328.289 188.105 328.036 189.207 328.036 190.474C328.036 191.741 328.289 192.843 328.796 193.78C329.328 194.717 330.012 195.439 330.848 195.946C331.709 196.427 332.621 196.668 333.584 196.668C334.572 196.668 335.484 196.415 336.32 195.908C337.181 195.401 337.865 194.679 338.372 193.742C338.904 192.805 339.17 191.69 339.17 190.398ZM353.79 182.988C354.474 182.025 355.411 181.227 356.602 180.594C357.818 179.935 359.198 179.606 360.744 179.606C362.542 179.606 364.164 180.049 365.608 180.936C367.077 181.823 368.23 183.089 369.066 184.736C369.927 186.357 370.358 188.245 370.358 190.398C370.358 192.551 369.927 194.464 369.066 196.136C368.23 197.783 367.077 199.062 365.608 199.974C364.164 200.886 362.542 201.342 360.744 201.342C359.198 201.342 357.83 201.025 356.64 200.392C355.474 199.759 354.524 198.961 353.79 197.998V211.032H348.47V179.948H353.79V182.988ZM364.924 190.398C364.924 189.131 364.658 188.042 364.126 187.13C363.619 186.193 362.935 185.483 362.074 185.002C361.238 184.521 360.326 184.28 359.338 184.28C358.375 184.28 357.463 184.533 356.602 185.04C355.766 185.521 355.082 186.231 354.55 187.168C354.043 188.105 353.79 189.207 353.79 190.474C353.79 191.741 354.043 192.843 354.55 193.78C355.082 194.717 355.766 195.439 356.602 195.946C357.463 196.427 358.375 196.668 359.338 196.668C360.326 196.668 361.238 196.415 362.074 195.908C362.935 195.401 363.619 194.679 364.126 193.742C364.658 192.805 364.924 191.69 364.924 190.398ZM382.28 201.342C380.557 201.342 379.012 201.038 377.644 200.43C376.276 199.797 375.186 198.948 374.376 197.884C373.59 196.82 373.16 195.642 373.084 194.35H378.442C378.543 195.161 378.936 195.832 379.62 196.364C380.329 196.896 381.203 197.162 382.242 197.162C383.255 197.162 384.04 196.959 384.598 196.554C385.18 196.149 385.472 195.629 385.472 194.996C385.472 194.312 385.117 193.805 384.408 193.476C383.724 193.121 382.622 192.741 381.102 192.336C379.531 191.956 378.239 191.563 377.226 191.158C376.238 190.753 375.376 190.132 374.642 189.296C373.932 188.46 373.578 187.333 373.578 185.914C373.578 184.749 373.907 183.685 374.566 182.722C375.25 181.759 376.212 180.999 377.454 180.442C378.72 179.885 380.202 179.606 381.9 179.606C384.408 179.606 386.409 180.239 387.904 181.506C389.398 182.747 390.222 184.432 390.374 186.56H385.282C385.206 185.724 384.851 185.065 384.218 184.584C383.61 184.077 382.786 183.824 381.748 183.824C380.785 183.824 380.038 184.001 379.506 184.356C378.999 184.711 378.746 185.205 378.746 185.838C378.746 186.547 379.1 187.092 379.81 187.472C380.519 187.827 381.621 188.194 383.116 188.574C384.636 188.954 385.89 189.347 386.878 189.752C387.866 190.157 388.714 190.791 389.424 191.652C390.158 192.488 390.538 193.603 390.564 194.996C390.564 196.212 390.222 197.301 389.538 198.264C388.879 199.227 387.916 199.987 386.65 200.544C385.408 201.076 383.952 201.342 382.28 201.342ZM401.809 174.02L401.201 192.374H396.717L396.071 174.02H401.809ZM399.073 201.266C398.11 201.266 397.312 200.975 396.679 200.392C396.071 199.784 395.767 199.037 395.767 198.15C395.767 197.263 396.071 196.529 396.679 195.946C397.312 195.338 398.11 195.034 399.073 195.034C400.01 195.034 400.783 195.338 401.391 195.946C401.999 196.529 402.303 197.263 402.303 198.15C402.303 199.037 401.999 199.784 401.391 200.392C400.783 200.975 400.01 201.266 399.073 201.266Z" fill="#243757"/>
</g>
<defs>
<clipPath id="clip0_1206_13962">
<rect width="697" height="498" fill="white"/>
</clipPath>
</defs>
</svg>
