<svg width="400" height="134" viewBox="0 0 400 134" fill="none" xmlns="http://www.w3.org/2000/svg">
<path d="M0 132.963C0 133.135 0.289748 133.273 0.650567 133.273H399.349C399.71 133.273 400 133.135 400 132.963C400 132.791 399.71 132.652 399.349 132.652H0.650567C0.289748 132.652 0 132.791 0 132.963Z" fill="#8790AB" fill-opacity="0.24"/>
<path d="M91.7432 49.1327L96.7538 50.78V43.5664H92.2069L91.7432 49.1327Z" fill="#F8A8AB"/>
<path d="M96.1336 45.5622C98.8912 45.5622 101.127 43.3267 101.127 40.5692C101.127 37.8116 98.8912 35.5762 96.1336 35.5762C93.3761 35.5762 91.1406 37.8116 91.1406 40.5692C91.1406 43.3267 93.3761 45.5622 96.1336 45.5622Z" fill="#F8A8AB"/>
<path d="M94.8618 40.961L95.5505 41.7964L96.7948 39.6168C96.7948 39.6168 98.3835 39.699 98.3835 38.5192C98.3835 37.3395 99.8411 37.3062 99.8411 37.3062C99.8411 37.3062 101.905 33.7023 97.6302 34.6512C97.6302 34.6512 94.6642 32.6204 93.1909 34.3558C93.1909 34.3558 88.6694 36.6332 89.9627 40.5971L92.1129 44.6842L92.6001 43.7588C92.6001 43.7588 92.3046 39.8751 94.8618 40.9571V40.961Z" fill="#2F2E43"/>
<path d="M94.3375 124H90.2406V129.813H94.3375V124Z" fill="#F8A8AB"/>
<path d="M93.8836 133.144C93.1832 133.207 89.6771 133.484 89.501 132.68C89.3406 131.943 89.5773 131.172 89.6106 131.066C89.9471 127.713 90.0723 127.676 90.1486 127.654C90.268 127.619 90.6162 127.785 91.1817 128.149L91.2169 128.172L91.2247 128.214C91.2345 128.266 91.4849 129.497 92.6725 129.307C93.4864 129.178 93.7506 128.998 93.8347 128.91C93.7662 128.879 93.6801 128.824 93.6195 128.73C93.5314 128.593 93.5158 128.417 93.5745 128.206C93.7271 127.648 94.1849 126.824 94.2045 126.791L94.2573 126.697L98.9138 129.839L101.79 130.661C102.007 130.724 102.181 130.878 102.269 131.086C102.39 131.375 102.316 131.712 102.081 131.923C101.559 132.393 100.522 133.197 99.4323 133.297C99.1427 133.324 98.7592 133.334 98.3288 133.334C96.5308 133.334 93.9051 133.148 93.8856 133.144H93.8836Z" fill="#2F2E43"/>
<path d="M99.5692 73.8877L88.8221 73.3379C88.8221 73.3379 87.1748 79.5831 89.2565 86.0904L89.5069 125.277H95.5799L101.305 84.8539L99.5692 73.8877Z" fill="#2F2E43"/>
<path d="M97.7574 47.7456L91.8585 44.6152C91.8585 44.6152 85.5019 53.9047 86.3803 58.9369C87.2608 63.969 88.822 73.3367 88.822 73.3367L101.835 73.8865L99.5633 55.4386L97.7574 47.7456Z" fill="#E2E3E4"/>
<path d="M97.2527 124H93.1558V129.813H97.2527V124Z" fill="#F8A8AB"/>
<path d="M96.7988 133.144C96.0984 133.207 92.5923 133.484 92.4162 132.68C92.2558 131.943 92.4925 131.172 92.5258 131.066C92.8623 127.713 92.9875 127.676 93.0638 127.654C93.1832 127.619 93.5314 127.785 94.0968 128.149L94.1321 128.172L94.1399 128.214C94.1497 128.266 94.4001 129.497 95.5877 129.307C96.4016 129.178 96.6657 128.998 96.7499 128.91C96.6814 128.879 96.5953 128.824 96.5347 128.73C96.4466 128.593 96.431 128.417 96.4896 128.206C96.6423 127.648 97.1001 126.824 97.1196 126.791L97.1725 126.697L101.829 129.839L104.705 130.661C104.922 130.724 105.096 130.878 105.184 131.086C105.306 131.375 105.231 131.712 104.997 131.923C104.474 132.393 103.437 133.197 102.347 133.297C102.058 133.324 101.674 133.334 101.244 133.334C99.4459 133.334 96.8203 133.148 96.8007 133.144H96.7988Z" fill="#2F2E43"/>
<path d="M101.835 73.8877L88.8221 73.3379C88.8221 73.3379 87.1748 79.5831 89.2565 86.0904L91.7726 125.277H97.8455L103.57 84.8539L101.835 73.8877Z" fill="#2F2E43"/>
<path d="M100.477 99.483C99.5672 99.483 98.5753 99.26 97.5951 99.0408C96.8692 98.8784 96.2294 98.8373 95.7168 98.806C94.9381 98.7571 94.3218 98.718 93.9794 98.2621C93.641 97.8121 93.641 97.0471 93.9794 95.5387C94.4294 93.5352 95.4312 90.3344 96.6559 87.7009C98.2388 84.3044 99.759 82.7412 101.177 83.0601C103.077 83.4866 103.834 86.6581 104.118 88.509C104.513 91.0935 104.478 94.1652 104.032 96.153C103.441 98.7845 102.085 99.481 100.475 99.481H100.477V99.483ZM100.823 83.6099C99.7805 83.6099 98.5009 85.132 97.1901 87.9494C95.9829 90.5418 94.9968 93.6937 94.5527 95.6678C94.269 96.9356 94.2377 97.6263 94.449 97.91C94.629 98.1487 95.1005 98.18 95.752 98.2191C96.2862 98.2523 96.9514 98.2934 97.7222 98.4676C100.786 99.1543 102.702 99.4047 103.459 96.0258C104.271 92.4063 103.652 84.2183 101.048 83.6333C100.974 83.6157 100.898 83.6079 100.821 83.6079H100.823V83.6099Z" fill="#DFDFE0"/>
<path d="M112.868 123.812L83.6863 124.003L79.1531 121.918L81.7944 94.9746L84.4513 95.1096L111.79 96.5007L112.868 123.812Z" fill="#0644B6"/>
<path opacity="0.2" d="M83.6863 124.003L79.1531 121.918L81.7944 94.9746L84.4513 95.1096L83.6863 124.003Z" fill="#272223"/>
<path d="M100.917 94.5117C100.375 94.5117 99.7825 94.3787 99.1994 94.2476C98.767 94.1498 98.3855 94.1263 98.0783 94.1067C97.6146 94.0774 97.2468 94.0539 97.0434 93.782C96.8418 93.5139 96.8418 93.058 97.0434 92.1581C97.3114 90.9626 97.9081 89.055 98.6399 87.4859C99.5829 85.4609 100.491 84.5296 101.336 84.7194C102.469 84.9738 102.921 86.8638 103.089 87.9692C103.324 89.5109 103.304 91.3422 103.038 92.5259C102.686 94.095 101.878 94.5098 100.917 94.5098V94.5117ZM101.125 85.0481C100.502 85.0481 99.7394 85.9559 98.9588 87.6366C98.2388 89.1822 97.6499 91.0605 97.3877 92.2383C97.2175 92.9935 97.1999 93.4063 97.327 93.5746C97.4346 93.7174 97.7144 93.735 98.1038 93.7585C98.4227 93.778 98.8179 93.8035 99.2777 93.9072C101.103 94.3161 102.246 94.4648 102.698 92.4515C103.181 90.2935 102.813 85.412 101.262 85.0638C101.217 85.054 101.172 85.0481 101.127 85.0481H101.125Z" fill="#DFDFE0"/>
<path d="M108.303 109.02L90.9058 109.133L88.2019 107.891L89.7769 91.8262L91.3617 91.9064L107.661 92.736L108.303 109.02Z" fill="#E2E3E4"/>
<path opacity="0.2" d="M90.9058 109.133L88.2019 107.891L89.7769 91.8262L91.3617 91.9064L90.9058 109.133Z" fill="#272223"/>
<path d="M101.935 83.6694C102.226 85.1016 101.692 86.4105 100.745 86.5924C99.7981 86.7744 98.7944 85.759 98.5048 84.3268C98.3816 83.7555 98.4011 83.1646 98.5616 82.6012L97.4092 76.5145L100.387 76.043L101.207 82.0925C101.577 82.5542 101.825 83.0942 101.935 83.6694Z" fill="#F8A8AB"/>
<path d="M90.2543 47.6318C90.2543 47.6318 94.6095 47.0801 95.1299 48.3812C95.6503 49.6822 101.766 80.6518 101.766 80.6518H97.732L90.2543 47.6318Z" fill="#E2E3E4"/>
<path d="M160.411 53.942L156.037 55.38V49.084H160.006L160.411 53.942Z" fill="#F8A8AB"/>
<path d="M156.579 50.8256C158.986 50.8256 160.938 48.874 160.938 46.4665C160.938 44.0591 158.986 42.1074 156.579 42.1074C154.171 42.1074 152.219 44.0591 152.219 46.4665C152.219 48.874 154.171 50.8256 156.579 50.8256Z" fill="#F8A8AB"/>
<path d="M157.776 46.0351C157.046 46.0135 156.567 45.2759 156.283 44.6029C155.999 43.9299 155.708 43.157 155.031 42.8792C154.477 42.6523 153.501 44.1881 153.065 43.7792C152.609 43.3527 153.053 41.1634 153.536 40.7701C154.019 40.3768 154.681 40.3005 155.303 40.2712C156.821 40.2008 158.349 40.324 159.838 40.6351C160.76 40.8268 161.707 41.1164 162.372 41.7816C163.213 42.6268 163.428 43.9005 163.489 45.092C163.552 46.3109 163.481 47.5866 162.888 48.6529C162.296 49.7192 161.055 50.5057 159.866 50.2337C159.746 49.5881 159.867 48.9248 159.914 48.2674C159.959 47.612 159.912 46.9038 159.511 46.3814C159.11 45.859 158.255 45.6516 157.79 46.1153" fill="#2F2E43"/>
<path d="M163.139 47.5463C163.575 47.2274 164.097 46.9593 164.634 47.0258C165.213 47.0963 165.704 47.5737 165.852 48.1391C166.001 48.7045 165.835 49.3267 165.475 49.7884C165.117 50.2502 164.583 50.5554 164.019 50.708C163.692 50.796 163.334 50.8332 163.023 50.7002C162.566 50.5026 162.317 49.9176 162.497 49.4519" fill="#2F2E43"/>
<path d="M158.967 124.004H154.87V129.817H158.967V124.004Z" fill="#F8A8AB"/>
<path d="M150.879 133.334C150.449 133.334 150.065 133.324 149.776 133.297C148.688 133.197 147.649 132.393 147.127 131.923C146.892 131.712 146.818 131.375 146.939 131.086C147.027 130.878 147.201 130.722 147.418 130.661L150.294 129.839L154.951 126.697L155.004 126.791C155.023 126.826 155.481 127.65 155.634 128.206C155.692 128.417 155.677 128.593 155.589 128.73C155.528 128.824 155.442 128.879 155.373 128.91C155.457 128.998 155.722 129.178 156.536 129.307C157.723 129.495 157.974 128.264 157.983 128.214L157.991 128.172L158.026 128.149C158.592 127.785 158.94 127.619 159.059 127.654C159.134 127.676 159.259 127.715 159.597 131.066C159.631 131.172 159.867 131.943 159.707 132.68C159.533 133.482 156.027 133.207 155.324 133.144C155.305 133.146 152.679 133.334 150.881 133.334H150.879Z" fill="#2F2E43"/>
<path d="M170.633 119.434L167.157 121.602L170.233 126.534L173.709 124.366L170.633 119.434Z" fill="#F8A8AB"/>
<path d="M166.015 132.537C165.533 132.537 165.091 132.478 164.776 132.424C164.467 132.369 164.225 132.122 164.174 131.813C164.138 131.59 164.203 131.365 164.356 131.199L166.361 128.98L168.65 123.85L168.744 123.901C168.779 123.921 169.603 124.377 170.028 124.768C170.19 124.917 170.27 125.075 170.266 125.237C170.264 125.351 170.221 125.441 170.178 125.505C170.296 125.537 170.615 125.548 171.374 125.228C172.481 124.76 172.043 123.582 172.023 123.533L172.008 123.494L172.025 123.457C172.313 122.848 172.518 122.524 172.639 122.49C172.716 122.469 172.841 122.436 174.901 125.102C174.985 125.173 175.594 125.703 175.848 126.413C176.124 127.186 173.003 128.808 172.375 129.125C172.356 129.141 169.09 131.514 167.748 132.189C167.216 132.457 166.586 132.539 166.013 132.539L166.015 132.537Z" fill="#2F2E43"/>
<path d="M161.984 75.3945H150.513L149.473 86.0653L154.027 125.493H159.883L157.541 102.721L167.04 123.28L172.244 119.637L164.827 100.444C164.827 100.444 167.476 83.7234 165.395 79.558C163.313 75.3926 161.984 75.3945 161.984 75.3945Z" fill="#2F2E43"/>
<path d="M167.69 76.0446H149.473L154.937 52.4922H162.875L167.69 76.0446Z" fill="#0644B6"/>
<path d="M144.947 52.0281C144.656 50.5959 145.19 49.287 146.137 49.1051C147.084 48.9231 148.087 49.9385 148.377 51.3707C148.5 51.942 148.481 52.5329 148.32 53.0963L149.472 59.183L146.495 59.6546L145.675 53.605C145.305 53.1433 145.057 52.6033 144.947 52.0281Z" fill="#F8A8AB"/>
<path d="M162.681 52.4922H155.68L150.961 61.9304L149.181 54.8576L145.27 55.2724C145.27 55.2724 146.195 69.0912 150.239 68.6236C154.284 68.156 163.716 55.7067 162.679 52.4902H162.681V52.4922Z" fill="#0644B6"/>
<path d="M169.292 97.2578C168.75 97.2578 168.157 97.1248 167.574 96.9937C167.142 96.8959 166.76 96.8724 166.453 96.8528C165.989 96.8235 165.621 96.8 165.418 96.5281C165.216 96.26 165.216 95.8041 165.418 94.9042C165.686 93.7087 166.283 91.8011 167.014 90.232C167.958 88.207 168.865 87.2757 169.711 87.4655C170.843 87.7199 171.295 89.6099 171.464 90.7153C171.698 92.257 171.679 94.0883 171.413 95.272C171.061 96.8411 170.253 97.2559 169.292 97.2559V97.2578ZM169.499 87.7942C168.877 87.7942 168.114 88.702 167.333 90.3827C166.613 91.9283 166.025 93.8065 165.762 94.9844C165.592 95.7396 165.575 96.1524 165.702 96.3207C165.809 96.4635 166.089 96.4811 166.478 96.5046C166.797 96.5241 167.193 96.5496 167.652 96.6533C169.478 97.0622 170.62 97.2109 171.072 95.1976C171.556 93.0396 171.188 88.1581 169.636 87.8099C169.591 87.8001 169.546 87.7942 169.501 87.7942H169.499Z" fill="#DFDFE0"/>
<path d="M176.68 111.764L159.282 111.878L156.578 110.635L158.153 94.5703L159.738 94.6505L176.038 95.4801L176.68 111.764Z" fill="#E2E3E4"/>
<path opacity="0.2" d="M159.282 111.878L156.578 110.635L158.153 94.5703L159.738 94.6505L159.282 111.878Z" fill="#272223"/>
<path d="M170.497 88.3843C170.789 89.8164 170.254 91.1253 169.308 91.3073C168.361 91.4892 167.357 90.4738 167.067 89.0417C166.944 88.4704 166.964 87.8795 167.124 87.316L165.972 81.2293L168.949 80.7578L169.769 86.8073C170.139 87.2691 170.388 87.8091 170.497 88.3843Z" fill="#F8A8AB"/>
<path d="M158.69 52.4908C158.69 52.4908 162.667 52.3225 162.875 52.4908C163.96 53.3771 170.329 85.3679 170.329 85.3679H166.295L158.69 52.4908Z" fill="#0644B6"/>
<path d="M304.505 121.107L291.338 111.794C295.779 107.468 299.818 101.308 303.681 94.3438L316.848 103.657C311.587 109.632 307.13 115.496 304.505 121.107Z" fill="#0644B6"/>
<path d="M304.509 111.19C306.655 111.19 308.395 109.451 308.395 107.304C308.395 105.158 306.655 103.418 304.509 103.418C302.363 103.418 300.623 105.158 300.623 107.304C300.623 109.451 302.363 111.19 304.509 111.19Z" fill="white"/>
<path d="M240.988 78.6094H239.543C239.492 78.6094 239.443 78.6296 239.407 78.6655C239.371 78.7014 239.351 78.7502 239.351 78.801V79.4354C239.351 79.4606 239.356 79.4855 239.366 79.5088C239.375 79.532 239.389 79.5531 239.407 79.5709C239.425 79.5887 239.446 79.6028 239.469 79.6125C239.492 79.6221 239.517 79.627 239.543 79.627H239.782V80.5776H240.748V79.627H240.988C241.039 79.627 241.087 79.6069 241.123 79.5709C241.159 79.535 241.18 79.4862 241.18 79.4354V78.801C241.18 78.7502 241.159 78.7014 241.123 78.6655C241.087 78.6296 241.039 78.6094 240.988 78.6094Z" fill="#E6E6E6"/>
<path d="M242.436 84.4143C241.551 83.119 241.098 81.5768 241.143 80.0086C241.144 79.9725 241.132 79.9371 241.11 79.9086C241.087 79.8801 241.056 79.8602 241.021 79.8522V79.5781H239.494V79.8484H239.473C239.453 79.8485 239.432 79.8526 239.413 79.8604C239.394 79.8683 239.377 79.8799 239.362 79.8945C239.348 79.909 239.336 79.9263 239.329 79.9453C239.321 79.9643 239.317 79.9847 239.317 80.0053C239.317 80.0091 239.317 80.0129 239.317 80.0167C239.458 81.6169 239.026 83.2151 238.099 84.5267C238.045 84.6032 238.018 84.695 238.021 84.7883L238.188 89.9515C238.192 90.0666 238.24 90.1758 238.323 90.2562C238.405 90.3366 238.516 90.3819 238.631 90.3828H242.083C242.2 90.3819 242.312 90.3355 242.394 90.2535C242.477 90.1715 242.525 90.0604 242.527 89.9439L242.591 84.9309C242.593 84.7469 242.539 84.5667 242.436 84.4143Z" fill="#0644B6"/>
<path opacity="0.2" d="M240.687 78.8145C240.687 78.9241 240.643 79.0293 240.566 79.1068C240.488 79.1843 240.383 79.2279 240.273 79.2279C240.164 79.2279 240.058 79.1843 239.981 79.1068C239.903 79.0293 239.86 78.9241 239.86 78.8145" fill="black"/>
<path d="M241.763 85.4102H238.849V87.3533H241.763V85.4102Z" fill="white"/>
<path d="M286.727 98.7793H284.021C283.926 98.7793 283.835 98.8171 283.768 98.8844C283.701 98.9516 283.663 99.0429 283.663 99.138V100.326C283.663 100.421 283.701 100.512 283.768 100.579C283.835 100.646 283.926 100.684 284.021 100.684H284.47V102.464H286.279V100.684H286.727C286.822 100.684 286.913 100.646 286.981 100.579C287.048 100.512 287.086 100.421 287.086 100.326V99.138C287.086 99.0429 287.048 98.9516 286.981 98.8844C286.913 98.8171 286.822 98.7793 286.727 98.7793Z" fill="#E6E6E6"/>
<path d="M289.437 109.647C287.78 107.222 286.933 104.335 287.017 101.4C287.019 101.332 286.997 101.266 286.955 101.212C286.913 101.159 286.854 101.122 286.788 101.107V100.594H283.931V101.1H283.891C283.853 101.1 283.815 101.107 283.779 101.122C283.744 101.137 283.711 101.159 283.684 101.186C283.657 101.213 283.635 101.246 283.621 101.281C283.606 101.317 283.598 101.355 283.598 101.393C283.598 101.4 283.599 101.408 283.599 101.415C283.824 104.553 283.064 107.367 281.319 109.857C281.218 110 281.167 110.172 281.173 110.347L281.485 120.012C281.492 120.227 281.583 120.432 281.738 120.582C281.892 120.733 282.099 120.817 282.314 120.819H288.778C288.996 120.817 289.205 120.731 289.36 120.577C289.515 120.424 289.604 120.216 289.608 119.997L289.728 110.614C289.732 110.269 289.63 109.932 289.437 109.647Z" fill="#0644B6"/>
<path opacity="0.2" d="M286.163 99.166C286.163 99.3713 286.081 99.5681 285.936 99.7132C285.791 99.8584 285.594 99.9399 285.389 99.9399C285.184 99.9399 284.987 99.8584 284.842 99.7132C284.697 99.5681 284.615 99.3713 284.615 99.166" fill="black"/>
<path d="M288.414 112.857H282.788C282.705 112.857 282.623 112.875 282.547 112.91C282.471 112.945 282.404 112.996 282.35 113.059C282.296 113.122 282.256 113.196 282.233 113.276C282.21 113.356 282.205 113.441 282.217 113.523L283.067 119.049H287.949L288.981 113.541C288.997 113.458 288.994 113.372 288.973 113.29C288.952 113.208 288.912 113.131 288.858 113.066C288.804 113.001 288.736 112.948 288.659 112.912C288.582 112.876 288.499 112.857 288.414 112.857Z" fill="white"/>
<path d="M279.008 121.091H262.88C264.007 114.995 263.748 107.633 262.88 99.7168H279.008C278.162 107.634 277.91 114.995 279.008 121.091Z" fill="#0644B6"/>
<path d="M271.041 113.708C273.187 113.708 274.927 111.968 274.927 109.822C274.927 107.675 273.187 105.936 271.041 105.936C268.894 105.936 267.155 107.675 267.155 109.822C267.155 111.968 268.894 113.708 271.041 113.708Z" fill="white"/>
<path d="M213.041 53.8223L216.661 53.4932L218.965 47.8979L214.851 45.5938L213.041 53.8223Z" fill="#FFB8B8"/>
<path d="M246.268 69.1836C246.388 68.8833 246.436 68.5588 246.406 68.2367C246.376 67.9145 246.271 67.6041 246.097 67.3309C245.924 67.0577 245.689 66.8295 245.41 66.6652C245.131 66.501 244.817 66.4052 244.495 66.386L238.873 66.0508L238.045 68.8032L243.832 70.3925C244.316 70.5253 244.832 70.4754 245.281 70.2525C245.73 70.0295 246.081 69.649 246.268 69.1836Z" fill="#FFB8B8"/>
<path d="M240.232 70.4389L240.17 65.2742L227.683 63.2818L218.064 52.2493C217.563 51.6753 216.872 51.3021 216.117 51.199C215.363 51.0958 214.596 51.2696 213.96 51.6881C213.575 51.9416 213.25 52.2765 213.009 52.6693C212.767 53.0621 212.615 53.5031 212.562 53.9613C212.51 54.4194 212.559 54.8834 212.706 55.3205C212.853 55.7577 213.094 56.1572 213.412 56.491L221.348 66.2574L240.232 70.4389Z" fill="#575A89"/>
<path d="M210.243 128.54H213.534L221.698 91.6281L230.156 103.031L235.093 127.717H238.22L237.562 101.22L226.535 72.9141H215.674C212.705 78.2859 210.377 83.8233 213.041 89.5359L210.243 128.54Z" fill="#2F2E41"/>
<path d="M233.075 130.781C233.039 130.898 233.028 131.02 233.043 131.142C233.058 131.263 233.098 131.379 233.161 131.484C233.225 131.588 233.31 131.677 233.41 131.746C233.511 131.815 233.625 131.862 233.745 131.883L241.799 133.312C242.118 133.371 242.446 133.31 242.723 133.143C243 132.976 243.206 132.713 243.303 132.404C243.397 132.109 243.384 131.79 243.266 131.504C243.148 131.218 242.933 130.982 242.659 130.838C240.888 129.929 239.364 128.604 238.217 126.977C237.332 127.801 236.342 127.723 235.292 127.116L234.177 127.255L233.075 130.781Z" fill="#2F2E41"/>
<path d="M208.719 130.781C208.682 130.898 208.671 131.02 208.686 131.142C208.701 131.263 208.741 131.379 208.805 131.484C208.868 131.588 208.953 131.677 209.054 131.746C209.154 131.815 209.268 131.862 209.389 131.883L217.443 133.312C217.761 133.371 218.09 133.31 218.367 133.143C218.643 132.976 218.85 132.713 218.946 132.404C219.04 132.109 219.027 131.79 218.909 131.504C218.791 131.218 218.576 130.982 218.302 130.838C216.531 129.929 215.007 128.604 213.86 126.977C212.975 127.801 211.986 127.723 210.935 127.116L209.821 127.255L208.719 130.781Z" fill="#2F2E41"/>
<path d="M219.047 49.9563C221.592 49.9563 223.655 47.8932 223.655 45.3483C223.655 42.8033 221.592 40.7402 219.047 40.7402C216.502 40.7402 214.439 42.8033 214.439 45.3483C214.439 47.8932 216.502 49.9563 219.047 49.9563Z" fill="#FFB8B8"/>
<path d="M214.933 74.1484L226.947 73.8193L223.419 62.7151C225.611 59.2001 223.405 55.6887 220.282 52.178L217.813 50.5323L213.863 50.2031C212.153 52.033 211.217 54.4536 211.252 56.9579C211.33 62.3205 212.28 68.1582 214.933 74.1484Z" fill="#575A89"/>
<path d="M242.535 81.6232C242.764 81.3946 242.935 81.1148 243.035 80.807C243.134 80.4992 243.159 80.1721 243.107 79.8528C243.056 79.5335 242.929 79.231 242.737 78.9704C242.545 78.7097 242.295 78.4983 242.005 78.3536L236.969 75.834L235.125 78.0388L239.821 81.7766C240.213 82.0889 240.706 82.2459 241.207 82.2176C241.708 82.1893 242.181 81.9777 242.535 81.6232Z" fill="#FFB8B8"/>
<path d="M236.492 80.4007L238.467 75.6281L227.771 68.8843L223.267 54.9571C223.033 54.2325 222.544 53.6174 221.891 53.2257C221.237 52.834 220.465 52.6923 219.715 52.8269C219.261 52.9083 218.831 53.0885 218.454 53.3546C218.078 53.6207 217.764 53.9663 217.536 54.3669C217.307 54.7675 217.17 55.2133 217.133 55.6729C217.096 56.1325 217.16 56.5947 217.321 57.0267L220.775 69.1275L236.492 80.4007Z" fill="#575A89"/>
<path d="M211.477 43.537C211.477 45.33 212.641 48.1067 214.11 49.297C215.098 50.0979 216.404 50.0642 216.908 48.9679C217.424 47.8433 219.205 45.1999 222.339 43.537C226.516 41.3203 220.857 37.5278 216.908 38.1061C213.94 38.5407 211.477 40.5376 211.477 43.537Z" fill="#2F2E41"/>
<path d="M214.275 41.0692C216.093 41.0692 217.566 39.5956 217.566 37.7778C217.566 35.96 216.093 34.4863 214.275 34.4863C212.457 34.4863 210.983 35.96 210.983 37.7778C210.983 39.5956 212.457 41.0692 214.275 41.0692Z" fill="#2F2E41"/>
<path d="M218.06 36.6254C218.06 35.7956 217.746 34.9966 217.181 34.3885C216.616 33.7804 215.843 33.4082 215.015 33.3464C215.097 33.3404 215.179 33.334 215.262 33.334C216.135 33.334 216.972 33.6808 217.59 34.298C218.207 34.9153 218.554 35.7525 218.554 36.6254C218.554 37.4984 218.207 38.3356 217.59 38.9528C216.972 39.5701 216.135 39.9169 215.262 39.9169C215.179 39.9169 215.097 39.9105 215.015 39.9044C215.843 39.8427 216.616 39.4704 217.181 38.8623C217.746 38.2542 218.06 37.4552 218.06 36.6254Z" fill="#2F2E41"/>
<path d="M219.13 46.9944C219.539 46.9944 219.87 46.5523 219.87 46.007C219.87 45.4616 219.539 45.0195 219.13 45.0195C218.721 45.0195 218.389 45.4616 218.389 46.007C218.389 46.5523 218.721 46.9944 219.13 46.9944Z" fill="#FFB8B8"/>
<path d="M312.387 122.503H261.149L250.299 71.2116H241.039V68.9102H252.165L263.015 120.201H312.387V122.503Z" fill="#3F3D56"/>
<path d="M268.658 131.873C271.382 131.873 273.59 129.665 273.59 126.942C273.59 124.218 271.382 122.01 268.658 122.01C265.934 122.01 263.726 124.218 263.726 126.942C263.726 129.665 265.934 131.873 268.658 131.873Z" fill="#3F3D56"/>
<path d="M305.482 131.873C308.206 131.873 310.414 129.665 310.414 126.942C310.414 124.218 308.206 122.01 305.482 122.01C302.758 122.01 300.55 124.218 300.55 126.942C300.55 129.665 302.758 131.873 305.482 131.873Z" fill="#3F3D56"/>
<path d="M311.453 121.418H261.601L252.806 77.9512H319.707C320.048 77.9512 320.386 78.0252 320.696 78.168C321.006 78.3109 321.281 78.5192 321.503 78.7786C321.725 79.038 321.888 79.3425 321.981 79.6709C322.074 79.9994 322.095 80.3441 322.042 80.6813L313.787 119.422C313.702 119.979 313.419 120.488 312.991 120.854C312.562 121.221 312.016 121.421 311.453 121.418ZM262.143 120.761H311.453C311.86 120.763 312.254 120.618 312.563 120.354C312.872 120.089 313.076 119.722 313.137 119.32L321.392 80.5792C321.43 80.3358 321.415 80.087 321.348 79.8499C321.281 79.6128 321.164 79.3931 321.003 79.2058C320.843 79.0186 320.644 78.8682 320.421 78.7652C320.197 78.6621 319.953 78.6087 319.707 78.6087H253.604L262.143 120.761Z" fill="#3F3D56"/>
<path d="M271.293 121.28L265.532 78.3337L266.181 78.2266L271.941 121.172L271.293 121.28Z" fill="#3F3D56"/>
<path d="M303.322 120.951L302.672 120.846L308.264 78.2285L308.914 78.3337L303.322 120.951Z" fill="#3F3D56"/>
<path d="M288.062 78.2812H287.404V121.227H288.062V78.2812Z" fill="#3F3D56"/>
<path d="M256.165 89.7877L256.163 90.4453L319.816 90.5994L319.817 89.9419L256.165 89.7877Z" fill="#3F3D56"/>
<path d="M315.326 110.102L259.405 110.484L259.41 111.142L315.33 110.76L315.326 110.102Z" fill="#3F3D56"/>
<path d="M242.026 71.7052C244.023 71.7052 245.642 70.822 245.642 69.7325C245.642 68.643 244.023 67.7598 242.026 67.7598C240.028 67.7598 238.409 68.643 238.409 69.7325C238.409 70.822 240.028 71.7052 242.026 71.7052Z" fill="#3F3D56"/>
</svg>
