<svg width="600" height="600" viewBox="0 0 600 600" fill="none" xmlns="http://www.w3.org/2000/svg">
<path d="M561.12 302.292C555.204 352.452 532.32 410.784 486.552 437.568C417.444 478.068 423.228 540.336 288.324 567.408C268.651 571.451 248.598 573.346 228.516 573.06C218.687 572.879 208.88 572.077 199.152 570.66C113.412 558.144 55.716 498.552 34.548 426.6C6.696 331.992 62.316 270 99.18 232.728C136.044 195.456 163.056 79.1279 295.464 51.5279C315.66 47.1939 336.288 45.2047 356.94 45.5999C404.052 46.7999 455.436 62.2319 490.992 94.5119C493.656 96.9119 496.256 99.4239 498.792 102.048C548.208 152.796 569.208 233.904 561.12 302.292Z" fill="#EB038B"/>
<path opacity="0.9" d="M561.12 302.292C555.204 352.452 532.32 410.784 486.552 437.568C417.444 478.068 423.228 540.336 288.324 567.408C268.651 571.451 248.598 573.346 228.516 573.06C218.687 572.879 208.88 572.077 199.152 570.66C113.412 558.144 55.716 498.552 34.548 426.6C6.696 331.992 62.316 270 99.18 232.728C136.044 195.456 163.056 79.1279 295.464 51.5279C315.66 47.1939 336.288 45.2047 356.94 45.5999C404.052 46.7999 455.436 62.2319 490.992 94.5119C493.656 96.9119 496.256 99.4239 498.792 102.048C548.208 152.796 569.208 233.904 561.12 302.292Z" fill="white"/>
<path opacity="0.3" d="M94.56 157.2L137.916 113.88C141.664 115.575 145.81 116.192 149.889 115.663C153.968 115.134 157.819 113.479 161.01 110.883C164.201 108.288 166.606 104.855 167.955 100.969C169.304 97.083 169.544 92.8983 168.648 88.8838L151.392 106.128C151.269 106.251 151.123 106.349 150.963 106.416C150.802 106.483 150.63 106.517 150.456 106.517C150.282 106.517 150.11 106.483 149.949 106.416C149.788 106.349 149.643 106.251 149.52 106.128L134.568 91.1998C134.445 91.0771 134.347 90.9313 134.28 90.7706C134.213 90.61 134.179 90.4378 134.179 90.2638C134.179 90.0898 134.213 89.9176 134.28 89.7569C134.347 89.5963 134.445 89.4505 134.568 89.3278L151.824 72.0838C147.809 71.1877 143.625 71.4276 139.739 72.7768C135.853 74.1259 132.42 76.5308 129.825 79.7219C127.229 82.9129 125.574 86.7639 125.045 90.843C124.515 94.9221 125.133 99.068 126.828 102.816L83.472 146.136C79.7267 144.457 75.5883 143.852 71.5191 144.389C67.4499 144.926 63.61 146.583 60.4283 149.176C57.2466 151.769 54.8483 155.195 53.5012 159.072C52.1541 162.949 51.9114 167.125 52.8 171.132L70.056 153.888C70.1776 153.765 70.3224 153.667 70.4821 153.601C70.6417 153.534 70.813 153.5 70.986 153.5C71.159 153.5 71.3302 153.534 71.4899 153.601C71.6495 153.667 71.7943 153.765 71.916 153.888L86.82 168.84C86.9433 168.962 87.0412 169.108 87.108 169.269C87.1748 169.43 87.2092 169.602 87.2092 169.776C87.2092 169.95 87.1748 170.122 87.108 170.283C87.0412 170.443 86.9433 170.589 86.82 170.712L69.6 187.956C73.6157 188.851 77.8016 188.609 81.6875 187.258C85.5734 185.906 89.0054 183.497 91.5981 180.302C94.1907 177.107 95.8414 173.253 96.3646 169.172C96.8878 165.091 96.2629 160.945 94.56 157.2Z" stroke="#243757" stroke-linecap="round" stroke-linejoin="round"/>
<path opacity="0.3" d="M180.684 60.3359L167.484 56.0039L157.128 65.2679L159.984 78.8759L173.184 83.1959L183.6 73.9319L180.684 60.3359ZM171.468 74.9879L166.236 73.2719L165.108 67.8839L169.212 64.2839L174.432 65.9879L175.56 71.3759L171.468 74.9879Z" stroke="#243757" stroke-linecap="round" stroke-linejoin="round"/>
<path opacity="0.3" d="M477.336 353.256L433.98 396.612C430.23 394.904 426.078 394.276 421.991 394.8C417.904 395.323 414.044 396.976 410.846 399.574C407.647 402.171 405.237 405.61 403.886 409.502C402.535 413.395 402.298 417.588 403.2 421.608L420.504 404.4C420.627 404.277 420.773 404.179 420.933 404.112C421.094 404.045 421.266 404.011 421.44 404.011C421.614 404.011 421.786 404.045 421.947 404.112C422.107 404.179 422.253 404.277 422.376 404.4L437.328 419.364C437.451 419.486 437.549 419.63 437.615 419.79C437.682 419.95 437.716 420.121 437.716 420.294C437.716 420.467 437.682 420.638 437.615 420.798C437.549 420.958 437.451 421.102 437.328 421.224L420.072 438.48C424.086 439.376 428.271 439.136 432.157 437.787C436.043 436.438 439.476 434.033 442.071 430.842C444.667 427.651 446.322 423.8 446.851 419.721C447.381 415.642 446.763 411.496 445.068 407.748L488.4 364.344C492.148 366.039 496.294 366.657 500.373 366.127C504.452 365.598 508.303 363.943 511.494 361.347C514.685 358.752 517.09 355.319 518.439 351.433C519.788 347.547 520.028 343.362 519.132 339.348L501.876 356.604C501.753 356.727 501.607 356.825 501.447 356.892C501.286 356.959 501.114 356.993 500.94 356.993C500.766 356.993 500.594 356.959 500.433 356.892C500.273 356.825 500.127 356.727 500.004 356.604L485.052 341.652C484.929 341.529 484.831 341.383 484.764 341.223C484.697 341.062 484.663 340.89 484.663 340.716C484.663 340.542 484.697 340.37 484.764 340.209C484.831 340.049 484.929 339.903 485.052 339.78L502.308 322.524C498.293 321.628 494.109 321.868 490.223 323.217C486.337 324.566 482.904 326.971 480.309 330.162C477.713 333.353 476.058 337.204 475.529 341.283C474.999 345.362 475.617 349.508 477.312 353.256H477.336Z" stroke="#243757" stroke-linecap="round" stroke-linejoin="round"/>
<path opacity="0.3" d="M391.2 450.156L404.4 454.488L414.744 445.212L411.9 431.616L398.7 427.284L388.344 436.56L391.2 450.156ZM400.416 435.504L405.648 437.22L406.776 442.596L402.672 446.268L397.452 444.552L396.324 439.176L400.416 435.504Z" stroke="#243757" stroke-linecap="round" stroke-linejoin="round"/>
<path opacity="0.3" d="M453.9 157.2L497.256 113.88C501.004 115.578 505.152 116.198 509.233 115.67C513.314 115.143 517.167 113.488 520.36 110.892C523.553 108.296 525.959 104.861 527.309 100.974C528.658 97.0865 528.898 92.8998 528 88.8839L510.732 106.128C510.61 106.251 510.466 106.349 510.306 106.415C510.146 106.482 509.975 106.516 509.802 106.516C509.629 106.516 509.458 106.482 509.298 106.415C509.138 106.349 508.994 106.251 508.872 106.128L493.908 91.1999C493.785 91.0772 493.687 90.9314 493.62 90.7707C493.553 90.6101 493.519 90.4378 493.519 90.2639C493.519 90.0899 493.553 89.9176 493.62 89.757C493.687 89.5964 493.785 89.4505 493.908 89.3279L511.2 72.0599C507.185 71.1638 503.001 71.4037 499.115 72.7528C495.229 74.1019 491.796 76.5069 489.201 79.6979C486.605 82.889 484.95 86.74 484.421 90.8191C483.891 94.8982 484.509 99.0441 486.204 102.792L442.8 146.136C439.052 144.441 434.906 143.823 430.827 144.353C426.748 144.882 422.897 146.537 419.706 149.133C416.515 151.728 414.11 155.161 412.761 159.047C411.412 162.933 411.172 167.117 412.068 171.132L429.324 153.888C429.447 153.765 429.592 153.667 429.753 153.6C429.914 153.533 430.086 153.499 430.26 153.499C430.434 153.499 430.606 153.533 430.767 153.6C430.927 153.667 431.073 153.765 431.196 153.888L446.16 168.84C446.283 168.963 446.381 169.108 446.448 169.269C446.515 169.43 446.549 169.602 446.549 169.776C446.549 169.95 446.515 170.122 446.448 170.283C446.381 170.443 446.283 170.589 446.16 170.712L428.904 187.956C432.922 188.86 437.113 188.624 441.005 187.276C444.897 185.927 448.335 183.52 450.932 180.323C453.53 177.127 455.184 173.269 455.708 169.184C456.233 165.099 455.606 160.948 453.9 157.2Z" stroke="#243757" stroke-linecap="round" stroke-linejoin="round"/>
<path opacity="0.3" d="M540 60.3359L526.8 56.0039L516.456 65.2679L519.3 78.8759L532.5 83.1959L542.844 73.9319L540 60.3359ZM530.784 74.9879L525.6 73.2719L524.4 67.8839L528.504 64.2839L533.724 65.9879L534.852 71.3759L530.784 74.9879Z" stroke="#243757" stroke-linecap="round" stroke-linejoin="round"/>
<path opacity="0.3" d="M563.856 160.416L550.656 156.096L540.3 165.36L543.156 178.956L556.356 183.288L566.712 174.012L563.856 160.416ZM554.64 175.068L549.408 173.364L548.28 168L552.384 164.328L557.604 166.044L558.732 171.432L554.64 175.068Z" stroke="#243757" stroke-linecap="round" stroke-linejoin="round"/>
<path opacity="0.3" d="M263.604 99.1198L250.404 94.7878L240.06 104.064L242.904 117.66L256.104 121.992L266.448 112.716L263.604 99.1198ZM254.4 113.772L249.168 112.056L248.04 106.68L252.144 103.008L257.364 104.724L258.492 110.1L254.4 113.772Z" stroke="#243757" stroke-linecap="round" stroke-linejoin="round"/>
<path opacity="0.3" d="M239.784 411.3L226.584 406.968L216.24 416.232L219.096 429.828L232.296 434.16L242.64 424.896L239.784 411.3ZM230.556 426L225.336 424.284L224.208 418.896L228.3 415.224L233.52 416.94L234.72 422.328L230.556 426Z" stroke="#243757" stroke-linecap="round" stroke-linejoin="round"/>
<path opacity="0.3" d="M72.18 242.892L58.98 238.572L48.636 247.836L51.48 261.432L64.68 265.764L75.024 256.488L72.18 242.892ZM62.952 257.544L57.732 255.84L56.532 250.452L60.636 246.78L65.856 248.496L67.056 253.884L62.952 257.544Z" stroke="#243757" stroke-linecap="round" stroke-linejoin="round"/>
<path opacity="0.3" d="M166.356 423.228L209.7 379.872C213.448 381.572 217.595 382.193 221.676 381.666C225.757 381.138 229.611 379.483 232.803 376.887C235.996 374.29 238.401 370.855 239.749 366.966C241.096 363.078 241.333 358.891 240.432 354.876L223.2 372.132C223.077 372.255 222.931 372.353 222.771 372.42C222.61 372.487 222.438 372.521 222.264 372.521C222.09 372.521 221.918 372.487 221.757 372.42C221.596 372.353 221.451 372.255 221.328 372.132L206.4 357.18C206.277 357.057 206.179 356.911 206.112 356.751C206.045 356.59 206.011 356.418 206.011 356.244C206.011 356.07 206.045 355.898 206.112 355.737C206.179 355.576 206.277 355.43 206.4 355.308L223.644 338.052C219.629 337.156 215.445 337.396 211.559 338.745C207.673 340.094 204.24 342.499 201.645 345.69C199.049 348.881 197.394 352.732 196.865 356.811C196.335 360.89 196.953 365.036 198.648 368.784L155.304 412.14C151.556 410.445 147.41 409.827 143.331 410.357C139.252 410.886 135.401 412.541 132.21 415.136C129.019 417.732 126.614 421.165 125.265 425.051C123.916 428.937 123.676 433.121 124.572 437.136L141.816 419.88C141.939 419.756 142.084 419.659 142.245 419.592C142.406 419.525 142.578 419.491 142.752 419.491C142.926 419.491 143.098 419.525 143.259 419.592C143.419 419.659 143.565 419.756 143.688 419.88L158.64 434.832C158.763 434.954 158.861 435.1 158.928 435.261C158.995 435.422 159.029 435.594 159.029 435.768C159.029 435.942 158.995 436.114 158.928 436.275C158.861 436.435 158.763 436.581 158.64 436.704L141.36 453.96C145.374 454.856 149.559 454.616 153.445 453.267C157.331 451.918 160.764 449.513 163.359 446.322C165.955 443.131 167.61 439.28 168.139 435.201C168.669 431.122 168.051 426.976 166.356 423.228Z" stroke="#243757" stroke-linecap="round" stroke-linejoin="round"/>
<path opacity="0.3" d="M252.48 326.328L239.28 321.996L228.924 331.272L231.78 344.868L244.98 349.2L255.336 339.924L252.48 326.328ZM243.264 340.98L238.032 339.264L236.904 333.888L240.996 330.216L246.228 331.932L247.356 337.308L243.264 340.98Z" stroke="#243757" stroke-linecap="round" stroke-linejoin="round"/>
<path d="M311.556 355.068H278.4V488.82H311.556V355.068Z" fill="#243757" stroke="#243757" stroke-linecap="round" stroke-linejoin="round"/>
<path d="M512.604 134.436H94.212V388.212H512.604V134.436Z" fill="#243757" stroke="#243757" stroke-linecap="round" stroke-linejoin="round"/>
<path d="M504.18 134.436H85.788V388.212H504.18V134.436Z" fill="#243757" stroke="#243757" stroke-linecap="round" stroke-linejoin="round"/>
<path d="M489.096 143.58H100.86V379.068H489.096V143.58Z" fill="white" stroke="#243757" stroke-linecap="round" stroke-linejoin="round"/>
<path d="M489.096 364.884H100.86V379.068H489.096V364.884Z" fill="white" stroke="#243757" stroke-linecap="round" stroke-linejoin="round"/>
<path d="M296.796 473.808L173.88 481.752V489.756H416.088V481.752L296.796 473.808Z" fill="#243757" stroke="#243757" stroke-linecap="round" stroke-linejoin="round"/>
<path d="M489.096 143.58H100.86V379.068H489.096V143.58Z" fill="white" stroke="#243757" stroke-linecap="round" stroke-linejoin="round"/>
<path d="M555.444 487.56H26.328" stroke="#243757" stroke-linecap="round" stroke-linejoin="round"/>
<path d="M582.924 487.56H568.68" stroke="#243757" stroke-linecap="round" stroke-linejoin="round"/>
<path d="M477.996 339.396C477.996 339.396 479.988 410.196 480.996 422.52C482.004 434.844 485.004 467.28 485.676 473.292C486.348 479.304 485.004 496.344 485.004 496.344L483.336 498L484.668 506.4C484.668 506.4 473.976 513.084 468.636 515.088C463.296 517.092 469.968 519.756 474.636 520.428C479.221 521.197 483.918 520.955 488.4 519.72C493.752 518.388 500.4 516.048 502.8 515.712C505.2 515.376 506.4 512.4 506.4 508.704C506.4 505.008 506.064 504.696 506.4 503.016C506.736 501.336 504.72 494.34 504.384 492.672C504.048 491.004 509.064 453.252 508.068 441.228C507.072 429.204 506.724 412.836 506.724 411.168C506.724 409.5 506.064 392.124 506.064 392.124C506.064 392.124 511.74 430.524 512.412 431.88C513.084 433.236 524.1 488.988 524.412 491.664C524.724 494.34 523.404 497.34 523.74 499.344C524.076 501.348 525.744 507.36 525.744 507.36C525.744 507.36 524.736 516.384 521.736 520.392C518.736 524.4 518.064 527.736 519.732 529.08C521.4 530.424 525.072 530.412 529.416 529.416C533.76 528.42 533.76 529.08 537.816 525.732C541.872 522.384 543.156 512.712 543.156 511.704C543.156 510.696 544.836 507.36 544.836 503.688C544.836 500.016 544.836 501.684 543.492 496.344C542.148 491.004 542.496 470.292 542.16 458.268C541.824 446.244 537.816 422.184 537.816 417.468C537.816 412.752 535.812 342.972 535.812 342.972C535.812 342.972 503.724 352.8 477.996 339.396Z" fill="#243757" stroke="#243757" stroke-linecap="round" stroke-linejoin="round"/>
<path d="M492.876 509.22C489.902 509.185 487.021 508.183 484.668 506.364C484.668 506.364 473.976 513.048 468.636 515.052C463.296 517.056 469.968 519.72 474.636 520.392C479.218 521.172 483.916 520.943 488.4 519.72C493.752 518.388 500.4 516.048 502.8 515.712C505.2 515.376 506.4 512.4 506.4 508.704C506.4 507.156 506.34 506.208 506.292 505.5C502.584 507.06 496.428 509.376 492.876 509.22Z" fill="white" stroke="#243757" stroke-linecap="round" stroke-linejoin="round"/>
<path d="M501.36 511.884C495.3 512.364 488.34 519.72 479.052 518.676C474.996 518.331 471.022 517.338 467.28 515.736C464.772 517.62 470.496 519.804 474.648 520.392C479.226 521.171 483.919 520.941 488.4 519.72C493.752 518.388 500.4 516.048 502.8 515.712C504.492 515.472 505.656 513.816 506.172 511.536C504.984 511.608 503.472 511.716 501.36 511.884Z" fill="white" stroke="#243757" stroke-linecap="round" stroke-linejoin="round"/>
<path d="M536.268 511.644C534.319 511.666 532.385 511.298 530.58 510.562C528.775 509.827 527.135 508.738 525.756 507.36C525.756 507.36 524.748 516.384 521.748 520.392C518.748 524.4 518.076 527.736 519.744 529.08C521.412 530.424 525.084 530.412 529.428 529.416C533.772 528.42 533.772 529.08 537.828 525.732C541.884 522.384 543.168 512.712 543.168 511.704C543.23 511.195 543.355 510.695 543.54 510.216C541.242 511.195 538.765 511.681 536.268 511.644Z" fill="white" stroke="#243757" stroke-linecap="round" stroke-linejoin="round"/>
<path d="M537.78 525.732C539.556 524.256 540.816 521.52 541.656 518.844V518.916C540.284 521.119 538.468 523.011 536.323 524.472C534.178 525.933 531.752 526.93 529.2 527.4C525.763 528.341 522.11 528.108 518.82 526.74C518.768 527.173 518.822 527.612 518.976 528.019C519.131 528.427 519.382 528.791 519.708 529.08C521.376 530.412 525.048 530.412 529.392 529.416C533.736 528.42 533.772 529.08 537.78 525.732Z" fill="white" stroke="#243757" stroke-linecap="round" stroke-linejoin="round"/>
<path d="M477.228 337.272C477.228 337.272 476.268 341.928 478.2 344.256C480.132 346.584 487.896 351.624 506.328 351.828C524.76 352.032 532.524 348 535.2 346.2C537.876 344.4 536.748 336.696 536.748 336.696C528.004 340.395 518.687 342.558 509.208 343.092C494.496 343.68 477.228 337.272 477.228 337.272Z" fill="#EB038B" stroke="#243757" stroke-linecap="round" stroke-linejoin="round"/>
<path d="M493.2 252.168L476.268 243.36C476.268 243.36 455.544 225.216 445.356 218.484C435.168 211.752 426.528 213.996 425.832 222.288C425.136 230.58 460.2 258.036 466.632 263.22C473.064 268.404 474.408 270.996 474.408 270.996C474.408 270.996 475.272 317.28 475.608 324.708C475.944 332.136 475.608 337.14 478.008 339.396C480.408 341.652 491.652 348.54 507.372 347.676C523.092 346.812 530.172 345.276 533.112 342.876C536.052 340.476 537.768 338.388 537.768 334.248C537.768 330.108 542.244 274.8 542.244 274.8C542.244 274.8 573.336 253.56 581.28 246.48C589.224 239.4 589.752 229.38 584.568 228.336C579.384 227.292 566.256 233.7 561.072 236.976C555.888 240.252 539.316 245.436 533.616 246.996C527.916 248.556 522.216 250.272 522.216 250.272C522.216 250.272 507.876 254.232 493.2 252.168Z" fill="#EB038B" stroke="#243757" stroke-linecap="round" stroke-linejoin="round"/>
<path d="M474.372 270.996L469.116 251.976" stroke="#243757" stroke-linecap="round" stroke-linejoin="round"/>
<path d="M472.116 264.18L464.136 246.984" stroke="#243757" stroke-linecap="round" stroke-linejoin="round"/>
<path d="M542.244 274.788L546.636 258.456" stroke="#243757" stroke-linecap="round" stroke-linejoin="round"/>
<path d="M543.648 270.672L549.636 259.944" stroke="#243757" stroke-linecap="round" stroke-linejoin="round"/>
<path d="M452.172 229.044L441.204 235.02" stroke="#243757" stroke-linecap="round" stroke-linejoin="round"/>
<path d="M562.848 243.252L568.08 247.488" stroke="#243757" stroke-linecap="round" stroke-linejoin="round"/>
<path d="M494.064 272.4L489.744 300.3C489.722 300.447 489.729 300.596 489.765 300.74C489.8 300.884 489.864 301.019 489.952 301.139C490.04 301.258 490.151 301.359 490.278 301.435C490.405 301.511 490.545 301.562 490.692 301.584C490.839 301.608 490.989 301.602 491.133 301.567C491.278 301.532 491.414 301.469 491.534 301.38C491.653 301.292 491.754 301.181 491.83 301.053C491.906 300.925 491.956 300.783 491.976 300.636L495.96 273.6L494.064 272.4Z" fill="white" stroke="#243757" stroke-linecap="round" stroke-linejoin="round"/>
<path d="M510.816 273.408L508.524 300.78C508.508 300.962 508.532 301.146 508.593 301.318C508.655 301.49 508.752 301.647 508.88 301.778C509.007 301.909 509.162 302.011 509.332 302.077C509.503 302.143 509.686 302.171 509.868 302.16C510.181 302.143 510.476 302.011 510.697 301.79C510.919 301.568 511.051 301.273 511.068 300.96L512.904 272.88L510.816 273.408Z" fill="white" stroke="#243757" stroke-linecap="round" stroke-linejoin="round"/>
<path d="M492.156 250.956C492.156 250.956 485.94 257.868 485.424 260.628C484.908 263.388 489.744 266.844 489.744 266.844C489.744 266.844 487.344 267.54 489.048 269.088C490.752 270.636 500.796 278.424 503.736 278.424C506.676 278.424 510.3 273.756 519.336 271.68C528.372 269.604 534.708 260.28 534.024 255.96C534 255.42 533.858 254.892 533.608 254.413C533.358 253.933 533.007 253.514 532.578 253.185C532.15 252.856 531.654 252.624 531.126 252.507C530.599 252.389 530.052 252.388 529.524 252.504C529.524 252.504 531.252 248.712 528.492 246.984C525.732 245.256 519.336 245.256 516.228 245.604C513.12 245.952 499.932 246.636 492.156 250.956Z" fill="#EB038B" stroke="#243757" stroke-linecap="round" stroke-linejoin="round"/>
<path d="M518.22 267.6C517.119 268.497 515.973 269.338 514.788 270.12" stroke="#243757" stroke-linecap="round" stroke-linejoin="round"/>
<path d="M529.464 252.504C529.464 252.504 525.324 260.46 522.264 263.904" stroke="#243757" stroke-linecap="round" stroke-linejoin="round"/>
<path d="M489.744 266.844L494.064 269.268" stroke="#243757" stroke-linecap="round" stroke-linejoin="round"/>
<path d="M429.456 229.536C427.56 227.808 422.724 222.972 426.528 217.104C430.332 211.236 436.2 213.3 441.036 213.3C445.872 213.3 480.756 221.76 480.756 221.76C480.756 221.76 488.184 208.98 489.744 206.736C491.304 204.492 497.34 204.336 497.34 204.336C497.34 204.336 498.72 204.852 498.036 206.58C497.352 208.308 496.128 207.444 495.792 211.38C495.456 215.316 493.536 229.512 490.26 231.24C486.984 232.968 478.344 230.892 478.344 230.892L439.128 232.8" fill="#BDBDBD"/>
<path d="M429.456 229.536C427.56 227.808 422.724 222.972 426.528 217.104C430.332 211.236 436.2 213.3 441.036 213.3C445.872 213.3 480.756 221.76 480.756 221.76C480.756 221.76 488.184 208.98 489.744 206.736C491.304 204.492 497.34 204.336 497.34 204.336C497.34 204.336 498.72 204.852 498.036 206.58C497.352 208.308 496.128 207.444 495.792 211.38C495.456 215.316 493.536 229.512 490.26 231.24C486.984 232.968 478.344 230.892 478.344 230.892L439.128 232.8" stroke="#243757" stroke-linecap="round" stroke-linejoin="round"/>
<path d="M439.128 232.8L456 231.972C455.047 231.156 454.282 230.144 453.756 229.005C453.23 227.866 452.956 226.627 452.952 225.372C453.018 222.015 454.079 218.754 456 216C449.04 214.476 442.8 213.252 441.012 213.252C436.212 213.252 430.296 211.176 426.504 217.056C422.712 222.936 427.536 227.76 429.432 229.488" fill="#EB038B"/>
<path d="M439.128 232.8L456 231.972C455.047 231.156 454.282 230.144 453.756 229.005C453.23 227.866 452.956 226.627 452.952 225.372C453.018 222.015 454.079 218.754 456 216C449.04 214.476 442.8 213.252 441.012 213.252C436.212 213.252 430.296 211.176 426.504 217.056C422.712 222.936 427.536 227.76 429.432 229.488" stroke="#243757" stroke-linecap="round" stroke-linejoin="round"/>
<path d="M495.264 205.524C495.264 205.524 488.064 219.864 488.364 221.592C488.664 223.32 489.564 225.396 489.564 226.08C489.564 226.764 485.772 235.584 486.456 237.996C487.14 240.408 490.056 251.652 492.852 255.624C495.648 259.596 497.508 259.596 497.508 259.596C497.508 259.596 496.128 269.088 497.172 271.86C498.216 274.632 501.66 279.06 503.736 278.424C505.812 277.788 517.2 264.432 518.244 260.424C519.288 256.416 520.488 242.796 520.488 242.796C520.488 242.796 522.564 239.004 523.764 237.276C527.518 232.732 529.703 227.095 529.992 221.208C530.328 212.232 521.7 203.94 513.924 201.696C506.148 199.452 498 204 495.264 205.524Z" fill="#BDBDBD" stroke="#243757" stroke-linecap="round" stroke-linejoin="round"/>
<path d="M493.884 227.808C493.884 227.808 490.092 236.208 490.776 236.616C491.627 237.244 492.605 237.678 493.642 237.885C494.679 238.093 495.749 238.069 496.776 237.816C500.052 236.952 500.052 235.224 500.052 235.224" stroke="#243757" stroke-linecap="round" stroke-linejoin="round"/>
<path d="M497.244 245.772C497.724 246.972 497.484 248.268 496.728 248.556C495.972 248.844 494.976 248.064 494.496 246.816C494.016 245.568 494.256 244.32 495.012 244.032C495.768 243.744 496.8 244.524 497.244 245.772Z" fill="#243757"/>
<path d="M497.508 259.596C497.508 259.596 500.1 259.248 502.176 258.732C504.252 258.216 512.544 251.304 512.544 251.304L496.8 269.436L497.508 259.596Z" fill="#243757" stroke="#243757" stroke-linecap="round" stroke-linejoin="round"/>
<path d="M502.692 220.38C502.692 220.38 507.192 217.62 509.604 222.972" stroke="#243757" stroke-linecap="round" stroke-linejoin="round"/>
<path d="M495.444 220.56C494.708 220.039 493.801 219.82 492.908 219.947C492.015 220.074 491.205 220.538 490.644 221.244" stroke="#243757" stroke-linecap="round" stroke-linejoin="round"/>
<path d="M505.464 228.42C505.464 229.416 504.96 230.232 504.336 230.232C503.712 230.232 503.208 229.416 503.208 228.42C503.208 227.424 503.712 226.596 504.336 226.596C504.96 226.596 505.464 227.412 505.464 228.42Z" fill="#243757"/>
<path d="M492.06 229.14C492.63 229.14 493.092 228.399 493.092 227.484C493.092 226.57 492.63 225.828 492.06 225.828C491.49 225.828 491.028 226.57 491.028 227.484C491.028 228.399 491.49 229.14 492.06 229.14Z" fill="#243757"/>
<path d="M518.592 241.104C519.264 241.6 519.97 242.05 520.704 242.448C521.268 241.428 522.792 238.704 523.764 237.312C527.518 232.768 529.703 227.131 529.992 221.244C530.328 212.268 521.7 203.976 513.924 201.732C509.704 200.707 505.267 201.047 501.252 202.704C501.48 203.148 502.272 203.652 504.42 203.976C509.088 204.66 514.608 202.416 517.548 204.492C520.488 206.568 521.7 212.784 519.108 215.028C516.516 217.272 511.164 220.896 513.408 223.836C515.003 225.76 516.18 227.996 516.864 230.4C516.864 231.096 515.82 231.78 516.864 231.96C517.908 232.14 519.264 232.476 519.792 230.916C520.32 229.356 523.08 226.944 524.46 229.716C525.84 232.488 524.112 235.716 522.564 237.828C521.478 239.18 520.126 240.295 518.592 241.104Z" fill="#243757" stroke="#243757" stroke-linecap="round" stroke-linejoin="round"/>
<path d="M574.896 245.604L561.252 245.088C561.252 245.088 521.172 235.236 518.244 233.688C515.316 232.14 516 227.688 515.652 226.596C515.304 225.504 514.452 220.896 515.304 219.696C516.156 218.496 523.428 212.952 523.944 212.268C524.46 211.584 523.08 208.296 523.428 207.468C523.776 206.64 524.628 206.424 525.492 206.952C526.006 207.259 526.381 207.754 526.536 208.332C526.536 208.332 528.264 208.668 529.812 211.44C531.36 214.212 531.708 216.444 531.372 217.44C531.036 218.436 532.92 220.548 532.572 222.096C531.881 224.014 531.017 225.866 529.992 227.628C529.992 227.628 562.632 226.248 568.164 226.248C573.696 226.248 586.644 225.552 588.192 228.648C589.74 231.744 588.192 237.108 585.6 240.744" fill="#BDBDBD"/>
<path d="M574.896 245.604L561.252 245.088C561.252 245.088 521.172 235.236 518.244 233.688C515.316 232.14 516 227.688 515.652 226.596C515.304 225.504 514.452 220.896 515.304 219.696C516.156 218.496 523.428 212.952 523.944 212.268C524.46 211.584 523.08 208.296 523.428 207.468C523.776 206.64 524.628 206.424 525.492 206.952C526.006 207.259 526.381 207.754 526.536 208.332C526.536 208.332 528.264 208.668 529.812 211.44C531.36 214.212 531.708 216.444 531.372 217.44C531.036 218.436 532.92 220.548 532.572 222.096C531.881 224.014 531.017 225.866 529.992 227.628C529.992 227.628 562.632 226.248 568.164 226.248C573.696 226.248 586.644 225.552 588.192 228.648C589.74 231.744 588.192 237.108 585.6 240.744" stroke="#243757" stroke-linecap="round" stroke-linejoin="round"/>
<path d="M529.992 227.64L525.204 227.04" stroke="#243757" stroke-linecap="round" stroke-linejoin="round"/>
<path d="M526.536 208.296C526.536 208.296 528.696 212.592 528.192 213.84L527.7 215.04" stroke="#243757" stroke-linecap="round" stroke-linejoin="round"/>
<path d="M531.372 217.452C530.388 218.413 529.325 219.288 528.192 220.068" stroke="#243757" stroke-linecap="round" stroke-linejoin="round"/>
<path d="M585.6 240.768C588.192 237.168 589.752 231.78 588.192 228.672C586.632 225.564 573.864 226.272 568.272 226.272C568.923 227.734 569.279 229.311 569.318 230.911C569.357 232.511 569.079 234.104 568.5 235.596C566.964 240 562.632 243.06 559.68 244.704L561.252 245.1L574.896 245.616" fill="#EB038B"/>
<path d="M585.6 240.768C588.192 237.168 589.752 231.78 588.192 228.672C586.632 225.564 573.864 226.272 568.272 226.272C568.923 227.734 569.279 229.311 569.318 230.911C569.357 232.511 569.079 234.104 568.5 235.596C566.964 240 562.632 243.06 559.68 244.704L561.252 245.1L574.896 245.616" stroke="#243757" stroke-linecap="round" stroke-linejoin="round"/>
<g opacity="0.3">
<path d="M292.8 200.004C293.917 197.884 294.502 195.524 294.504 193.128C294.504 189.048 292.883 185.135 289.998 182.25C287.113 179.365 283.2 177.744 279.12 177.744C275.04 177.744 271.127 179.365 268.242 182.25C265.357 185.135 263.736 189.048 263.736 193.128C263.741 195.556 264.337 197.947 265.473 200.094C266.608 202.241 268.248 204.08 270.252 205.452C268.266 205.812 266.41 206.686 264.868 207.988C263.326 209.29 262.153 210.973 261.465 212.871C260.778 214.768 260.6 216.812 260.95 218.8C261.3 220.787 262.166 222.648 263.46 224.196C260.925 225.479 258.786 227.425 257.271 229.828C255.756 232.231 254.921 235 254.856 237.84C254.856 246.672 262.908 253.848 272.856 253.848C282.804 253.848 290.856 246.648 290.856 237.84C290.849 235.767 290.395 233.721 289.524 231.84C290.108 231.888 290.696 231.912 291.288 231.912C301.584 231.912 309.936 224.712 309.936 215.94C309.864 207.6 302.4 200.688 292.8 200.004Z" fill="#243757"/>
<path d="M259.86 180.42C265.255 180.42 269.628 176.047 269.628 170.652C269.628 165.257 265.255 160.884 259.86 160.884C254.465 160.884 250.092 165.257 250.092 170.652C250.092 176.047 254.465 180.42 259.86 180.42Z" fill="#243757"/>
<path d="M233.532 157.92C232.945 157.918 232.371 158.089 231.882 158.414C231.393 158.738 231.011 159.2 230.785 159.741C230.559 160.283 230.498 160.879 230.611 161.455C230.725 162.031 231.006 162.56 231.42 162.976C231.834 163.391 232.362 163.675 232.937 163.79C233.513 163.905 234.109 163.847 234.651 163.623C235.194 163.399 235.657 163.02 235.984 162.532C236.31 162.044 236.484 161.471 236.484 160.884C236.481 160.101 236.169 159.351 235.617 158.796C235.064 158.241 234.315 157.926 233.532 157.92Z" fill="#243757"/>
<path d="M293.292 164.4C294.932 164.402 296.537 163.918 297.902 163.008C299.267 162.099 300.332 160.804 300.961 159.289C301.591 157.774 301.757 156.107 301.438 154.498C301.12 152.888 300.331 151.41 299.172 150.249C298.012 149.088 296.535 148.297 294.926 147.976C293.317 147.655 291.649 147.819 290.134 148.446C288.618 149.073 287.322 150.136 286.41 151.5C285.499 152.864 285.012 154.467 285.012 156.108C285.01 157.196 285.223 158.274 285.639 159.28C286.054 160.286 286.664 161.2 287.433 161.971C288.202 162.741 289.115 163.352 290.121 163.768C291.126 164.185 292.204 164.4 293.292 164.4Z" fill="#243757"/>
</g>
<g opacity="0.3">
<path d="M321.096 99.5999C320.509 99.5999 319.936 99.774 319.448 100.1C318.96 100.426 318.58 100.89 318.357 101.432C318.133 101.975 318.075 102.571 318.19 103.147C318.305 103.722 318.589 104.25 319.004 104.664C319.42 105.078 319.949 105.359 320.525 105.472C321.101 105.585 321.697 105.525 322.239 105.299C322.78 105.073 323.242 104.691 323.566 104.202C323.891 103.713 324.062 103.139 324.06 102.552C324.06 102.163 323.983 101.778 323.834 101.419C323.685 101.06 323.467 100.735 323.191 100.46C322.916 100.186 322.589 99.9688 322.229 99.8211C321.87 99.6735 321.485 99.5983 321.096 99.5999Z" fill="#243757"/>
<path d="M314.76 74.64C313.05 75.5376 311.645 76.9218 310.722 78.6177C309.799 80.3136 309.399 82.2451 309.573 84.1682C309.746 86.0913 310.486 87.9197 311.699 89.4224C312.912 90.9251 314.542 92.0348 316.385 92.6111C318.228 93.1874 320.201 93.2046 322.053 92.6605C323.906 92.1164 325.556 91.0354 326.795 89.554C328.033 88.0726 328.805 86.2574 329.012 84.3377C329.22 82.4179 328.854 80.4797 327.96 78.768C327.367 77.628 326.554 76.6165 325.568 75.7915C324.583 74.9665 323.444 74.3444 322.218 73.9608C320.991 73.5772 319.701 73.4398 318.421 73.5563C317.141 73.6729 315.897 74.0411 314.76 74.64Z" fill="#243757"/>
<path d="M380.4 141.6C381.517 139.48 382.102 137.12 382.104 134.724C382.095 132.385 381.538 130.082 380.477 127.997C379.416 125.913 377.882 124.107 375.996 122.724C383.28 118.68 387.168 111.144 385.992 104.304C386.926 103.585 387.695 102.675 388.248 101.634C388.802 100.594 389.127 99.4478 389.202 98.2718C389.277 97.0958 389.101 95.9174 388.684 94.8152C388.267 93.713 387.619 92.7125 386.785 91.8806C385.95 91.0486 384.948 90.4044 383.844 89.9909C382.741 89.5774 381.562 89.4043 380.386 89.4829C379.21 89.5616 378.065 89.8904 377.026 90.4472C375.988 91.0041 375.08 91.7762 374.364 92.7119C370.242 91.8599 365.957 92.3216 362.112 94.0319C362.119 91.6374 361.543 89.2772 360.432 87.1559C359.495 85.3658 358.215 83.7776 356.664 82.4822C355.114 81.1868 353.323 80.2096 351.395 79.6062C349.466 79.0028 347.438 78.7851 345.426 78.9655C343.413 79.146 341.456 79.7211 339.666 80.6579C337.876 81.5948 336.288 82.8751 334.992 84.4257C333.697 85.9763 332.72 87.7669 332.116 89.6952C330.898 93.5895 331.276 97.8085 333.168 101.424C334.499 103.944 336.528 106.027 339.012 107.424C338.174 108.885 337.732 110.54 337.728 112.224C337.729 113.265 337.899 114.298 338.232 115.284C336.373 114.874 334.449 114.864 332.586 115.255C330.723 115.647 328.965 116.431 327.429 117.555C325.893 118.678 324.613 120.117 323.676 121.773C322.739 123.43 322.165 125.267 321.994 127.163C321.822 129.059 322.056 130.969 322.68 132.768C323.304 134.566 324.304 136.211 325.613 137.592C326.922 138.974 328.511 140.061 330.273 140.781C332.035 141.501 333.93 141.837 335.832 141.768C333.965 143.742 332.742 146.237 332.324 148.922C331.906 151.607 332.313 154.356 333.492 156.804C331.023 158.489 329.188 160.951 328.279 163.799C327.37 166.646 327.439 169.716 328.474 172.52C329.51 175.324 331.454 177.701 333.996 179.274C336.538 180.847 339.532 181.525 342.504 181.2C343.464 189.24 351.096 195.504 360.372 195.504C370.308 195.504 378.372 188.304 378.372 179.496C378.363 177.425 377.913 175.379 377.052 173.496C377.628 173.544 378.216 173.568 378.816 173.568C389.112 173.568 397.452 166.368 397.452 157.596C397.428 149.16 389.904 142.308 380.4 141.6Z" fill="#243757"/>
<path d="M290.052 84.2279C289.533 84.5038 289.109 84.9276 288.831 85.4454C288.554 85.9633 288.437 86.5518 288.495 87.1364C288.553 87.7209 288.783 88.2751 289.156 88.7285C289.53 89.182 290.029 89.5143 290.592 89.6832C291.155 89.8521 291.755 89.8501 292.316 89.6774C292.877 89.5047 293.375 89.169 293.745 88.7131C294.115 88.2571 294.342 87.7014 294.396 87.1165C294.45 86.5316 294.329 85.9438 294.048 85.4279C293.677 84.7392 293.048 84.226 292.298 84.001C291.549 83.776 290.741 83.8576 290.052 84.2279Z" fill="#243757"/>
<path d="M346.02 62.2919C347.465 61.5265 348.651 60.3503 349.428 58.9118C350.206 57.4732 350.54 55.8367 350.388 54.2086C350.237 52.5805 349.607 51.0336 348.577 49.7631C347.548 48.4926 346.166 47.5553 344.604 47.0694C343.043 46.5834 341.373 46.5707 339.804 47.0327C338.236 47.4947 336.839 48.4107 335.791 49.6654C334.742 50.92 334.088 52.457 333.912 54.0827C333.736 55.7083 334.045 57.3497 334.8 58.7999C335.304 59.7687 335.996 60.628 336.834 61.3285C337.672 62.029 338.64 62.5567 339.683 62.8813C340.726 63.2058 341.823 63.3209 342.91 63.2197C343.998 63.1186 345.055 62.8033 346.02 62.2919Z" fill="#243757"/>
</g>
<path d="M258.576 209.796C258.576 208.163 258.092 206.567 257.185 205.209C256.277 203.852 254.988 202.793 253.479 202.168C251.971 201.544 250.311 201.38 248.709 201.699C247.108 202.017 245.637 202.804 244.482 203.958C243.327 205.113 242.541 206.584 242.223 208.185C241.904 209.787 242.068 211.447 242.692 212.955C243.317 214.464 244.376 215.753 245.733 216.661C247.091 217.568 248.687 218.052 250.32 218.052C252.51 218.052 254.61 217.182 256.158 215.634C257.706 214.086 258.576 211.986 258.576 209.796Z" fill="white" stroke="#243757" stroke-linecap="round" stroke-linejoin="round"/>
<path d="M256.272 203.88L244.992 215.16" stroke="#243757" stroke-linecap="round" stroke-linejoin="round"/>
<path d="M335.196 296.844C335.196 295.211 334.712 293.615 333.805 292.257C332.897 290.9 331.608 289.841 330.099 289.217C328.591 288.592 326.931 288.428 325.329 288.747C323.728 289.065 322.257 289.852 321.102 291.006C319.948 292.161 319.161 293.632 318.843 295.233C318.524 296.835 318.688 298.495 319.312 300.004C319.937 301.512 320.996 302.802 322.353 303.709C323.711 304.616 325.307 305.1 326.94 305.1C329.13 305.1 331.23 304.23 332.778 302.682C334.326 301.134 335.196 299.034 335.196 296.844Z" fill="#243757" stroke="#243757" stroke-linecap="round" stroke-linejoin="round"/>
<path d="M404.256 209.796C404.256 208.163 403.772 206.567 402.865 205.209C401.957 203.852 400.668 202.793 399.159 202.168C397.651 201.544 395.991 201.38 394.389 201.699C392.788 202.017 391.317 202.804 390.162 203.958C389.008 205.113 388.221 206.584 387.903 208.185C387.584 209.787 387.748 211.447 388.372 212.955C388.997 214.464 390.056 215.753 391.413 216.661C392.771 217.568 394.367 218.052 396 218.052C398.19 218.052 400.29 217.182 401.838 215.634C403.386 214.086 404.256 211.986 404.256 209.796Z" fill="white" stroke="#243757" stroke-linecap="round" stroke-linejoin="round"/>
<path d="M401.952 203.88L390.672 215.16" stroke="#243757" stroke-linecap="round" stroke-linejoin="round"/>
<path d="M292.356 491.784L263.556 501.792C263.084 501.956 262.683 502.276 262.419 502.7C262.155 503.123 262.043 503.625 262.104 504.12C262.173 504.675 262.451 505.182 262.882 505.539C263.312 505.896 263.862 506.075 264.42 506.04L294 504.276L292.356 491.784Z" fill="white" stroke="#243757" stroke-linecap="round" stroke-linejoin="round"/>
<path d="M264.468 506.04L269.208 500.22" stroke="#243757" stroke-linecap="round" stroke-linejoin="round"/>
<path d="M269.856 505.62L276.084 498.036" stroke="#243757" stroke-linecap="round" stroke-linejoin="round"/>
<path d="M275.268 505.476L283.824 494.976" stroke="#243757" stroke-linecap="round" stroke-linejoin="round"/>
<path d="M280.944 505.164L291.084 492.744" stroke="#243757" stroke-linecap="round" stroke-linejoin="round"/>
<path d="M302.196 497.352C301.999 495.731 301.326 494.205 300.261 492.967C299.197 491.728 297.789 490.834 296.216 490.395C294.643 489.957 292.976 489.995 291.425 490.504C289.873 491.014 288.508 491.972 287.501 493.257C286.494 494.543 285.891 496.098 285.768 497.726C285.645 499.354 286.007 500.982 286.81 502.405C287.612 503.827 288.818 504.979 290.275 505.716C291.732 506.453 293.375 506.741 294.996 506.544C296.072 506.413 297.112 506.072 298.057 505.539C299.001 505.006 299.831 504.293 300.5 503.439C301.168 502.586 301.662 501.609 301.953 500.564C302.244 499.52 302.327 498.428 302.196 497.352Z" fill="white" stroke="#243757" stroke-linecap="round" stroke-linejoin="round"/>
<path d="M299.196 491.748L289.356 504.3" stroke="#243757" stroke-linecap="round" stroke-linejoin="round"/>
<path d="M442.164 490.152L439.296 493.752C438.96 493.536 438.624 493.32 438.24 493.116C436.916 492.379 435.545 491.729 434.136 491.172L441.336 489.036L444.12 488.388V488.208V480.3L430.392 482.928L432.792 484.956L431.712 484.644L421.656 487.632C417.432 486.768 418.932 483.396 414.084 482.928L410.028 481.476L392.76 480.708L389.868 480.78C383.868 477.324 378.348 476.916 375.672 485.58L369 481.848L360.864 483.048L365.46 479.568L353.556 476.04V484.164L344.4 485.664H328.992V493.788L341.916 495.684C341.467 496.108 341.065 496.579 340.716 497.088L328.5 497.676L325.548 492.636V500.76L328.5 505.788L339.792 505.248V512.052L352.272 515.652L362.4 512.64C366.918 513.541 371.48 514.206 376.068 514.632L374.028 518.796L391.296 519.564L393.36 515.4C398.388 515.4 403.452 515.148 408.396 514.68L415.068 518.412L430.5 516.072L429.3 510.912C431.148 510.36 432.9 509.784 434.376 509.16L447.24 511.056L454.968 506.496V499.68L458.376 499.524V491.4L442.164 490.152ZM357.516 486.432L360.216 487.944C358.524 488.316 356.94 488.724 355.416 489.144L357.516 486.432ZM412.248 508.032V503.916L407.604 504.048V503.448L402.696 504.204C393.624 504.468 381.288 504.84 380.856 504.84L379.836 506.916C372.552 507.3 366.204 506.844 362.292 504.648C353.664 499.848 359.964 493.92 376.38 491.448C392.796 488.976 413.076 490.872 421.704 495.684C429.456 499.98 425.124 505.2 412.248 508.008V508.032ZM451.2 500.652L446.4 500.1L452.676 499.8L451.2 500.652Z" fill="#243757"/>
<path d="M444.12 488.208V488.388L441.336 489.036L434.136 491.172C435.545 491.729 436.916 492.379 438.24 493.116C438.624 493.32 438.96 493.536 439.296 493.752L442.164 490.152L458.376 491.4V499.524L454.968 499.68V506.496L447.24 511.056L434.376 509.16C432.9 509.784 431.148 510.36 429.3 510.912L430.5 516.072L415.068 518.412L408.396 514.68C403.452 515.148 398.388 515.4 393.36 515.4L391.296 519.564L374.028 518.796L376.068 514.632C371.48 514.206 366.918 513.541 362.4 512.64L352.272 515.652L339.792 512.052V505.248L328.5 505.788L325.548 500.76V492.636L328.5 497.676L340.716 497.088C341.065 496.579 341.467 496.108 341.916 495.684L328.992 493.788V485.664H344.4L353.556 484.164V476.04L365.46 479.568L360.864 483.048L369 481.848L375.672 485.58C378.348 476.916 383.868 477.324 389.868 480.78L392.76 480.708L410.028 481.476L414.084 482.928C418.932 483.396 417.432 486.768 421.656 487.632L431.712 484.644L432.792 484.956L430.392 482.928L444.12 480.3V488.208ZM444.12 488.208H444.18M357.516 486.432L360.216 487.944C358.524 488.316 356.94 488.724 355.416 489.144L357.516 486.432ZM412.248 508.032V503.916L407.604 504.048V503.448L402.696 504.204C393.624 504.468 381.288 504.84 380.856 504.84L379.836 506.916C372.552 507.3 366.204 506.844 362.292 504.648C353.664 499.848 359.964 493.92 376.38 491.448C392.796 488.976 413.076 490.872 421.704 495.684C429.456 499.98 425.124 505.2 412.248 508.008V508.032ZM451.2 500.652L446.4 500.1L452.676 499.8L451.2 500.652Z" stroke="#243757" stroke-linecap="round" stroke-linejoin="round"/>
<path d="M409.992 473.364L406.044 479.412L409.992 478.44V473.364Z" fill="#243757" stroke="#243757" stroke-linecap="round" stroke-linejoin="round"/>
<path d="M407.604 500.736C391.2 503.22 370.908 501.324 362.292 496.512C353.676 491.7 359.964 485.772 376.38 483.312C392.796 480.852 413.076 482.724 421.704 487.536C430.332 492.348 424.02 498.264 407.604 500.736ZM368.964 473.736L353.52 476.136L360.216 479.88C356.592 480.645 353.036 481.705 349.584 483.048L336.72 481.164L328.992 485.712L341.916 487.608C341.271 488.153 340.745 488.826 340.371 489.584C339.997 490.341 339.784 491.168 339.744 492.012L325.584 492.684L328.536 497.724L342.732 497.04C343.672 497.807 344.68 498.486 345.744 499.068C347.068 499.801 348.439 500.447 349.848 501L339.828 503.976L352.308 507.576L362.364 504.588C366.891 505.484 371.461 506.149 376.056 506.58L373.992 510.732L391.26 511.5L393.324 507.348C398.352 507.348 403.416 507.084 408.36 506.616L415.032 510.348L430.464 508.02L423.768 504.276C427.391 503.505 430.946 502.446 434.4 501.108L447.264 502.992L454.992 498.444L442.068 496.548C442.713 496.002 443.238 495.33 443.612 494.572C443.986 493.814 444.2 492.988 444.24 492.144L458.4 491.46L455.448 486.432L441.252 487.104C440.312 486.342 439.303 485.667 438.24 485.088C436.914 484.355 435.543 483.706 434.136 483.144L444.168 480.168L431.676 476.568L421.62 479.556C417.094 478.654 412.524 477.989 407.928 477.564L409.992 473.412L392.724 472.632L390.66 476.796C385.632 476.796 380.568 477.06 375.636 477.516L368.964 473.784" fill="#BDBDBD"/>
<path d="M368.964 473.736L353.52 476.136L360.216 479.88C356.592 480.645 353.036 481.705 349.584 483.048L336.72 481.164L328.992 485.712L341.916 487.608C341.271 488.153 340.745 488.826 340.371 489.584C339.997 490.341 339.784 491.168 339.744 492.012L325.584 492.684L328.536 497.724L342.732 497.04C343.672 497.807 344.68 498.486 345.744 499.068C347.068 499.801 348.439 500.447 349.848 501L339.828 503.976L352.308 507.576L362.364 504.588C366.891 505.484 371.461 506.149 376.056 506.58L373.992 510.732L391.26 511.5L393.324 507.348C398.352 507.348 403.416 507.084 408.36 506.616L415.032 510.348L430.464 508.02L423.768 504.276C427.391 503.505 430.946 502.446 434.4 501.108L447.264 502.992L454.992 498.444L442.068 496.548C442.713 496.002 443.238 495.33 443.612 494.572C443.986 493.814 444.2 492.988 444.24 492.144L458.4 491.46L455.448 486.432L441.252 487.104C440.312 486.342 439.303 485.667 438.24 485.088C436.914 484.355 435.543 483.706 434.136 483.144L444.168 480.168L431.676 476.568L421.62 479.556C417.094 478.654 412.524 477.989 407.928 477.564L409.992 473.412L392.724 472.632L390.66 476.796C385.632 476.796 380.568 477.06 375.636 477.516L368.964 473.784M407.604 500.736C391.2 503.22 370.908 501.324 362.292 496.512C353.676 491.7 359.964 485.772 376.38 483.312C392.796 480.852 413.076 482.724 421.704 487.536C430.332 492.348 424.02 498.264 407.604 500.736Z" stroke="#243757" stroke-linecap="round" stroke-linejoin="round"/>
<path d="M296.1 292.956C296.096 290.855 295.94 288.758 295.632 286.68L306.696 283.08L308.208 279.48L305.808 280.188L302.388 269.652L291.288 273.252C289.356 269.592 286.903 266.233 284.004 263.28L290.844 253.86L292.356 250.26L289.956 253.212L279.432 245.568L272.568 255.012C268.856 253.175 264.893 251.897 260.808 251.22V239.58H249L248.088 235.98L246.588 239.58V251.256C242.504 251.95 238.545 253.244 234.84 255.096L228 245.64L220.308 251.232L218.064 250.332L217.824 250.92L216.552 253.956L223.428 263.4C220.553 266.367 218.128 269.739 216.228 273.408L208.8 271.008L206.664 266.208L205.152 269.808L200.784 283.248L211.884 286.848C211.59 288.863 211.441 290.896 211.44 292.932C211.443 295.033 211.6 297.13 211.908 299.208L205.908 301.164L202.38 299.184L200.88 302.784L205.2 316.272L216.3 312.672C218.233 316.337 220.691 319.701 223.596 322.656L219.336 328.5H218.256L216.744 332.1L228.18 340.416L235.044 330.972C238.758 332.803 242.72 334.08 246.804 334.764V346.404H260.94L262.452 342.804H260.94V334.74C265.024 334.047 268.983 332.753 272.688 330.9L279.528 340.308L290.976 332.004L292.476 328.404L289.416 329.88L284.112 322.572C286.986 319.604 289.412 316.233 291.312 312.564L302.388 316.164L306.756 302.724L295.656 299.124C295.954 297.082 296.102 295.02 296.1 292.956ZM253.752 320.16C248.371 320.162 243.11 318.569 238.635 315.581C234.16 312.593 230.671 308.345 228.61 303.375C226.549 298.404 226.009 292.934 227.057 287.656C228.106 282.378 230.696 277.53 234.5 273.724C238.304 269.918 243.151 267.326 248.428 266.276C253.706 265.225 259.176 265.763 264.148 267.822C269.119 269.88 273.369 273.367 276.358 277.841C279.348 282.315 280.944 287.575 280.944 292.956C280.944 300.169 278.08 307.086 272.98 312.188C267.881 317.289 260.965 320.157 253.752 320.16Z" fill="#243757" stroke="#243757" stroke-linecap="round" stroke-linejoin="round"/>
<path d="M303.9 312.48L308.268 299.028L297.168 295.428C297.452 293.408 297.596 291.372 297.6 289.332C297.6 287.236 297.448 285.142 297.144 283.068L308.208 279.468L303.84 266.016L292.74 269.616C290.807 265.951 288.349 262.587 285.444 259.632L292.296 250.212L280.8 241.92L273.948 251.352C270.231 249.52 266.265 248.246 262.176 247.572V235.932H248.088V247.608C244.004 248.302 240.045 249.596 236.34 251.448L229.5 242.028L218.064 250.332L224.928 259.788C222.057 262.759 219.632 266.13 217.728 269.796L206.664 266.196L202.248 279.6L213.348 283.2C213.054 285.215 212.906 287.248 212.904 289.284C212.901 291.385 213.057 293.483 213.372 295.56L202.296 299.16L206.676 312.612L217.776 309.012C219.698 312.678 222.152 316.039 225.06 318.984L218.22 328.416L229.656 336.72L236.52 327.276C240.229 329.119 244.193 330.397 248.28 331.068V342.708H262.416V331.032C266.5 330.338 270.459 329.044 274.164 327.192L281.004 336.612L292.44 328.296L285.6 318.888C288.475 315.921 290.9 312.549 292.8 308.88L303.9 312.48ZM228.06 289.332C228.06 283.951 229.656 278.691 232.646 274.217C235.635 269.743 239.885 266.256 244.856 264.198C249.828 262.139 255.298 261.601 260.576 262.652C265.853 263.702 270.7 266.295 274.504 270.1C278.308 273.906 280.898 278.754 281.947 284.032C282.995 289.31 282.455 294.78 280.394 299.751C278.333 304.722 274.844 308.969 270.369 311.957C265.894 314.945 260.633 316.538 255.252 316.536C251.68 316.536 248.143 315.832 244.843 314.465C241.543 313.098 238.545 311.094 236.02 308.568C233.495 306.041 231.492 303.042 230.126 299.742C228.761 296.441 228.058 292.904 228.06 289.332Z" fill="#BDBDBD" stroke="#243757" stroke-linecap="round" stroke-linejoin="round"/>
<path d="M369.804 217.74C369.806 215.639 369.65 213.541 369.336 211.464L380.412 207.864L381.912 204.264L379.512 204.972L376.044 194.4L364.944 198C363.008 194.34 360.55 190.981 357.648 188.028L364.5 178.608L366 175.008L363.6 177.96L353.076 170.316L346.224 179.76C342.508 177.924 338.541 176.646 334.452 175.968V164.328H322.728L321.828 160.728L320.316 164.328V176.004C316.232 176.698 312.273 177.992 308.568 179.844L301.728 170.424L294 176.016L291.768 175.128L291.516 175.704L290.268 178.8L297.132 188.244C294.254 191.213 291.828 194.59 289.932 198.264L282.504 195.864L280.368 191.064L278.868 194.664L274.5 208.104L285.6 211.704C285.306 213.719 285.158 215.752 285.156 217.788C285.153 219.889 285.31 221.987 285.624 224.064L279.624 226.02L276 223.992L274.488 227.592L278.856 241.032L289.968 237.432C291.896 241.094 294.35 244.454 297.252 247.404L293.004 253.26H291.912L290.4 256.8L301.836 265.116L308.688 255.672C312.404 257.508 316.371 258.786 320.46 259.464V271.2H334.596L336.108 267.6H334.596V259.536C338.68 258.842 342.639 257.548 346.344 255.696L353.184 265.116L364.62 256.8L366.132 253.2L363.06 254.664L357.756 247.368C360.634 244.399 363.06 241.023 364.956 237.348L376.032 240.948L380.4 227.508L369.288 223.908C369.61 221.867 369.782 219.806 369.804 217.74ZM327.456 244.944C322.076 244.944 316.816 243.349 312.342 240.359C307.869 237.37 304.382 233.121 302.323 228.151C300.264 223.18 299.725 217.71 300.775 212.433C301.824 207.156 304.415 202.308 308.22 198.504C312.024 194.699 316.872 192.108 322.149 191.059C327.426 190.009 332.896 190.548 337.866 192.607C342.837 194.666 347.086 198.153 350.075 202.626C353.064 207.1 354.66 212.36 354.66 217.74C354.66 224.955 351.794 231.874 346.692 236.976C341.59 242.078 334.671 244.944 327.456 244.944Z" fill="#243757" stroke="#243757" stroke-linecap="round" stroke-linejoin="round"/>
<path d="M377.604 237.264L381.972 223.812L370.872 220.212C371.166 218.197 371.314 216.164 371.316 214.128C371.313 212.028 371.156 209.93 370.848 207.852L381.912 204.252L377.544 190.8L366.444 194.4C364.522 190.734 362.068 187.374 359.16 184.428L366 174.996L354.564 166.692L347.7 176.136C343.99 174.295 340.027 173.017 335.94 172.344V160.704H321.804V172.38C317.72 173.074 313.761 174.368 310.056 176.22L303.216 166.8L291.78 175.116L298.644 184.56C295.769 187.527 293.344 190.899 291.444 194.568L280.368 190.968L276 204.432L287.1 208.032C286.806 210.051 286.658 212.088 286.656 214.128C286.659 216.225 286.816 218.318 287.124 220.392L276.06 223.992L280.428 237.444L291.528 233.844C293.461 237.51 295.919 240.873 298.824 243.828L291.924 253.2L303.36 261.6L310.224 252.168C313.937 253.999 317.9 255.272 321.984 255.948V267.588H336.132V255.924C340.213 255.227 344.168 253.929 347.868 252.072L354.72 261.492L366.156 253.188L359.292 243.732C362.164 240.762 364.589 237.391 366.492 233.724L377.604 237.264ZM301.764 214.128C301.762 208.747 303.355 203.486 306.343 199.011C309.331 194.536 313.578 191.047 318.549 188.986C323.52 186.925 328.99 186.385 334.268 187.433C339.546 188.482 344.394 191.072 348.2 194.876C352.006 198.68 354.598 203.527 355.648 208.804C356.699 214.082 356.161 219.552 354.102 224.524C352.044 229.495 348.557 233.745 344.083 236.735C339.609 239.724 334.349 241.32 328.968 241.32C321.755 241.32 314.838 238.456 309.736 233.356C304.635 228.257 301.767 221.341 301.764 214.128Z" fill="#BDBDBD" stroke="#243757" stroke-linecap="round" stroke-linejoin="round"/>
<path opacity="0.2" d="M355.476 307.548H355.584L357.396 305.904L355.476 307.548Z" fill="#243757"/>
<path opacity="0.2" d="M353.424 313.2L352.848 313.5C352.872 313.656 352.98 313.668 353.424 313.2Z" fill="#243757"/>
<path opacity="0.2" d="M354.42 311.124C354.588 310.908 353.22 312.324 352.764 312.9C353.22 312.684 354.516 311.472 354.42 311.124Z" fill="#243757"/>
<path opacity="0.2" d="M351.3 316.272L356.376 314.628C356.76 314.244 356.964 313.908 356.688 313.716C355.824 314.916 355.932 314.148 355.308 314.592V314.7C355.152 314.808 354.684 315.132 354.864 314.808C356.097 314.096 357.277 313.294 358.392 312.408C357.888 312.672 358.536 311.676 358.56 311.496C359.52 310.716 358.812 311.724 358.92 311.952C359.4 311.508 360.456 311.076 360.54 310.404C360.948 309.516 359.484 310.944 359.064 310.944L362.04 308.748H361.896C362.286 308.589 362.62 308.318 362.856 307.968C362.916 307.524 362.268 308.076 361.932 308.52C363 306.864 364.956 306.78 365.532 305.028L365.076 305.316C365.244 305.088 365.4 304.992 365.544 304.992L366.468 304.416C366.468 304.296 366.468 304.068 366.36 304.176L367.284 303.636C368.856 302.436 367.284 302.844 367.62 302.292L367.548 302.364C367.908 301.872 368.052 301.368 367.704 301.62L369.42 300.42C369.228 300.42 369.072 300.42 369.036 300.3L369.42 300.42C370.344 300.204 372.564 298.152 373.176 298.812C373.236 298.735 373.292 298.655 373.344 298.572C373.344 298.452 373.284 298.32 373.26 298.188C373.117 298.339 372.956 298.472 372.78 298.584L373.26 298.188C372.99 296.787 372.829 295.367 372.78 293.94C372.384 294.264 372.096 294.552 372.084 294.768L372.252 294.672L372.192 295.008C372.153 294.983 372.121 294.947 372.102 294.904C372.083 294.862 372.077 294.814 372.084 294.768C370.944 295.452 370.116 296.58 369.216 297.168L369.456 297.504C368.935 297.805 368.459 298.176 368.04 298.608C368.04 298.608 368.172 298.608 368.292 298.608L368.952 298.092C368.785 298.323 368.556 298.502 368.292 298.608C366.816 299.79 365.41 301.056 364.08 302.4C364.344 302.52 364.464 302.64 365.28 301.98C364.38 303.42 361.812 304.716 360.144 306.6H360.408L359.208 307.356C359.508 307.248 359.472 307.476 359.604 307.596C357.948 309.36 355.824 311.46 354.372 311.772C354.984 311.436 353.94 312.888 355.164 312.12C353.716 313.123 352.363 314.256 351.12 315.504L351.3 316.272ZM360.696 309.18L361.812 308.304L360.672 309.408L360.696 309.18ZM357.804 311.832L356.82 312.816L356.208 313.14L357.804 311.832Z" fill="#243757"/>
<path opacity="0.2" d="M352.8 313.548C352.8 313.32 353.112 312.696 352.32 313.788L352.8 313.548Z" fill="#243757"/>
<path opacity="0.2" d="M352.908 309.864L354.9 308.664L354.156 308.988L355.356 308.112C354.996 307.992 353.628 308.748 352.908 309.864Z" fill="#243757"/>
<path opacity="0.2" d="M354 309.768C353.775 309.885 353.569 310.034 353.388 310.212C353.577 310.044 353.782 309.895 354 309.768Z" fill="#243757"/>
<path opacity="0.2" d="M354 309.768C354.252 309.696 353.928 310.236 354.72 309.684C354.708 309.456 354.384 309.6 354 309.768Z" fill="#243757"/>
<path opacity="0.2" d="M394.32 340.128L394.932 339.192C394.044 339.144 394.452 339.66 394.32 340.128Z" fill="#243757"/>
<path opacity="0.2" d="M356.028 307.572L355.584 307.548L355.464 307.656L356.028 307.572Z" fill="#243757"/>
<path opacity="0.2" d="M404.628 262.152C405.12 261.948 405.888 261.924 406.152 260.952C405.228 261.024 405.42 261.708 404.628 262.152Z" fill="#243757"/>
<path opacity="0.2" d="M394.128 340.44C394.224 340.359 394.291 340.25 394.32 340.128L394.128 340.44Z" fill="#243757"/>
<path opacity="0.2" d="M411.036 252.12H410.844C410.664 252.444 410.58 252.708 410.676 252.744C410.743 252.51 410.867 252.295 411.036 252.12Z" fill="#243757"/>
<path opacity="0.2" d="M405.948 265.2H405.66C407.376 264 408.708 261.54 410.196 259.896C410.196 260.112 408.9 261.204 409.428 261.444L411.516 259.572C411.516 259.356 412.368 258.468 411.624 258.792C411.36 259.011 411.134 259.27 410.952 259.56L411.012 259.116C413.076 257.472 411.48 259.8 411.864 260.136C412.716 259.032 413.424 259.044 414.084 258.384C414.024 257.712 412.404 259.26 412.884 258.024C413.834 256.823 415.073 255.882 416.484 255.288C416.528 254.906 416.664 254.539 416.88 254.22C416.34 253.98 415.788 253.752 415.236 253.536C412.188 256.344 408.672 258.264 406.308 261.996H406.44L403.812 263.748C403.464 264.192 403.692 264.648 403.152 265.416C403.152 265.056 402.744 265.416 402.276 265.896C403.164 265.98 404.028 266.1 404.88 266.256C405.156 265.832 405.52 265.471 405.948 265.2Z" fill="#243757"/>
<path opacity="0.2" d="M359.616 305.16C359.952 304.716 359.544 304.596 360.468 304.044C360.564 304.392 361.368 304.632 362.256 303.408C361.28 303.621 360.357 304.029 359.544 304.608L359.616 305.16Z" fill="#243757"/>
<path opacity="0.2" d="M362.172 304.14L363.372 302.64C362.16 302.892 362.52 303.468 362.172 304.14Z" fill="#243757"/>
<path opacity="0.2" d="M362.172 304.14L361.8 304.632C361.955 304.494 362.081 304.327 362.172 304.14Z" fill="#243757"/>
<path opacity="0.2" d="M372.984 288.876H372.996V288.864L372.984 288.876Z" fill="#243757"/>
<path opacity="0.2" d="M433.476 267.204L433.224 266.892C433.044 267.048 432.864 267.216 432.672 267.408C432.696 267.696 433.116 267.456 433.476 267.204Z" fill="#243757"/>
<path opacity="0.2" d="M420.492 310.956C420.936 310.26 421.488 310.416 421.872 310.032C421.764 309.72 421.428 309.864 421.164 309.888C420.912 310.2 420.672 310.5 420.408 310.8C420.419 310.86 420.448 310.914 420.492 310.956Z" fill="#243757"/>
<path opacity="0.2" d="M421.824 309.684C421.824 309.432 422.268 309 422.628 308.484C422.076 308.4 421.584 309.6 421.824 309.684Z" fill="#243757"/>
<path opacity="0.2" d="M414.804 319.116C414.408 319.332 413.424 319.212 413.112 320.112L413.712 319.8L413.628 319.932L413.964 320.028C413.256 319.584 414.516 319.368 414.804 319.116Z" fill="#243757"/>
<path opacity="0.2" d="M424.956 277.392L424.416 278.172L424.896 277.728L424.956 277.392Z" fill="#243757"/>
<path opacity="0.2" d="M373.98 301.2C373.559 301.634 373.106 302.035 372.624 302.4L372.852 302.748C372.333 303.047 371.857 303.414 371.436 303.84C371.476 303.858 371.519 303.867 371.562 303.867C371.605 303.867 371.648 303.858 371.688 303.84L372.36 303.312C372.188 303.546 371.956 303.729 371.688 303.84C370.236 305.015 368.85 306.269 367.536 307.596C367.8 307.716 367.932 307.836 368.736 307.176C367.836 308.616 365.256 309.912 363.588 311.796H363.864L362.664 312.552C362.964 312.456 362.928 312.684 363.048 312.792L362.724 313.128C364.609 316.598 366.967 319.789 369.732 322.608L362.892 332.028L374.328 340.344L381.18 330.9C384.898 332.731 388.864 334.009 392.952 334.692V337.44C393.072 337.351 393.169 337.236 393.236 337.102C393.303 336.969 393.337 336.821 393.336 336.672L393.036 336.804C393.132 336.66 393.228 336.612 393.336 336.636L393.948 336.372C393.948 336.276 393.948 336.108 393.816 336.156L394.428 335.928C395.424 335.304 394.236 335.292 394.428 334.932C394.608 334.62 394.62 334.26 394.428 334.38L395.532 333.792C395.467 333.793 395.403 333.777 395.346 333.745C395.289 333.714 395.242 333.668 395.208 333.612L395.532 333.792C396.216 333.792 397.548 332.652 398.172 333.3C398.34 333.024 398.412 332.736 398.172 332.736C398.074 332.85 397.95 332.941 397.812 333L398.172 332.736C398.844 332.148 397.536 332.388 398.64 331.476C398.52 331.356 398.436 331.476 398.232 331.608C398.484 331.332 398.628 331.26 398.748 331.284C398.659 331.197 398.6 331.083 398.58 330.96C398.82 331.2 399.192 330.72 399.36 330.444H398.604C398.81 330.434 399.009 330.372 399.184 330.262C399.358 330.153 399.501 330.001 399.6 329.82H399.06C399.84 329.22 399.66 330.324 400.26 329.268L399.756 330.276C400.716 329.484 400.956 330.276 401.556 330.12C402.888 329.604 403.284 327.72 404.796 327.84C404.64 327.468 404.436 327.492 404.472 327.012C404.237 327.226 403.959 327.387 403.657 327.484C403.355 327.582 403.035 327.613 402.72 327.576C401.208 328.308 403.428 328.848 401.58 329.472C401.316 329.076 401.688 328.68 402.204 328.5C401.94 328.176 401.328 328.416 400.92 328.5C401.784 327.948 402.444 326.568 402.924 326.1H402.864H402.972C403.48 326.007 403.941 325.745 404.28 325.356C404.28 325.356 404.28 325.248 404.28 325.116C404.304 325.152 404.316 325.193 404.316 325.236C404.316 325.279 404.304 325.321 404.28 325.356C404.46 325.62 405.732 324.672 405.84 325.464C406.716 324.816 405.684 324.36 406.944 324.144C406.284 324.036 407.172 323.376 406.524 323.364C406.596 323.952 405.24 324.228 404.616 324.384L405.516 323.076C405.348 323.448 405.972 323.292 406.176 323.184L406.008 322.728C406.944 323.316 407.4 320.244 408.84 320.568C408.444 320.868 408.408 321.432 407.844 321.192C407.424 322.056 408.552 321.636 408.516 322.2C409.824 321.504 410.844 319.488 412.488 318.972C412.056 318.972 411.588 319.464 411.228 319.188C411.852 318.216 413.532 317.988 414.732 317.316L414.168 317.076C415.296 316.644 414.324 316.62 415.296 315.876C415.296 315.96 415.296 316.224 415.536 316.02C416.196 315.312 415.272 315.624 415.62 315.072C416.328 314.952 416.352 314.76 416.352 314.496C412.892 317.134 408.85 318.903 404.564 319.655C400.279 320.407 395.875 320.12 391.724 318.817C387.573 317.514 383.795 315.234 380.707 312.169C377.619 309.104 375.313 305.342 373.98 301.2ZM413.712 316.56C414.192 316.848 413.112 317.616 412.944 317.976C412.644 317.352 413.832 317.448 413.712 316.596V316.56Z" fill="#243757"/>
<path opacity="0.2" d="M433.488 268.8C433.561 268.684 433.617 268.559 433.656 268.428C433.512 268.608 433.476 268.716 433.488 268.8Z" fill="#243757"/>
<path opacity="0.2" d="M433.752 268.968C433.91 268.963 434.06 268.899 434.172 268.788C434.018 268.807 433.872 268.869 433.752 268.968Z" fill="#243757"/>
<path opacity="0.2" d="M433.752 268.968C433.608 268.968 433.512 268.968 433.488 268.812C432.611 270.094 431.589 271.27 430.44 272.316C430.224 272.88 431.64 272.004 432.06 271.788C430.584 271.308 433.356 270.588 433.8 269.46C433.5 269.568 432.996 270.12 432.72 270.108C432.978 269.658 433.33 269.269 433.752 268.968Z" fill="#243757"/>
<path opacity="0.2" d="M394.224 339.6C393.785 339.604 393.347 339.648 392.916 339.732C392.981 339.857 393.083 339.96 393.208 340.028C393.332 340.095 393.474 340.123 393.615 340.109C393.755 340.095 393.889 340.039 393.997 339.948C394.106 339.857 394.185 339.736 394.224 339.6Z" fill="#243757"/>
<path opacity="0.2" d="M431.112 269.52L433.056 267.648C432.564 267.18 432.252 268.416 431.676 268.524C431.76 267.888 432.516 267.324 433.152 266.796C432.19 265.568 431.164 264.39 430.08 263.268L436.92 253.848L428.688 247.848C427.98 248.52 427.164 249.444 426.288 250.14L426.54 250.368L425.604 251.028L426.036 250.92C425.232 251.688 423.888 252.228 423.18 253.32C423.684 252.66 424.212 252.9 424.32 253.128L421.512 255.096C421.62 255.324 420.624 256.428 421.512 255.888L420.312 256.536L420.576 256.656C417.192 260.748 412.572 262.572 409.692 267.132H409.824L409.344 267.456C414.931 269.552 419.678 273.421 422.856 278.472C424.169 277.621 425.378 276.618 426.456 275.484C426.18 275.484 425.688 275.916 425.556 275.916C426.984 274.716 429.504 273.852 429.84 272.4C429.024 272.808 428.064 273.312 427.188 273.792C427.065 273.928 426.9 274.021 426.72 274.056C426.168 274.368 425.652 274.656 425.268 274.896C425.976 273.924 426.324 274.128 426.72 274.056L427.188 273.792C427.439 273.536 427.646 273.24 427.8 272.916L427.068 273.132C428.568 271.464 428.844 272.496 430.044 271.932L430.656 270.6C431.545 269.447 432.601 268.432 433.788 267.588L433.512 267.252C432.792 268.032 431.88 269.244 431.112 269.52Z" fill="#243757"/>
<path opacity="0.2" d="M407.484 325.416L407.244 325.62C407.341 325.575 407.424 325.504 407.484 325.416Z" fill="#243757"/>
<path opacity="0.2" d="M406.8 325.704C407.004 325.968 407.028 325.848 407.268 325.62C406.908 325.788 406.572 325.392 406.308 326.064C406.488 326.04 406.56 325.728 406.8 325.704Z" fill="#243757"/>
<path opacity="0.2" d="M408.576 323.916C408.36 323.124 407.376 324.252 407.076 324.804C407.388 324.732 408 323.592 408.576 323.916Z" fill="#243757"/>
<path opacity="0.2" d="M407.208 323.376L407.268 323.796L407.64 323.328L407.208 323.376Z" fill="#243757"/>
<path opacity="0.2" d="M411.3 319.44L411.912 319.116L411.9 319.032L411.3 319.356V319.44Z" fill="#243757"/>
<path opacity="0.2" d="M410.844 324.072C410.256 323.664 410.604 324.66 409.884 324.864C410.124 325.104 410.7 324.612 411.024 324.612C411.204 324.336 410.688 324.432 410.46 324.372C410.559 324.24 410.692 324.136 410.844 324.072Z" fill="#243757"/>
<path opacity="0.2" d="M409.26 326.4L409.044 326.592C409.138 326.559 409.216 326.49 409.26 326.4Z" fill="#243757"/>
<path opacity="0.2" d="M409.26 326.4L409.62 326.1C409.356 325.908 409.38 326.184 409.26 326.4Z" fill="#243757"/>
<path opacity="0.2" d="M405.432 260.028L405.924 259.476C405.396 260.256 407.124 259.044 406.26 260.16C405.912 260.604 407.16 259.728 407.52 259.164C407.256 259.044 406.416 260.04 406.488 259.488L406.836 259.044C406.32 259.716 406.008 258.912 405.432 260.028Z" fill="#243757"/>
<path opacity="0.2" d="M432.696 301.848C432.396 302.016 432.288 301.98 432.144 302.52C432.444 302.4 432.72 302.016 432.696 301.848Z" fill="#243757"/>
<path opacity="0.2" d="M424.488 307.2C424.392 307.2 423.732 307.968 423.492 307.74L423.672 308.28C423.936 307.86 424.572 307.8 424.488 308.016C424.536 307.5 424.944 307.38 424.488 307.2Z" fill="#243757"/>
<path opacity="0.2" d="M428.796 302.4C428.532 302.808 427.596 302.868 427.86 303.444L428.748 302.88C428.724 302.604 429.132 302.484 428.796 302.4Z" fill="#243757"/>
<path opacity="0.2" d="M442.236 292.956C442.238 290.855 442.082 288.757 441.768 286.68L452.844 283.08L448.476 269.64L437.376 273.24C436.74 272.04 436.044 270.912 435.312 269.784C434.963 270.216 434.525 270.568 434.028 270.816C434.028 271.032 434.508 270.48 434.304 270.936C431.904 273.252 427.92 276.312 425.376 279.42C425.016 279.24 424.464 279.516 423.804 279.996C426.194 284.386 427.328 289.349 427.08 294.342C426.833 299.334 425.213 304.161 422.4 308.292C422.636 308.176 422.893 308.107 423.156 308.088C422.868 306.684 425.208 305.688 424.572 305.04C424.572 305.124 425.028 305.16 425.196 304.8H424.8C425.292 303.708 426.168 304.608 426.516 303.972C426.384 303.864 426.192 303.972 425.964 303.9C426.876 302.7 428.424 303.036 429.096 301.584C428.976 301.584 428.868 301.524 428.784 301.656C428.7 301.788 428.856 301.44 429.372 301.248L429.24 301.872C430.56 302.076 430.44 300.06 431.484 299.388C431.256 299.388 430.596 299.964 430.74 299.388C431.304 298.812 432.06 299.688 432.348 298.608C431.952 298.824 431.664 298.356 431.292 298.608C431.205 298.724 431.104 298.828 430.992 298.92C431.066 298.794 431.169 298.687 431.292 298.608C431.688 298.116 431.772 297.576 432.228 297.708C432.273 297.65 432.297 297.578 432.297 297.504C432.297 297.43 432.273 297.359 432.228 297.3C432.157 297.318 432.083 297.318 432.012 297.3C432.012 297.204 432.144 297.228 432.228 297.3C432.744 297.3 433.032 296.628 433.26 296.268L433.044 296.196C434.364 296.412 433.992 295.32 434.772 294.636L434.436 294.54C434.832 294.324 435.564 294.12 435.768 293.28H435.228C435.84 293.04 436.224 291.84 436.98 291.888C437.064 291.66 436.104 291.804 436.764 291.084C437.088 291.084 437.796 290.724 437.736 290.292C437.616 290.172 437.388 290.112 437.328 290.424C437.232 290.556 437.328 290.508 437.448 290.544H437.016C437.352 289.824 437.64 290.304 438.072 289.62C438.072 289.356 437.64 289.62 437.424 289.512L439.992 287.856C440.232 288 440.064 288.372 440.496 288.408L439.848 289.212C439.848 289.872 440.604 289.212 441.048 288.96L440.58 289.488C440.588 289.496 440.597 289.502 440.607 289.507C440.618 289.511 440.629 289.513 440.64 289.513C440.651 289.513 440.662 289.511 440.673 289.507C440.683 289.502 440.692 289.496 440.7 289.488L440.316 289.848C441.744 289.26 439.884 291.456 441.288 290.7C440.952 290.928 440.554 291.046 440.148 291.036C439.56 291.444 439.896 291.528 439.824 291.84L440.844 291.396C439.584 292.428 441.3 291.612 440.688 292.668C439.488 293.4 439.908 294.912 439.488 295.44C438.432 296.364 439.488 294.696 438.708 295.128C438.12 295.62 438.708 295.608 438.384 296.028L437.724 295.836C437.04 296.388 438.096 296.268 437.592 296.46C437.364 297.216 437.916 296.46 438.372 296.676C438.156 296.676 437.46 297.072 437.4 297.468C437.52 297.588 438.192 296.952 437.82 297.468C436.068 298.776 436.176 299.64 434.748 300.948L435.084 301.044C434.88 301.152 434.664 301.176 434.592 301.404H434.808C433.843 302.08 432.94 302.839 432.108 303.672L432.828 303.468L431.712 303.984L432.192 304.272C431.532 304.176 430.824 305.364 429.948 306.024L430.2 306.252L429.588 306.576H429.912C429.444 307.02 428.496 307.152 428.16 307.884C428.424 307.464 428.892 307.764 429.024 307.968L427.224 308.94C427.356 309.132 426.804 309.804 427.416 309.564L426.588 309.816L426.828 309.972C425.016 312.492 421.752 312.96 420.432 315.972H420.54L418.824 316.788C418.644 317.076 418.92 317.472 418.656 317.988C418.476 317.448 417.888 318.672 417.348 318.6C417.192 319.056 417.588 318.84 417.816 318.9C416.952 320.472 415.416 320.844 414.312 322.428C414.753 321.425 415.313 320.478 415.98 319.608C414.696 320.484 414.876 321.024 413.58 322.068L414.288 321.684C414.216 322.824 412.224 323.16 412.644 323.94C411.876 324.54 410.688 324.528 409.956 325.476L410.832 325.644L410.076 326.412L409.704 326.064C409.44 326.292 409.38 326.484 409.44 326.604C409.627 326.575 409.817 326.575 410.004 326.604C409.74 326.748 409.512 326.712 409.44 326.604C408.516 326.712 408.012 327.672 406.968 328.08L407.076 328.332C407.196 328.332 407.292 328.332 407.076 328.536V328.332C406.98 328.342 406.884 328.342 406.788 328.332C406.968 328.788 406.272 329.244 406.536 329.532C406.836 329.364 407.532 328.992 407.292 328.848C408.24 328.62 406.776 329.76 406.404 330.144C406.644 329.568 406.068 330.06 405.768 330.216C405.768 330.3 405.876 330.216 405.984 330.288C405.468 331.2 404.304 330.54 404.448 331.656L403.992 331.44L403.668 332.256C402.948 331.632 402.804 332.988 402.084 332.46C401.424 333.096 402.552 332.76 402.252 332.916C401.784 333.66 400.116 334.116 400.224 334.632H400.332V334.896C400.26 334.843 400.209 334.767 400.188 334.68C399.432 334.98 398.988 335.688 398.436 336L398.688 336.324C398.352 336.44 398.047 336.633 397.8 336.888C397.865 336.914 397.938 336.914 398.004 336.888L398.412 336.612C398.37 336.687 398.311 336.75 398.24 336.798C398.17 336.846 398.089 336.877 398.004 336.888C397.11 337.512 396.275 338.214 395.508 338.988C395.748 339.144 395.868 339.264 396.36 338.904C395.952 339.864 394.188 340.344 393.264 341.484H393.48L392.964 341.7V342.012C392.981 342.046 393.005 342.074 393.036 342.096L392.964 342.168V346.128H407.1V334.452C411.184 333.758 415.143 332.464 418.848 330.612L425.688 340.02L437.124 331.716L430.26 322.26C433.137 319.295 435.563 315.923 437.46 312.252L448.524 315.852L452.904 302.412L441.792 298.812C442.075 296.873 442.223 294.916 442.236 292.956ZM429.432 300.672C429.96 299.844 429.612 300.48 430.392 299.88L429.432 300.672Z" fill="#243757"/>
<path opacity="0.2" d="M357.6 292.956C357.597 295.057 357.754 297.155 358.068 299.232L346.992 302.832L350.388 313.272C351.397 312.356 352.255 311.287 352.932 310.104L351.084 311.196C351.936 310.2 353.928 309 353.292 308.532C352.416 309.732 352.524 308.964 351.9 309.408V309.516C351.744 309.624 351.276 309.948 351.456 309.624C352.693 308.912 353.876 308.11 354.996 307.224C354.48 307.488 355.128 306.492 355.152 306.312C356.112 305.532 355.404 306.54 355.512 306.768C355.992 306.324 357.048 305.892 357.144 305.22C357.54 304.332 356.076 305.76 355.656 305.748L358.56 303.6H358.416C358.804 303.437 359.137 303.166 359.376 302.82C359.376 302.376 358.8 302.928 358.452 303.372C359.52 301.716 361.476 301.632 362.052 299.88L361.596 300.168C361.776 299.94 361.92 299.844 362.064 299.832L362.988 299.244C362.988 299.136 362.988 298.908 362.892 299.016L363.804 298.476C365.388 297.276 363.804 297.684 364.14 297.12L364.068 297.192C364.428 296.7 364.572 296.208 364.224 296.46L365.94 295.26C365.748 295.26 365.604 295.26 365.556 295.14L365.94 295.26C366.864 295.044 369.084 292.98 369.696 293.652C370.044 293.208 370.224 292.788 369.96 292.86L369.888 292.932C369.716 293.118 369.523 293.283 369.312 293.424L369.888 292.932C369.888 292.932 369.888 292.932 369.948 292.86C371.076 291.828 369.204 292.632 371.04 290.976C370.92 290.856 370.752 291.084 370.44 291.3C370.884 290.832 371.112 290.688 371.256 290.676C371.21 290.626 371.176 290.567 371.155 290.503C371.135 290.439 371.128 290.371 371.136 290.304C371.388 290.532 372.06 289.752 372.408 289.308L371.388 289.524C372.022 289.293 372.57 288.874 372.96 288.324L372.228 288.528C372.84 288.012 373.008 288.096 373.164 288.144C374.194 282.427 377.028 277.19 381.249 273.2C385.47 269.21 390.858 266.675 396.624 265.968C396.91 265.741 397.102 265.416 397.164 265.056C397.416 265.164 397.164 265.536 396.792 265.956C397.032 265.956 397.272 265.932 397.512 265.884H397.332C399.024 264.9 397.716 265.212 399.3 263.892C399.3 264 399.24 264.348 399.576 264.012C400.776 262.812 399.348 263.556 400.032 262.668C402.132 261.804 400.332 261.552 402.516 260.016H402.24C403.956 258.816 405.276 256.416 406.764 254.712C406.764 254.928 405.468 256.02 405.996 256.26L408 254.4C408 254.184 408.852 253.296 408.108 253.62C407.844 253.838 407.618 254.098 407.436 254.388L407.508 253.932C409.56 252.3 407.976 254.628 408.348 254.964C409.2 253.86 409.908 253.872 410.568 253.212C410.568 252.528 408.888 254.088 409.368 252.852C409.586 252.507 409.857 252.199 410.172 251.94C409.068 251.676 407.964 251.436 406.836 251.244V239.604H392.724V251.28C388.64 251.974 384.681 253.268 380.976 255.12L374.136 245.7L362.7 254.016L369.6 263.4C366.725 266.367 364.3 269.739 362.4 273.408L351.336 269.808L346.956 283.248L358.068 286.848C357.765 288.87 357.608 290.911 357.6 292.956ZM350.7 310.956L349.704 311.052C350.4 310.488 350.796 310.8 350.64 310.944L350.7 310.956ZM353.412 307.632L352.8 307.956L354.396 306.648L353.412 307.632ZM357.264 304.224V303.996L358.368 303.12L357.264 304.224Z" fill="#243757"/>
<path opacity="0.2" d="M420.696 314.136C420.456 313.98 420 314.592 419.94 314.136L420.12 313.86C419.856 314.268 419.448 313.584 419.22 314.34L419.496 314.004C419.244 314.508 420.348 313.92 419.904 314.616C419.724 314.928 420.528 314.496 420.696 314.136Z" fill="#243757"/>
<path opacity="0.2" d="M434.028 297.3H434.136C434.139 297.187 434.168 297.076 434.22 296.976C434.1 297.024 433.992 297.084 434.028 297.3Z" fill="#243757"/>
<path opacity="0.2" d="M437.82 294.348L438.12 294.192C438.276 293.736 437.76 293.928 437.472 294.192C437.592 294.204 437.604 294.372 437.82 294.348Z" fill="#243757"/>
<path opacity="0.2" d="M432.84 302.136C433.332 301.788 433.728 302.304 433.956 301.632C433.572 301.932 433.2 301.332 432.84 302.136Z" fill="#243757"/>
<path opacity="0.2" d="M433.392 296.544C433.656 296.544 434.292 296.232 434.46 296.544C434.796 295.992 435.144 295.428 434.328 295.56L433.968 296.04C434.16 295.836 434.172 295.932 434.28 295.956C434.124 296.4 433.692 296.4 433.392 296.544Z" fill="#243757"/>
<path opacity="0.2" d="M434.496 296.856C434.516 296.809 434.527 296.758 434.527 296.706C434.527 296.655 434.516 296.604 434.496 296.556L434.256 297C434.4 296.976 434.46 296.964 434.496 296.856Z" fill="#243757"/>
<path opacity="0.2" d="M420 315.252C419.28 315.12 419.568 315.696 419.04 315.876C419.376 315.828 420 315.96 420 315.252Z" fill="#243757"/>
<path opacity="0.2" d="M426 246.096C425.993 246.056 425.993 246.016 426 245.976L425.772 245.808C425.184 246.276 424.392 246.66 424.572 247.188L426 246.096Z" fill="#243757"/>
<path opacity="0.2" d="M358.944 312.744H359.04L360.864 311.1L358.944 312.744Z" fill="#243757"/>
<path opacity="0.2" d="M357.6 314.184L358.8 313.308C357.999 313.435 357.278 313.865 356.784 314.508L357.888 314.148L358.308 313.896L357.6 314.184Z" fill="#243757"/>
<path opacity="0.2" d="M408.396 267.12L408.588 267.18C408.839 267.121 409.068 266.993 409.25 266.81C409.432 266.628 409.56 266.399 409.62 266.148C408.84 266.208 408.84 266.7 408.396 267.12Z" fill="#243757"/>
<path opacity="0.2" d="M410.988 264.36C410.724 264.252 409.884 265.236 409.956 264.684L410.304 264.24C409.788 264.912 409.476 264.12 408.9 265.224L409.392 264.684C408.864 265.452 410.592 264.24 409.728 265.356C409.38 265.8 410.628 264.924 410.988 264.36Z" fill="#243757"/>
<path opacity="0.2" d="M365.268 309.828C365.419 309.691 365.545 309.529 365.64 309.348L365.268 309.828Z" fill="#243757"/>
<path opacity="0.2" d="M365.712 308.604C364.742 308.824 363.825 309.232 363.012 309.804L363.072 310.368C363.42 309.924 363.012 309.804 363.936 309.252C364.02 309.6 364.8 309.828 365.712 308.604Z" fill="#243757"/>
<path opacity="0.2" d="M425.484 245.532L425.076 246.096C425.28 245.963 425.476 245.819 425.664 245.664L425.484 245.532Z" fill="#243757"/>
<path opacity="0.2" d="M365.64 309.348L366.84 307.836C365.628 308.088 366 308.664 365.64 309.348Z" fill="#243757"/>
<path opacity="0.2" d="M417.528 254.484C417.348 254.592 417.204 254.652 417.132 254.58V255.264C417.328 255.015 417.568 254.803 417.84 254.64L417.528 254.484Z" fill="#243757"/>
<path opacity="0.2" d="M414.144 257.904C414.144 257.568 414.996 256.8 415.668 256.02C414.96 256.008 413.868 257.784 414.144 257.904Z" fill="#243757"/>
<path opacity="0.2" d="M359.496 312.768L359.04 312.744L358.92 312.864L359.496 312.768Z" fill="#243757"/>
</svg>
