<svg width="14" height="12" viewBox="0 0 14 12" fill="none" xmlns="http://www.w3.org/2000/svg">
<g id="camera">
<path id="Vector" d="M3.86485 2.4698C3.75575 2.64247 3.6102 2.78918 3.43839 2.89964C3.26658 3.01009 3.07269 3.08161 2.87031 3.10919C2.64001 3.14192 2.41153 3.17707 2.18305 3.21525C1.54488 3.32131 1.09094 3.88312 1.09094 4.52978V9.63638C1.09094 9.99803 1.23461 10.3449 1.49034 10.6006C1.74607 10.8563 2.09291 11 2.45456 11H11.5454C11.907 11 12.2539 10.8563 12.5096 10.6006C12.7653 10.3449 12.909 9.99803 12.909 9.63638V4.52978C12.909 3.88312 12.4544 3.32131 11.8169 3.21525C11.5882 3.17715 11.3591 3.14179 11.1296 3.10919C10.9273 3.08153 10.7336 3.00997 10.5619 2.89952C10.3902 2.78907 10.2447 2.6424 10.1357 2.4698L9.6375 1.67224C9.52561 1.49048 9.37158 1.33836 9.18844 1.22875C9.0053 1.11914 8.79845 1.05527 8.58539 1.04255C7.5292 0.985817 6.47072 0.985817 5.41452 1.04255C5.20147 1.05527 4.99462 1.11914 4.81148 1.22875C4.62834 1.33836 4.4743 1.49048 4.36242 1.67224L3.86485 2.4698V2.4698Z" stroke="#FEFBFF" stroke-width="1.2" stroke-linecap="round" stroke-linejoin="round"/>
<path id="Vector_2" d="M9.72718 6.45478C9.72718 7.17809 9.43985 7.87177 8.92839 8.38323C8.41694 8.89468 7.72325 9.18202 6.99994 9.18202C6.27664 9.18202 5.58295 8.89468 5.0715 8.38323C4.56004 7.87177 4.27271 7.17809 4.27271 6.45478C4.27271 5.73147 4.56004 5.03779 5.0715 4.52633C5.58295 4.01487 6.27664 3.72754 6.99994 3.72754C7.72325 3.72754 8.41694 4.01487 8.92839 4.52633C9.43985 5.03779 9.72718 5.73147 9.72718 6.45478V6.45478ZM11.0908 5.09116H11.0957V5.09601H11.0908V5.09116Z" stroke="#FEFBFF" stroke-width="1.2" stroke-linecap="round" stroke-linejoin="round"/>
</g>
</svg>
