<svg width="30" height="30" viewBox="0 0 30 30" fill="none" xmlns="http://www.w3.org/2000/svg">
<rect x="-0.0090332" width="30.018" height="30" rx="15" fill="#8790AB"/>
<path d="M11.8648 11.4698C11.7558 11.6425 11.6102 11.7892 11.4384 11.8996C11.2666 12.0101 11.0727 12.0816 10.8703 12.1092C10.64 12.1419 10.4115 12.1771 10.1831 12.2152C9.54488 12.3213 9.09094 12.8831 9.09094 13.5298V18.6364C9.09094 18.998 9.23461 19.3449 9.49034 19.6006C9.74607 19.8563 10.0929 20 10.4546 20H19.5454C19.907 20 20.2539 19.8563 20.5096 19.6006C20.7653 19.3449 20.909 18.998 20.909 18.6364V13.5298C20.909 12.8831 20.4544 12.3213 19.8169 12.2152C19.5882 12.1772 19.3591 12.1418 19.1296 12.1092C18.9273 12.0815 18.7336 12.01 18.5619 11.8995C18.3902 11.7891 18.2447 11.6424 18.1357 11.4698L17.6375 10.6722C17.5256 10.4905 17.3716 10.3384 17.1884 10.2287C17.0053 10.1191 16.7984 10.0553 16.5854 10.0425C15.5292 9.98582 14.4707 9.98582 13.4145 10.0425C13.2015 10.0553 12.9946 10.1191 12.8115 10.2287C12.6283 10.3384 12.4743 10.4905 12.3624 10.6722L11.8648 11.4698V11.4698Z" stroke="#FEFBFF" stroke-width="1.2" stroke-linecap="round" stroke-linejoin="round"/>
<path d="M17.7272 15.4548C17.7272 16.1781 17.4398 16.8718 16.9284 17.3832C16.4169 17.8947 15.7233 18.182 14.9999 18.182C14.2766 18.182 13.583 17.8947 13.0715 17.3832C12.56 16.8718 12.2727 16.1781 12.2727 15.4548C12.2727 14.7315 12.56 14.0378 13.0715 13.5263C13.583 13.0149 14.2766 12.7275 14.9999 12.7275C15.7233 12.7275 16.4169 13.0149 16.9284 13.5263C17.4398 14.0378 17.7272 14.7315 17.7272 15.4548V15.4548ZM19.0908 14.0912H19.0957V14.096H19.0908V14.0912Z" stroke="#FEFBFF" stroke-width="1.2" stroke-linecap="round" stroke-linejoin="round"/>
</svg>
