<svg width="24" height="25" viewBox="0 0 24 25" fill="none" xmlns="http://www.w3.org/2000/svg">
<g id="ShoppingCart">
<path id="Vector" d="M20.8256 6.01906C20.7552 5.93481 20.6672 5.86705 20.5677 5.82056C20.4683 5.77407 20.3598 5.74998 20.25 5.75H5.12625L4.66781 3.23187C4.60502 2.88625 4.42292 2.57363 4.15325 2.34851C3.88359 2.12339 3.54347 2.00005 3.19219 2H1.5C1.30109 2 1.11032 2.07902 0.96967 2.21967C0.829018 2.36032 0.75 2.55109 0.75 2.75C0.75 2.94891 0.829018 3.13968 0.96967 3.28033C1.11032 3.42098 1.30109 3.5 1.5 3.5H3.1875L5.58375 16.6522C5.65434 17.0422 5.82671 17.4067 6.08344 17.7087C5.72911 18.0397 5.47336 18.4623 5.34455 18.9298C5.21575 19.3972 5.21892 19.8912 5.35371 20.3569C5.48851 20.8226 5.74966 21.2419 6.10821 21.5683C6.46676 21.8947 6.9087 22.1154 7.38502 22.2059C7.86134 22.2965 8.35344 22.2533 8.80673 22.0813C9.26003 21.9092 9.65682 21.615 9.9531 21.2312C10.2494 20.8474 10.4336 20.389 10.4853 19.907C10.537 19.4249 10.4541 18.9379 10.2459 18.5H14.5041C14.3363 18.8513 14.2495 19.2357 14.25 19.625C14.25 20.1442 14.404 20.6517 14.6924 21.0834C14.9808 21.5151 15.3908 21.8515 15.8705 22.0502C16.3501 22.2489 16.8779 22.3008 17.3871 22.1996C17.8963 22.0983 18.364 21.8483 18.7312 21.4812C19.0983 21.114 19.3483 20.6463 19.4496 20.1371C19.5508 19.6279 19.4989 19.1001 19.3002 18.6205C19.1015 18.1408 18.7651 17.7308 18.3334 17.4424C17.9017 17.154 17.3942 17 16.875 17H7.79719C7.62155 17 7.45149 16.9383 7.31665 16.8257C7.18182 16.7132 7.09077 16.5569 7.05938 16.3841L6.76219 14.75H17.6372C18.1641 14.7499 18.6743 14.5649 19.0788 14.2272C19.4833 13.8896 19.7564 13.4206 19.8506 12.9022L20.9906 6.63406C21.0099 6.52572 21.0051 6.41447 20.9766 6.30818C20.9481 6.2019 20.8966 6.10319 20.8256 6.01906ZM16.875 18.5C17.0975 18.5 17.315 18.566 17.5 18.6896C17.685 18.8132 17.8292 18.9889 17.9144 19.1945C17.9995 19.4 18.0218 19.6262 17.9784 19.8445C17.935 20.0627 17.8278 20.2632 17.6705 20.4205C17.5132 20.5778 17.3127 20.685 17.0945 20.7284C16.8762 20.7718 16.65 20.7495 16.4445 20.6644C16.2389 20.5792 16.0632 20.435 15.9396 20.25C15.816 20.065 15.75 19.8475 15.75 19.625C15.75 19.3266 15.8685 19.0405 16.0795 18.8295C16.2905 18.6185 16.5766 18.5 16.875 18.5ZM7.875 18.5C8.0975 18.5 8.31501 18.566 8.50002 18.6896C8.68502 18.8132 8.82922 18.9889 8.91436 19.1945C8.99951 19.4 9.02179 19.6262 8.97838 19.8445C8.93498 20.0627 8.82783 20.2632 8.6705 20.4205C8.51316 20.5778 8.31271 20.685 8.09448 20.7284C7.87625 20.7718 7.65005 20.7495 7.44448 20.6644C7.23891 20.5792 7.06321 20.435 6.9396 20.25C6.81598 20.065 6.75 19.8475 6.75 19.625C6.75 19.3266 6.86853 19.0405 7.0795 18.8295C7.29048 18.6185 7.57663 18.5 7.875 18.5Z" fill="white"/>
</g>
</svg>
