<svg width="18" height="19" viewBox="0 0 18 19" fill="none" xmlns="http://www.w3.org/2000/svg">
<path d="M9 5V9.5H12.375M15.75 9.5C15.75 10.3864 15.5754 11.2642 15.2362 12.0831C14.897 12.9021 14.3998 13.6462 13.773 14.273C13.1462 14.8998 12.4021 15.397 11.5831 15.7362C10.7642 16.0754 9.88642 16.25 9 16.25C8.11358 16.25 7.23583 16.0754 6.41689 15.7362C5.59794 15.397 4.85382 14.8998 4.22703 14.273C3.60023 13.6462 3.10303 12.9021 2.76381 12.0831C2.42459 11.2642 2.25 10.3864 2.25 9.5C2.25 7.70979 2.96116 5.9929 4.22703 4.72703C5.4929 3.46116 7.20979 2.75 9 2.75C10.7902 2.75 12.5071 3.46116 13.773 4.72703C15.0388 5.9929 15.75 7.70979 15.75 9.5Z" stroke="#5D6B82" stroke-width="1.2" stroke-linecap="round" stroke-linejoin="round"/>
</svg>
