<svg width="20" height="20" viewBox="0 0 20 20" fill="none" xmlns="http://www.w3.org/2000/svg">
<g id="DotsThreeVertical">
<path id="Vector" d="M11.5351 10C11.5351 10.2342 11.4656 10.4632 11.3355 10.6579C11.2054 10.8527 11.0204 11.0044 10.8041 11.0941C10.5877 11.1837 10.3496 11.2071 10.1199 11.1615C9.89014 11.1158 9.67913 11.003 9.51352 10.8374C9.3479 10.6717 9.23512 10.4607 9.18943 10.231C9.14373 10.0013 9.16718 9.76321 9.25681 9.54682C9.34645 9.33044 9.49823 9.14549 9.69297 9.01536C9.88771 8.88524 10.1167 8.81579 10.3509 8.81579C10.665 8.81579 10.9662 8.94055 11.1882 9.16264C11.4103 9.38472 11.5351 9.68593 11.5351 10ZM10.3509 4.86842C10.5851 4.86842 10.8141 4.79897 11.0088 4.66885C11.2035 4.53872 11.3553 4.35377 11.4449 4.13739C11.5346 3.921 11.558 3.6829 11.5123 3.45318C11.4666 3.22347 11.3539 3.01246 11.1882 2.84685C11.0226 2.68123 10.8116 2.56845 10.5819 2.52275C10.3522 2.47706 10.1141 2.50051 9.89771 2.59014C9.68132 2.67977 9.49637 2.83156 9.36625 3.0263C9.23612 3.22104 9.16667 3.45 9.16667 3.68421C9.16667 3.99828 9.29144 4.29949 9.51352 4.52157C9.7356 4.74366 10.0368 4.86842 10.3509 4.86842ZM10.3509 15.1316C10.1167 15.1316 9.88771 15.201 9.69297 15.3312C9.49823 15.4613 9.34645 15.6462 9.25681 15.8626C9.16718 16.079 9.14373 16.3171 9.18943 16.5468C9.23512 16.7765 9.3479 16.9875 9.51352 17.1532C9.67913 17.3188 9.89014 17.4316 10.1199 17.4772C10.3496 17.5229 10.5877 17.4995 10.8041 17.4099C11.0204 17.3202 11.2054 17.1684 11.3355 16.9737C11.4656 16.779 11.5351 16.55 11.5351 16.3158C11.5351 16.0017 11.4103 15.7005 11.1882 15.4784C10.9662 15.2563 10.665 15.1316 10.3509 15.1316Z" fill="#354764"/>
</g>
</svg>
