<svg width="28" height="28" viewBox="0 0 28 28" fill="none" xmlns="http://www.w3.org/2000/svg">
<g id="Logo--facebook">
<path id="Vector" d="M23.3363 3.5H4.66375C4.35581 3.50229 4.06114 3.62563 3.84338 3.84338C3.62563 4.06114 3.50229 4.35581 3.5 4.66375V23.3363C3.50229 23.6442 3.62563 23.9389 3.84338 24.1566C4.06114 24.3744 4.35581 24.4977 4.66375 24.5H14.7175V16.38H11.9875V13.2038H14.7175V10.8675C14.7175 8.155 16.3713 6.67625 18.8038 6.67625C19.6175 6.67625 20.4313 6.67625 21.245 6.79875V9.625H19.5738C18.2525 9.625 17.9987 10.255 17.9987 11.1738V13.195H21.1488L20.7375 16.3712H17.9987V24.5H23.3363C23.6442 24.4977 23.9389 24.3744 24.1566 24.1566C24.3744 23.9389 24.4977 23.6442 24.5 23.3363V4.66375C24.4977 4.35581 24.3744 4.06114 24.1566 3.84338C23.9389 3.62563 23.6442 3.50229 23.3363 3.5Z" fill="#FEFBFF"/>
</g>
</svg>
