<svg width="40" height="41" viewBox="0 0 40 41" fill="none" xmlns="http://www.w3.org/2000/svg">
<path d="M36.4999 20.4995C36.4999 20.3161 36.3999 20.1328 36.3499 19.9495C36.2728 19.626 36.1725 19.3086 36.0499 18.9995C35.9666 18.7995 35.8499 18.5995 35.7499 18.3828C35.6499 18.1661 35.4999 17.8828 35.3499 17.6495C35.1999 17.4161 34.9999 17.2995 34.9999 17.1661C34.9999 17.0328 34.6666 16.7495 34.4833 16.5495C34.2999 16.3495 34.1333 16.2161 33.9499 16.0495L33.3333 15.4995L32.7333 15.0995C32.4977 14.9553 32.2527 14.8273 31.9999 14.7161L31.3499 14.4161C31.0777 14.3153 30.7994 14.2318 30.5166 14.1661C30.2926 14.1003 30.0643 14.0501 29.8333 14.0161L29.4499 13.8328C28.7699 11.8679 27.4942 10.1638 25.8005 8.95775C24.1068 7.75166 22.0792 7.10352 19.9999 7.10352C17.9207 7.10352 15.8931 7.75166 14.1994 8.95775C12.5056 10.1638 11.23 11.8679 10.5499 13.8328L10.2499 13.9161C10.0189 13.9501 9.79058 14.0003 9.56659 14.0661C9.28381 14.1318 9.00548 14.2153 8.73325 14.3161L8.08325 14.6161C7.83046 14.7273 7.58546 14.8553 7.34992 14.9995L6.74992 15.4995L6.13325 16.0161C5.94992 16.1828 5.76659 16.3328 5.59992 16.5161C5.43325 16.6995 5.24992 16.9328 5.08325 17.1328C4.91659 17.3328 4.78325 17.5161 4.64992 17.7328C4.51659 17.9495 4.38325 18.2161 4.24992 18.4661C4.11659 18.7161 4.03325 18.8828 3.94992 19.0828C3.82732 19.3919 3.72706 19.7094 3.64992 20.0328C3.64992 20.2161 3.53325 20.3995 3.49992 20.5828C3.39618 21.1044 3.34039 21.6344 3.33325 22.1661C3.34107 22.675 3.39124 23.1823 3.48325 23.6828C3.48325 23.8495 3.56659 23.9995 3.59992 24.1661C3.6823 24.4936 3.78245 24.8163 3.89992 25.1328L4.09992 25.6161C4.24663 25.9375 4.41364 26.2493 4.59992 26.5495L4.83325 26.9161C4.85723 26.9629 4.88511 27.0075 4.91659 27.0495L4.99992 27.1661C5.77614 28.2011 6.78268 29.0411 7.93981 29.6197C9.09694 30.1983 10.3729 30.4995 11.6666 30.4995H16.6666V28.2161C16.1602 28.5099 15.5854 28.6651 14.9999 28.6661C14.097 28.6577 13.2341 28.2922 12.5999 27.6495C12.2954 27.3345 12.056 26.9625 11.8953 26.5549C11.7347 26.1472 11.656 25.7119 11.6637 25.2739C11.6715 24.8358 11.7655 24.4036 11.9405 24.0019C12.1154 23.6002 12.3678 23.2369 12.6833 22.9328L17.6833 18.0995C18.3053 17.4999 19.1359 17.1653 19.9999 17.1661C20.8826 17.1699 21.7277 17.5235 22.3499 18.1495L27.3499 23.1495C27.9708 23.774 28.3192 24.6189 28.3192 25.4995C28.3192 26.3801 27.9708 27.2249 27.3499 27.8495C26.7277 28.4755 25.8826 28.8291 24.9999 28.8328C24.4136 28.8383 23.8371 28.6827 23.3333 28.3828V30.4995H28.3333C29.627 30.4995 30.9029 30.1983 32.06 29.6197C33.2172 29.0411 34.2237 28.2011 34.9999 27.1661L35.0833 27.0828C35.1147 27.0408 35.1426 26.9962 35.1666 26.9495L35.3999 26.5828C35.5862 26.2826 35.7532 25.9709 35.8999 25.6495L36.0999 25.1661C36.2174 24.8496 36.3175 24.5269 36.3999 24.1995C36.3999 24.0328 36.4833 23.8828 36.5166 23.7161C36.6105 23.2047 36.6606 22.6861 36.6666 22.1661C36.6647 21.6065 36.6089 21.0484 36.4999 20.4995Z" fill="#5D6B82"/>
<path d="M21.1833 19.3161C20.8717 19.0108 20.4528 18.8397 20.0166 18.8397C19.5803 18.8397 19.1615 19.0108 18.8499 19.3161L13.8499 24.1495C13.6731 24.2954 13.5282 24.4763 13.4245 24.6807C13.3207 24.8852 13.2602 25.1088 13.2469 25.3377C13.2335 25.5666 13.2675 25.7958 13.3467 26.011C13.4259 26.2261 13.5487 26.4226 13.7074 26.5882C13.866 26.7537 14.0571 26.8847 14.2687 26.9731C14.4803 27.0614 14.7078 27.1051 14.9371 27.1015C15.1663 27.0978 15.3924 27.0469 15.6011 26.952C15.8098 26.857 15.9966 26.72 16.1499 26.5495L18.3333 24.4328V33.8328C18.3333 34.2748 18.5088 34.6988 18.8214 35.0113C19.134 35.3239 19.5579 35.4995 19.9999 35.4995C20.4419 35.4995 20.8659 35.3239 21.1784 35.0113C21.491 34.6988 21.6666 34.2748 21.6666 33.8328V24.5161L23.8166 26.6828C23.9715 26.839 24.1559 26.963 24.359 27.0476C24.5621 27.1322 24.7799 27.1758 24.9999 27.1758C25.2199 27.1758 25.4378 27.1322 25.6409 27.0476C25.844 26.963 26.0283 26.839 26.1833 26.6828C26.3395 26.5279 26.4635 26.3435 26.5481 26.1404C26.6327 25.9373 26.6763 25.7195 26.6763 25.4995C26.6763 25.2795 26.6327 25.0616 26.5481 24.8585C26.4635 24.6554 26.3395 24.4711 26.1833 24.3161L21.1833 19.3161Z" fill="#5D6B82"/>
</svg>
