<svg width="28" height="28" viewBox="0 0 28 28" fill="none" xmlns="http://www.w3.org/2000/svg">
<g id="Logo--instagram">
<g id="Vector">
<path d="M19.6049 9.6551C20.3008 9.6551 20.8649 9.09098 20.8649 8.3951C20.8649 7.69922 20.3008 7.1351 19.6049 7.1351C18.909 7.1351 18.3449 7.69922 18.3449 8.3951C18.3449 9.09098 18.909 9.6551 19.6049 9.6551Z" fill="#FEFBFF"/>
<path d="M14 8.60808C12.9336 8.60808 11.8911 8.92431 11.0044 9.51678C10.1177 10.1093 9.42661 10.9514 9.01851 11.9366C8.61041 12.9218 8.50363 14.006 8.71168 15.0519C8.91973 16.0978 9.43326 17.0586 10.1873 17.8127C10.9414 18.5667 11.9022 19.0803 12.9481 19.2883C13.994 19.4964 15.0782 19.3896 16.0634 18.9815C17.0486 18.5734 17.8907 17.8823 18.4832 16.9956C19.0757 16.1089 19.3919 15.0664 19.3919 14C19.3919 12.57 18.8238 11.1985 17.8127 10.1873C16.8015 9.17615 15.43 8.60808 14 8.60808ZM14 17.5C13.3078 17.5 12.6311 17.2947 12.0555 16.9101C11.4799 16.5256 11.0313 15.9789 10.7664 15.3394C10.5015 14.6999 10.4322 13.9961 10.5673 13.3172C10.7023 12.6383 11.0356 12.0146 11.5251 11.5251C12.0146 11.0356 12.6383 10.7023 13.3172 10.5673C13.9961 10.4322 14.6999 10.5015 15.3394 10.7664C15.9789 11.0313 16.5256 11.4799 16.9101 12.0555C17.2947 12.6311 17.5 13.3078 17.5 14C17.5 14.9283 17.1313 15.8185 16.4749 16.4749C15.8185 17.1313 14.9283 17.5 14 17.5Z" fill="#FEFBFF"/>
<path d="M14 5.39192C16.8036 5.39192 17.1357 5.4026 18.2429 5.45318C18.9087 5.4611 19.5682 5.5834 20.1926 5.81472C20.6454 5.98945 21.0567 6.25701 21.3999 6.60021C21.7431 6.94341 22.0106 7.35464 22.1854 7.80745C22.4167 8.43186 22.539 9.09138 22.5469 9.75721C22.5974 10.8643 22.6082 11.1965 22.6082 14.0001C22.6082 16.8037 22.5975 17.1358 22.5469 18.243C22.539 18.9088 22.4167 19.5683 22.1854 20.1927C22.0106 20.6455 21.7431 21.0568 21.3999 21.4C21.0567 21.7432 20.6454 22.0107 20.1926 22.1854C19.5682 22.4168 18.9087 22.5391 18.2429 22.547C17.1358 22.5975 16.8039 22.6082 14 22.6082C11.1961 22.6082 10.8642 22.5976 9.75712 22.547C9.09129 22.5391 8.43177 22.4168 7.80736 22.1854C7.35455 22.0107 6.94332 21.7432 6.60012 21.4C6.25693 21.0568 5.98936 20.6455 5.81464 20.1927C5.58331 19.5683 5.46101 18.9088 5.45309 18.243C5.4026 17.1358 5.39184 16.8037 5.39184 14.0001C5.39184 11.1965 5.40251 10.8643 5.45309 9.75721C5.46101 9.09138 5.58331 8.43186 5.81464 7.80745C5.98935 7.35462 6.25691 6.94338 6.60011 6.60016C6.94331 6.25695 7.35454 5.98937 7.80736 5.81464C8.43177 5.58331 9.09129 5.46101 9.75712 5.45309C10.8643 5.4026 11.1964 5.39192 14 5.39192ZM14 3.5C11.1484 3.5 10.7908 3.51207 9.67085 3.56317C8.79992 3.58066 7.93826 3.74569 7.1225 4.05125C6.42489 4.32102 5.79134 4.73357 5.26246 5.26246C4.73357 5.79134 4.32102 6.42489 4.05125 7.1225C3.74564 7.9384 3.58061 8.80021 3.56317 9.67129C3.51207 10.7908 3.5 11.1484 3.5 14C3.5 16.8516 3.51207 17.2092 3.56317 18.3291C3.58062 19.2002 3.74565 20.062 4.05125 20.8779C4.32102 21.5755 4.73357 22.2091 5.26246 22.738C5.79134 23.2669 6.42489 23.6794 7.1225 23.9492C7.9384 24.2548 8.80021 24.4198 9.67129 24.4373C10.7908 24.4879 11.1484 24.5 14 24.5C16.8516 24.5 17.2092 24.4879 18.3291 24.4368C19.2002 24.4194 20.062 24.2543 20.8779 23.9488C21.5755 23.679 22.2091 23.2664 22.738 22.7375C23.2669 22.2087 23.6794 21.5751 23.9492 20.8775C24.2548 20.0616 24.4198 19.1998 24.4373 18.3287C24.4879 17.2092 24.5 16.8516 24.5 14C24.5 11.1484 24.4879 10.7908 24.4368 9.67085C24.4193 8.79992 24.2543 7.93826 23.9488 7.1225C23.6789 6.42497 23.2664 5.79151 22.7375 5.2627C22.2086 4.7339 21.5751 4.32141 20.8775 4.05169C20.0616 3.74609 19.1998 3.58106 18.3287 3.56361C17.2092 3.51208 16.8516 3.5 14 3.5Z" fill="#FEFBFF"/>
</g>
</g>
</svg>
