<svg width="40" height="41" viewBox="0 0 40 41" fill="none" xmlns="http://www.w3.org/2000/svg">
<g id="lock_FILL0_wght300_GRAD0_opsz24 1">
<path id="Vector" d="M10.5128 35.8866C9.68164 35.8866 8.97171 35.5922 8.38304 35.0035C7.79435 34.4148 7.5 33.7049 7.5 32.8737V17.2328C7.5 16.4016 7.79435 15.6917 8.38304 15.103C8.97171 14.5143 9.68164 14.22 10.5128 14.22H12.5V10.8866C12.5 8.80547 13.2297 7.03519 14.6891 5.5758C16.1485 4.11641 17.9188 3.38672 20 3.38672C22.0811 3.38672 23.8514 4.11641 25.3108 5.5758C26.7702 7.03519 27.4999 8.80547 27.4999 10.8866V14.22H29.4871C30.3183 14.22 31.0282 14.5143 31.6169 15.103C32.2056 15.6917 32.4999 16.4016 32.4999 17.2328V32.8737C32.4999 33.7049 32.2056 34.4148 31.6169 35.0035C31.0282 35.5922 30.3183 35.8866 29.4871 35.8866H10.5128ZM10.5128 33.3866H29.4871C29.6367 33.3866 29.7595 33.3385 29.8557 33.2423C29.9519 33.1462 30 33.0233 30 32.8737V17.2328C30 17.0832 29.9519 16.9603 29.8557 16.8642C29.7595 16.768 29.6367 16.7199 29.4871 16.7199H10.5128C10.3633 16.7199 10.2404 16.768 10.1442 16.8642C10.048 16.9603 9.99996 17.0832 9.99996 17.2328V32.8737C9.99996 33.0233 10.048 33.1462 10.1442 33.2423C10.2404 33.3385 10.3633 33.3866 10.5128 33.3866ZM20 27.9699C20.8098 27.9699 21.4983 27.6862 22.0656 27.1189C22.6329 26.5516 22.9166 25.8631 22.9166 25.0533C22.9166 24.2434 22.6329 23.5549 22.0656 22.9876C21.4983 22.4203 20.8098 22.1366 20 22.1366C19.1901 22.1366 18.5016 22.4203 17.9343 22.9876C17.367 23.5549 17.0833 24.2434 17.0833 25.0533C17.0833 25.8631 17.367 26.5516 17.9343 27.1189C18.5016 27.6862 19.1901 27.9699 20 27.9699ZM15 14.22H25V10.8866C25 9.49775 24.5138 8.31719 23.5416 7.34497C22.5694 6.37275 21.3888 5.88663 20 5.88663C18.6111 5.88663 17.4305 6.37275 16.4583 7.34497C15.4861 8.31719 15 9.49775 15 10.8866V14.22Z" fill="#8790AB"/>
</g>
</svg>
