<svg width="24" height="24" viewBox="0 0 24 24" fill="none" xmlns="http://www.w3.org/2000/svg">
<g id="logout">
<path id="Vector" d="M14.9556 15.8C14.7926 15.6074 14.7111 15.3889 14.7111 15.1444C14.7111 14.9 14.7926 14.6963 14.9556 14.5333L16.6 12.8889H10.2222C9.97037 12.8889 9.75926 12.8037 9.58889 12.6333C9.41852 12.463 9.33333 12.2519 9.33333 12C9.33333 11.7481 9.41852 11.537 9.58889 11.3667C9.75926 11.1963 9.97037 11.1111 10.2222 11.1111H16.6L14.9556 9.46667C14.7778 9.28889 14.6889 9.07778 14.6889 8.83333C14.6889 8.58889 14.7778 8.37778 14.9556 8.2C15.1185 8.02222 15.3222 7.93333 15.5667 7.93333C15.8111 7.93333 16.0148 8.01481 16.1778 8.17778L19.3778 11.3778C19.4667 11.4667 19.5296 11.563 19.5667 11.6667C19.6037 11.7704 19.6222 11.8815 19.6222 12C19.6222 12.1185 19.6037 12.2296 19.5667 12.3333C19.5296 12.437 19.4667 12.5333 19.3778 12.6222L16.1778 15.8222C15.9852 16.0148 15.7741 16.1 15.5444 16.0778C15.3148 16.0556 15.1185 15.963 14.9556 15.8ZM5.77778 20C5.28889 20 4.87037 19.8259 4.52222 19.4778C4.17407 19.1296 4 18.7111 4 18.2222V5.77778C4 5.28889 4.17407 4.87037 4.52222 4.52222C4.87037 4.17407 5.28889 4 5.77778 4H11.1111C11.363 4 11.5741 4.08519 11.7444 4.25556C11.9148 4.42593 12 4.63704 12 4.88889C12 5.14074 11.9148 5.35185 11.7444 5.52222C11.5741 5.69259 11.363 5.77778 11.1111 5.77778H5.77778V18.2222H11.1111C11.363 18.2222 11.5741 18.3074 11.7444 18.4778C11.9148 18.6481 12 18.8593 12 19.1111C12 19.363 11.9148 19.5741 11.7444 19.7444C11.5741 19.9148 11.363 20 11.1111 20H5.77778Z" fill="#EF4444"/>
</g>
</svg>
