<svg width="24" height="24" viewBox="0 0 24 24" fill="none" xmlns="http://www.w3.org/2000/svg">
<g id="deployed_code_history_FILL0_wght300_GRAD0_opsz24 1">
<path id="Vector" d="M16.4005 16.1759V14.2762C16.4005 14.1797 16.3644 14.0953 16.292 14.023C16.2197 13.9507 16.1353 13.9145 16.0389 13.9145C15.9424 13.9145 15.858 13.9507 15.7857 14.023C15.7134 14.0953 15.6772 14.1797 15.6772 14.2762V16.16C15.6772 16.2563 15.695 16.3495 15.7307 16.4398C15.7663 16.53 15.8224 16.6134 15.8989 16.6899L17.1333 17.9243C17.2046 17.9956 17.2882 18.0326 17.3841 18.0352C17.48 18.0378 17.5663 18.0009 17.6428 17.9243C17.7193 17.8478 17.7576 17.7629 17.7576 17.6696C17.7576 17.5763 17.7193 17.4914 17.6428 17.4149L16.4005 16.1759ZM11.2113 4.20128C11.4458 4.06709 11.6925 4 11.9517 4C12.2108 4 12.4567 4.06709 12.6895 4.20128L18.1617 7.35095C18.3957 7.48737 18.5774 7.6672 18.7068 7.89043C18.8361 8.11365 18.9008 8.35944 18.9008 8.62781V11.5054C18.7131 11.3807 18.5184 11.2719 18.3166 11.1791C18.1148 11.0864 17.9007 11.0054 17.6743 10.9362V9.12155L14.6755 10.8497C13.9752 11.03 13.3386 11.3262 12.7657 11.7382C12.1928 12.1502 11.7166 12.6492 11.3371 13.2352V12.081L6.22652 9.12155V14.8171C6.22652 14.8591 6.23701 14.8984 6.25798 14.9351C6.27894 14.9718 6.31039 15.0032 6.35232 15.0294L10.5525 17.4684C10.607 17.7944 10.6935 18.1086 10.8119 18.411C10.9304 18.7135 11.0766 19.0025 11.2506 19.2782C11.2339 19.2699 11.2234 19.2636 11.2192 19.2594C11.215 19.2552 11.2045 19.2489 11.1877 19.2405L5.73907 16.1065C5.50504 15.9701 5.32335 15.7903 5.19402 15.5671C5.06467 15.3439 5 15.0981 5 14.8297V8.62781C5 8.35944 5.06467 8.11365 5.19402 7.89043C5.32335 7.6672 5.50504 7.48737 5.73907 7.35095L11.2113 4.20128ZM11.8246 5.25796L6.9011 8.10575L11.9504 11.0243L16.9997 8.10575L12.0762 5.25796C12.0343 5.23176 11.9923 5.21865 11.9504 5.21865C11.9085 5.21865 11.8665 5.23176 11.8246 5.25796ZM16.0389 20C15.0178 20 14.1493 19.642 13.4333 18.926C12.7173 18.21 12.3593 17.3415 12.3593 16.3204C12.3593 15.2993 12.7173 14.4308 13.4333 13.7148C14.1493 12.9988 15.0178 12.6408 16.0389 12.6408C17.0599 12.6408 17.9285 12.9988 18.6445 13.7148C19.3605 14.4308 19.7185 15.2993 19.7185 16.3204C19.7185 17.3415 19.3605 18.21 18.6445 18.926C17.9285 19.642 17.0599 20 16.0389 20Z" fill="#5D6B82"/>
</g>
</svg>
