<svg width="190" height="140" viewBox="0 0 190 140" fill="none" xmlns="http://www.w3.org/2000/svg">
<path d="M188.643 32.2085C188.633 30.6306 188.064 29.1071 187.038 27.9084C186.012 26.7097 184.594 25.913 183.037 25.6598L87.2113 9.92414C86.2924 9.77202 85.3519 9.8138 84.4501 10.0468L61.9928 15.8536L49.1075 19.1893L25.3281 25.3363C23.8927 25.7092 22.6215 26.5479 21.714 27.7209C20.8065 28.8939 20.3139 30.3349 20.3135 31.8181V132.23C20.3206 133.76 20.8496 135.243 21.813 136.433C22.7764 137.622 24.1168 138.448 25.6126 138.773L123.218 137.668C123.676 137.766 124.144 137.815 124.612 137.812C125.295 137.814 125.974 137.71 126.626 137.506L184.616 138.949C185.984 138.522 187.178 137.665 188.022 136.505C188.865 135.346 189.311 133.945 189.296 132.512L188.643 32.2085Z" fill="white"/>
<path d="M188.643 32.2085C188.633 30.6306 188.064 29.1071 187.038 27.9084C186.012 26.7097 184.594 25.913 183.037 25.6598L87.2113 9.92414C86.2924 9.77202 85.3519 9.8138 84.4501 10.0468L61.9928 15.8536L49.1075 19.1893L25.3281 25.3363C23.8927 25.7092 22.6215 26.5479 21.714 27.7209C20.8065 28.8939 20.3139 30.3349 20.3135 31.8181V132.23C20.3206 133.76 20.8496 135.243 21.813 136.433C22.7764 137.622 24.1168 138.448 25.6126 138.773L123.218 137.668C123.676 137.766 124.144 137.815 124.612 137.812C125.295 137.814 125.974 137.71 126.626 137.506L184.616 138.949C185.984 138.522 187.178 137.665 188.022 136.505C188.865 135.346 189.311 133.945 189.296 132.512L188.643 32.2085ZM184.114 137.353L126.124 138.733C125.297 138.99 124.417 139.033 123.569 138.855L25.9585 137.138C24.837 136.894 23.8323 136.274 23.1102 135.382C22.3882 134.49 21.992 133.378 21.9869 132.23V31.8181C21.9876 30.7901 22.3035 29.7871 22.892 28.9443C23.4805 28.1015 24.3132 27.4594 25.278 27.1046C25.4312 27.0471 25.5876 26.9986 25.7465 26.9595L50.9036 20.4555L65.7803 16.6066L84.8685 11.6701C85.2778 11.5608 85.6999 11.5064 86.1235 11.5083C86.3964 11.5082 86.6688 11.5306 86.9379 11.5752L182.764 27.311C183.535 27.4375 184.266 27.7418 184.899 28.1997C185.532 28.6577 186.05 29.2567 186.412 29.9494C186.774 30.6517 186.965 31.4295 186.97 32.2196L187.622 132.523C187.634 133.598 187.299 134.649 186.667 135.519C186.035 136.389 185.14 137.032 184.114 137.353Z" fill="#CCCCCC"/>
<path d="M186.412 29.949C186.347 29.9918 186.275 30.0238 186.2 30.0438L158.014 37.6635L149.239 40.0342L124.283 46.778C124.212 46.7955 124.139 46.8049 124.066 46.806C124.015 46.805 123.965 46.8013 123.915 46.7948L23.2865 28.4485L22.9518 28.3871C22.7339 28.3461 22.5409 28.2206 22.4153 28.0378C22.2896 27.855 22.2414 27.6299 22.2812 27.4117C22.321 27.1935 22.4456 27 22.6277 26.8733C22.8098 26.7467 23.0347 26.6973 23.2531 26.736L25.2779 27.1041L124.032 45.1101L145.541 39.2978L157.573 36.0458L185.324 28.5433L185.765 28.4262C185.955 28.3759 186.157 28.3942 186.336 28.4778C186.514 28.5614 186.657 28.705 186.741 28.8836C186.762 28.9262 186.779 28.9711 186.791 29.0174C186.837 29.1928 186.825 29.3784 186.756 29.5464C186.688 29.7143 186.567 29.8556 186.412 29.949Z" fill="#CCCCCC"/>
<path d="M124.9 138.007C124.441 138.007 124.068 137.637 124.063 140L123.227 48.7984C123.222 45.5142 123.594 45.1362 124.056 45.1318H124.063C124.522 45.1318 124.896 45.5012 124.9 48.7832L125.737 139.985C125.741 137.624 125.37 138.002 124.908 138.007H124.9Z" fill="#CCCCCC"/>
<path d="M158.25 139.064L149.238 139.159L145.54 39.2957L51.1759 20.5199C51.0835 20.5035 50.9922 20.4812 50.9026 20.453C50.1777 20.2466 49.5444 19.8001 49.1064 19.1868L61.9918 15.8511L65.7793 16.6041L155.318 34.4149C155.789 34.5079 156.234 34.7016 156.623 34.9827C157.012 35.2638 157.336 35.6258 157.572 36.0437C157.851 36.529 158.244 138.483 158.25 139.064Z" fill="#CCCCCC"/>
<path d="M25.971 50.5338C39.9256 50.5338 51.2379 39.2214 51.2379 25.2669C51.2379 11.3124 39.9256 0 25.971 0C12.0165 0 0.704102 11.3124 0.704102 25.2669C0.704102 39.2214 12.0165 50.5338 25.971 50.5338Z" fill="#16A34A"/>
<path d="M22.5228 38.4162C22.0865 38.4162 21.6562 38.3146 21.266 38.1194C20.8757 37.9242 20.5363 37.6408 20.2746 37.2917L13.3814 28.1006C12.9342 27.5043 12.7422 26.7547 12.8476 26.0168C12.953 25.2789 13.3473 24.6131 13.9436 24.1659C14.54 23.7187 15.2895 23.5267 16.0274 23.6321C16.7653 23.7375 17.4311 24.1318 17.8784 24.7281L22.3881 30.7407L33.9709 13.3668C34.175 13.0584 34.4381 12.7934 34.7449 12.5869C35.0517 12.3804 35.3963 12.2364 35.7588 12.1633C36.1214 12.0902 36.4948 12.0894 36.8576 12.1609C37.2205 12.2324 37.5657 12.3748 37.8734 12.5799C38.1811 12.7851 38.4453 13.049 38.6509 13.3564C38.8564 13.6639 38.9993 14.0089 39.0712 14.3717C39.1432 14.7344 39.1429 15.1078 39.0703 15.4705C38.9976 15.8331 38.8541 16.1778 38.648 16.4849L24.8617 37.1645C24.6123 37.5385 24.2769 37.8473 23.8835 38.0649C23.4902 38.2825 23.0504 38.4027 22.601 38.4153C22.575 38.4157 22.5489 38.4162 22.5228 38.4162Z" fill="white"/>
<path d="M49.3802 65.149C49.3032 65.1649 49.2247 65.1723 49.1462 65.171L26.7262 64.7935C26.4459 64.7882 26.1791 64.672 25.9844 64.4703C25.7897 64.2686 25.683 63.9979 25.6876 63.7176C25.6923 63.4373 25.808 63.1703 26.0093 62.9752C26.2106 62.7801 26.481 62.6728 26.7613 62.6769L49.1813 63.0544C49.4416 63.0588 49.6911 63.159 49.8822 63.3358C50.0733 63.5126 50.1925 63.7536 50.2171 64.0128C50.2417 64.272 50.17 64.5311 50.0156 64.7407C49.8612 64.9503 49.635 65.0957 49.3802 65.149Z" fill="#E6E6E6"/>
<path d="M57.1399 77.1427C57.063 77.1586 56.9845 77.166 56.9059 77.1647L34.486 76.7871C34.2057 76.7819 33.9389 76.6657 33.7442 76.464C33.5495 76.2623 33.4428 75.9916 33.4474 75.7113C33.4521 75.431 33.5677 75.1639 33.769 74.9688C33.9703 74.7737 34.2408 74.6664 34.5211 74.6705L56.9411 75.0481C57.2014 75.0525 57.4509 75.1527 57.642 75.3295C57.8331 75.5063 57.9523 75.7473 57.9769 76.0065C58.0015 76.2656 57.9298 76.5248 57.7754 76.7344C57.621 76.944 57.3947 77.0893 57.1399 77.1427Z" fill="#E6E6E6"/>
</svg>
