<svg width="25" height="25" viewBox="0 0 25 25" fill="none" xmlns="http://www.w3.org/2000/svg">
<g id="password">
<path id="Vector" d="M15.6154 11.4231V8.73077C15.6154 7.87392 15.275 7.05216 14.6691 6.44627C14.0632 5.84038 13.2415 5.5 12.3846 5.5C11.5278 5.5 10.706 5.84038 10.1001 6.44627C9.49423 7.05216 9.15385 7.87392 9.15385 8.73077V11.4231M8.61538 19.5H16.1538C16.5823 19.5 16.9932 19.3298 17.2961 19.0269C17.599 18.7239 17.7692 18.313 17.7692 17.8846V13.0385C17.7692 12.61 17.599 12.1992 17.2961 11.8962C16.9932 11.5933 16.5823 11.4231 16.1538 11.4231H8.61538C8.18696 11.4231 7.77608 11.5933 7.47314 11.8962C7.17019 12.1992 7 12.61 7 13.0385V17.8846C7 18.313 7.17019 18.7239 7.47314 19.0269C7.77608 19.3298 8.18696 19.5 8.61538 19.5Z" stroke="#243757" stroke-width="1.5" stroke-linecap="round" stroke-linejoin="round"/>
</g>
</svg>
