<svg width="24" height="25" viewBox="0 0 24 25" fill="none" xmlns="http://www.w3.org/2000/svg">
<g id="Phone">
<path id="Vector" d="M20.8472 15.3554L16.4306 13.3764L16.4184 13.3707C16.1892 13.2727 15.939 13.2333 15.6907 13.2562C15.4424 13.2792 15.2037 13.3636 14.9963 13.502C14.9718 13.5181 14.9484 13.5357 14.9259 13.5545L12.6441 15.4998C11.1984 14.7976 9.70595 13.3164 9.00376 11.8895L10.9519 9.57294C10.9706 9.5495 10.9884 9.52606 11.0053 9.50075C11.1407 9.29384 11.2229 9.05667 11.2445 8.81035C11.2661 8.56402 11.2264 8.31618 11.1291 8.08887V8.07762L9.14438 3.65356C9.0157 3.35662 8.79444 3.10926 8.51362 2.94841C8.2328 2.78756 7.9075 2.72184 7.58626 2.76106C6.31592 2.92822 5.14986 3.55209 4.30588 4.51615C3.4619 5.48021 2.99771 6.71852 3.00001 7.99981C3.00001 15.4436 9.05626 21.4998 16.5 21.4998C17.7813 21.5021 19.0196 21.0379 19.9837 20.1939C20.9477 19.35 21.5716 18.1839 21.7388 16.9136C21.7781 16.5924 21.7125 16.2672 21.5518 15.9864C21.3911 15.7056 21.144 15.4843 20.8472 15.3554ZM16.5 19.9998C13.3185 19.9963 10.2682 18.7309 8.01856 16.4813C5.76888 14.2316 4.50348 11.1813 4.50001 7.99981C4.49648 7.08433 4.82631 6.19887 5.42789 5.50879C6.02947 4.8187 6.86167 4.37118 7.76907 4.24981C7.7687 4.25355 7.7687 4.25732 7.76907 4.26106L9.73782 8.66731L7.80001 10.9867C7.78034 11.0093 7.76247 11.0335 7.74657 11.0589C7.60549 11.2754 7.52273 11.5246 7.5063 11.7825C7.48988 12.0404 7.54035 12.2981 7.65282 12.5307C8.5022 14.2679 10.2525 16.0051 12.0084 16.8536C12.2428 16.965 12.502 17.0137 12.7608 16.995C13.0196 16.9762 13.2692 16.8907 13.485 16.7467C13.5091 16.7305 13.5322 16.7129 13.5544 16.6942L15.8334 14.7498L20.2397 16.7232C20.2397 16.7232 20.2472 16.7232 20.25 16.7232C20.1301 17.6319 19.6833 18.4658 18.9931 19.0689C18.3028 19.672 17.4166 20.0029 16.5 19.9998Z" fill="#EB038B"/>
</g>
</svg>
