<svg width="24" height="25" viewBox="0 0 24 25" fill="none" xmlns="http://www.w3.org/2000/svg">
<g id="User">
<path id="Vector" d="M21.6488 20.3751C20.2209 17.9067 18.0206 16.1367 15.4528 15.2976C16.723 14.5415 17.7098 13.3893 18.2618 12.018C18.8137 10.6468 18.9003 9.13224 18.5082 7.70701C18.1161 6.28178 17.267 5.02467 16.0912 4.12873C14.9155 3.23279 13.4782 2.74756 12 2.74756C10.5218 2.74756 9.08451 3.23279 7.90878 4.12873C6.73306 5.02467 5.88394 6.28178 5.49183 7.70701C5.09971 9.13224 5.18629 10.6468 5.73825 12.018C6.29021 13.3893 7.27704 14.5415 8.5472 15.2976C5.97938 16.1357 3.77907 17.9057 2.35126 20.3751C2.2989 20.4605 2.26417 20.5555 2.24912 20.6545C2.23407 20.7535 2.239 20.8545 2.26363 20.9516C2.28825 21.0487 2.33207 21.1399 2.3925 21.2197C2.45293 21.2996 2.52874 21.3666 2.61547 21.4167C2.7022 21.4667 2.79808 21.499 2.89745 21.5114C2.99683 21.5238 3.0977 21.5163 3.19409 21.4891C3.29049 21.4619 3.38047 21.4157 3.45872 21.3532C3.53697 21.2907 3.6019 21.2131 3.6497 21.1251C5.41595 18.0726 8.53782 16.2501 12 16.2501C15.4622 16.2501 18.5841 18.0726 20.3503 21.1251C20.3981 21.2131 20.4631 21.2907 20.5413 21.3532C20.6196 21.4157 20.7095 21.4619 20.8059 21.4891C20.9023 21.5163 21.0032 21.5238 21.1026 21.5114C21.2019 21.499 21.2978 21.4667 21.3845 21.4167C21.4713 21.3666 21.5471 21.2996 21.6075 21.2197C21.6679 21.1399 21.7118 21.0487 21.7364 20.9516C21.761 20.8545 21.766 20.7535 21.7509 20.6545C21.7358 20.5555 21.7011 20.4605 21.6488 20.3751ZM6.75001 9.50011C6.75001 8.46176 7.05792 7.44672 7.63479 6.58337C8.21167 5.72001 9.03161 5.0471 9.99092 4.64974C10.9502 4.25238 12.0058 4.14841 13.0242 4.35099C14.0426 4.55356 14.9781 5.05357 15.7123 5.7878C16.4465 6.52202 16.9466 7.45748 17.1491 8.47589C17.3517 9.49429 17.2477 10.5499 16.8504 11.5092C16.453 12.4685 15.7801 13.2884 14.9168 13.8653C14.0534 14.4422 13.0384 14.7501 12 14.7501C10.6081 14.7486 9.27359 14.195 8.28934 13.2108C7.3051 12.2265 6.7515 10.892 6.75001 9.50011Z" fill="white"/>
</g>
</svg>
