<svg width="24" height="24" viewBox="0 0 24 24" fill="none" xmlns="http://www.w3.org/2000/svg">
<g id="Profile">
<path id="Vector" d="M15.2299 7.07692C15.2299 7.89297 14.9058 8.6756 14.3287 9.25263C13.7517 9.82967 12.9691 10.1538 12.153 10.1538C11.337 10.1538 10.5543 9.82967 9.97731 9.25263C9.40027 8.6756 9.0761 7.89297 9.0761 7.07692C9.0761 6.26087 9.40027 5.47824 9.97731 4.90121C10.5543 4.32417 11.337 4 12.153 4C12.9691 4 13.7517 4.32417 14.3287 4.90121C14.9058 5.47824 15.2299 6.26087 15.2299 7.07692ZM6 18.6609C6.02637 17.0464 6.68623 15.507 7.83727 14.3746C8.98832 13.2422 10.5383 12.6076 12.153 12.6076C13.7677 12.6076 15.3177 13.2422 16.4688 14.3746C17.6198 15.507 18.2797 17.0464 18.306 18.6609C16.3757 19.5461 14.2766 20.0029 12.153 20C9.95733 20 7.87323 19.5208 6 18.6609Z" stroke="#5D6B82" stroke-width="1.5" stroke-linecap="round" stroke-linejoin="round"/>
</g>
</svg>
