<svg width="40" height="41" viewBox="0 0 40 41" fill="none" xmlns="http://www.w3.org/2000/svg">
<path d="M20.25 27.2919C21.1987 27.2919 22.0502 27.0552 22.8045 26.5819C23.5588 26.1086 23.9359 25.3495 23.9359 24.3046C23.9359 23.435 23.6117 22.7421 22.9632 22.2261C22.3147 21.7101 21.1047 21.1273 19.3334 20.4777C17.6197 19.8623 16.3836 19.1732 15.625 18.4104C14.8665 17.6476 14.4872 16.6401 14.4872 15.388C14.4872 14.3132 14.875 13.3292 15.6507 12.4361C16.4263 11.5429 17.5107 10.9735 18.9039 10.7277V9.84631C18.9039 9.5429 19.0177 9.27741 19.2452 9.04986C19.4728 8.8223 19.7383 8.70852 20.0417 8.70852C20.3451 8.70852 20.6106 8.8223 20.8381 9.04986C21.0657 9.27741 21.1795 9.5429 21.1795 9.84631V10.7277C21.9637 10.7833 22.6934 11.0381 23.3686 11.4921C24.0438 11.9462 24.5951 12.5098 25.0224 13.1829C25.1741 13.4136 25.188 13.6599 25.0641 13.9216C24.9401 14.1834 24.7318 14.3676 24.4391 14.4745C24.1635 14.5813 23.8851 14.5952 23.6042 14.5161C23.3232 14.4371 23.093 14.2768 22.9135 14.0354C22.593 13.6486 22.2003 13.3351 21.7356 13.0947C21.2708 12.8543 20.7201 12.7341 20.0833 12.7341C19.047 12.7341 18.2345 12.9798 17.6458 13.4713C17.0571 13.9628 16.7628 14.6016 16.7628 15.388C16.7628 16.1743 17.0502 16.7865 17.625 17.2245C18.1997 17.6626 19.3632 18.1807 21.1154 18.779C23.1154 19.5012 24.4594 20.3111 25.1474 21.2085C25.8355 22.1059 26.1795 23.138 26.1795 24.3046C26.1795 25.0995 26.0326 25.7972 25.7388 26.3976C25.445 26.998 25.0609 27.5028 24.5865 27.912C24.1121 28.3212 23.5721 28.6444 22.9663 28.8816C22.3606 29.1187 21.7372 29.2854 21.0961 29.3816V30.263C21.0961 30.5664 20.9824 30.8319 20.7548 31.0594C20.5272 31.287 20.2618 31.4008 19.9583 31.4008C19.6549 31.4008 19.3894 31.287 19.1619 31.0594C18.9343 30.8319 18.8205 30.5664 18.8205 30.263V29.2982C17.797 29.076 16.9103 28.678 16.1603 28.1043C15.4103 27.5306 14.8024 26.7822 14.3366 25.8591C14.202 25.5664 14.2009 25.2769 14.3334 24.9906C14.4659 24.7042 14.6785 24.5076 14.9712 24.4008C15.2468 24.294 15.5278 24.2956 15.8141 24.4056C16.1004 24.5157 16.3194 24.7 16.4711 24.9585C16.9028 25.7235 17.4439 26.3036 18.0945 26.6989C18.7452 27.0942 19.4637 27.2919 20.25 27.2919ZM20 37.5546C16.75 37.5546 13.8007 36.7501 11.1522 35.1411C8.50371 33.5321 6.42627 31.3761 4.91988 28.6731V32.3943C4.91988 32.749 4.80023 33.046 4.56092 33.2853C4.32159 33.5246 4.02457 33.6443 3.66988 33.6443C3.31521 33.6443 3.01821 33.5246 2.77888 33.2853C2.53957 33.046 2.41992 32.749 2.41992 32.3943V25.9841C2.41992 25.5546 2.56362 25.1962 2.85101 24.9088C3.13839 24.6214 3.49684 24.4777 3.92634 24.4777H10.3366C10.6913 24.4777 10.9883 24.5973 11.2276 24.8366C11.4669 25.076 11.5865 25.373 11.5865 25.7276C11.5865 26.0823 11.4669 26.3793 11.2276 26.6186C10.9883 26.858 10.6913 26.9776 10.3366 26.9776H6.85251C8.05764 29.405 9.83863 31.358 12.1955 32.8367C14.5523 34.3153 17.1538 35.0546 20 35.0546C23.8739 35.0546 27.2179 33.7758 30.032 31.2181C32.8462 28.6604 34.469 25.4681 34.9006 21.6412C34.9455 21.2929 35.0919 21.0109 35.3398 20.7951C35.5876 20.5793 35.8857 20.4714 36.234 20.4714C36.5887 20.4714 36.8873 20.5905 37.1298 20.8287C37.3723 21.067 37.4711 21.3517 37.4262 21.6829C37.2211 23.9157 36.626 25.9943 35.641 27.9184C34.6559 29.8425 33.384 31.5188 31.8253 32.9472C30.2665 34.3756 28.4781 35.5006 26.4599 36.3222C24.4418 37.1438 22.2885 37.5546 20 37.5546ZM20 5.05465C16.1902 5.05465 12.8649 6.3148 10.024 8.83511C7.18324 11.3554 5.54169 14.561 5.09938 18.4521C5.05449 18.8003 4.90812 19.0851 4.66026 19.3062C4.41242 19.5274 4.11437 19.6379 3.76609 19.6379C3.4007 19.6379 3.09942 19.5188 2.86226 19.2806C2.62506 19.0423 2.52891 18.7523 2.5738 18.4104C2.8003 16.1348 3.41407 14.0322 4.41513 12.1027C5.41619 10.1733 6.6961 8.50233 8.25488 7.08994C9.81363 5.67755 11.5967 4.56858 13.6042 3.76302C15.6117 2.95747 17.7436 2.55469 20 2.55469C23.218 2.55469 26.1672 3.36186 28.8478 4.97619C31.5284 6.59052 33.6058 8.76523 35.0801 11.5003V7.71498C35.0801 7.36029 35.1998 7.06329 35.4391 6.82398C35.6784 6.58467 35.9754 6.46502 36.3301 6.46502C36.6848 6.46502 36.9818 6.58467 37.2211 6.82398C37.4604 7.06329 37.5801 7.36029 37.5801 7.71498V14.1252C37.5801 14.5547 37.4364 14.9131 37.149 15.2005C36.8616 15.4879 36.5032 15.6316 36.0737 15.6316H29.6634C29.3088 15.6316 29.0118 15.512 28.7724 15.2726C28.5331 15.0333 28.4135 14.7363 28.4135 14.3816C28.4135 14.027 28.5331 13.73 28.7724 13.4906C29.0118 13.2513 29.3088 13.1317 29.6634 13.1317H33.1475C31.9744 10.747 30.2068 8.80469 27.8446 7.30469C25.4824 5.80466 22.8675 5.05465 20 5.05465Z" fill="#8790AB"/>
</svg>
