<svg width="32" height="33" viewBox="0 0 32 33" fill="none" xmlns="http://www.w3.org/2000/svg">
<g id="MagnifyingGlass">
<path id="Vector" d="M28.7075 27.7923L22.4488 21.5348C24.2628 19.3569 25.1674 16.5635 24.9743 13.7357C24.7812 10.9079 23.5054 8.26337 21.4122 6.35226C19.319 4.44116 16.5696 3.41061 13.7359 3.47501C10.9022 3.53941 8.20246 4.6938 6.19824 6.69802C4.19401 8.70225 3.03963 11.402 2.97523 14.2357C2.91083 17.0694 3.94137 19.8188 5.85248 21.912C7.76358 24.0052 10.4081 25.281 13.2359 25.4741C16.0637 25.6672 18.8571 24.7626 21.035 22.9485L27.2925 29.2073C27.3854 29.3002 27.4957 29.3739 27.6171 29.4242C27.7385 29.4745 27.8686 29.5004 28 29.5004C28.1314 29.5004 28.2615 29.4745 28.3829 29.4242C28.5043 29.3739 28.6146 29.3002 28.7075 29.2073C28.8004 29.1144 28.8741 29.0041 28.9244 28.8827C28.9747 28.7613 29.0006 28.6312 29.0006 28.4998C29.0006 28.3684 28.9747 28.2383 28.9244 28.1169C28.8741 27.9955 28.8004 27.8852 28.7075 27.7923ZM5.00001 14.4998C5.00001 12.7198 5.52785 10.9797 6.51678 9.49966C7.50572 8.01962 8.91132 6.86607 10.5559 6.18488C12.2004 5.50369 14.01 5.32546 15.7558 5.67273C17.5017 6.02 19.1053 6.87716 20.364 8.13584C21.6226 9.39451 22.4798 10.9982 22.8271 12.744C23.1743 14.4898 22.9961 16.2994 22.3149 17.9439C21.6337 19.5885 20.4802 20.9941 19.0001 21.983C17.5201 22.972 15.78 23.4998 14 23.4998C11.6139 23.4972 9.32623 22.5481 7.63897 20.8608C5.95172 19.1736 5.00266 16.8859 5.00001 14.4998Z" fill="white"/>
</g>
</svg>
