<svg width="48" height="41" viewBox="0 0 48 41" fill="none" xmlns="http://www.w3.org/2000/svg">
<path d="M10.5584 36C8.89961 36 7.49126 35.4199 6.33332 34.2597C5.17539 33.0995 4.59642 31.6907 4.59642 30.0332C3.60468 29.9787 2.75734 29.5796 2.0544 28.8358C1.35147 28.092 1 27.2106 1 26.1916V7.84167C1 6.76818 1.3719 5.85952 2.11571 5.11571C2.85952 4.3719 3.76816 4 4.84161 4H29.9349C30.9914 4 31.8958 4.37617 32.6481 5.12852C33.4004 5.88083 33.7766 6.78521 33.7766 7.84167V12.092H38.4579C38.7699 12.092 39.0553 12.156 39.3138 12.2841C39.5724 12.4121 39.7987 12.6042 39.9926 12.8603L45.8982 20.7643C46.0262 20.9244 46.1223 21.1005 46.1863 21.2926C46.2503 21.4847 46.2824 21.6928 46.2824 21.9169V28.1124C46.2824 28.6567 46.0983 29.1128 45.7301 29.481C45.362 29.8491 44.9058 30.0332 44.3615 30.0332H42.4407C42.4407 31.6907 41.8602 33.0995 40.699 34.2597C39.5379 35.4199 38.1279 36 36.4691 36C34.8104 36 33.402 35.4199 32.2441 34.2597C31.0861 33.0995 30.5071 31.6907 30.5071 30.0332H16.53C16.53 31.6952 15.9494 33.1052 14.7883 34.2631C13.6271 35.421 12.2172 36 10.5584 36ZM10.5734 32.8123C11.3458 32.8123 12.0004 32.5406 12.5372 31.997C13.0739 31.4534 13.3423 30.7954 13.3423 30.023C13.3423 29.2506 13.0739 28.596 12.5372 28.0593C12.0004 27.5225 11.3458 27.2541 10.5734 27.2541C9.80098 27.2541 9.14299 27.5225 8.59945 28.0593C8.05586 28.596 7.78407 29.2506 7.78407 30.023C7.78407 30.7954 8.05586 31.4534 8.59945 31.997C9.14299 32.5406 9.80098 32.8123 10.5734 32.8123ZM4.1877 7.84167V26.1916C4.1877 26.2733 4.20132 26.3517 4.22856 26.4266C4.25579 26.5016 4.28985 26.5663 4.33072 26.6208C4.3716 26.6753 4.42269 26.7229 4.484 26.7638C4.54531 26.8047 4.61002 26.8319 4.67814 26.8456H5.72436C6.17659 26.0582 6.8298 25.3981 7.68398 24.8654C8.53815 24.3328 9.4979 24.0664 10.5632 24.0664C11.6013 24.0664 12.5542 24.3294 13.422 24.8552C14.2898 25.3811 14.9498 26.0445 15.4021 26.8456H30.5889V7.84167C30.5889 7.65094 30.5276 7.49426 30.405 7.37163C30.2823 7.24901 30.1257 7.1877 29.9349 7.1877H4.84161C4.65088 7.1877 4.4942 7.24901 4.37158 7.37163C4.24899 7.49426 4.1877 7.65094 4.1877 7.84167ZM36.4842 32.8123C37.2566 32.8123 37.9112 32.5406 38.4479 31.997C38.9847 31.4534 39.253 30.7954 39.253 30.023C39.253 29.2506 38.9847 28.596 38.4479 28.0593C37.9112 27.5225 37.2566 27.2541 36.4842 27.2541C35.7117 27.2541 35.0537 27.5225 34.5101 28.0593C33.9666 28.596 33.6948 29.2506 33.6948 30.023C33.6948 30.7954 33.9666 31.4534 34.5101 31.997C35.0537 32.5406 35.7117 32.8123 36.4842 32.8123ZM33.7766 22.5952H43.299L37.7817 15.2797H33.7766V22.5952Z" fill="#8790AB"/>
</svg>
