<svg width="28" height="28" viewBox="0 0 28 28" fill="none" xmlns="http://www.w3.org/2000/svg">
<g id="Logo--twitter">
<path id="Vector" d="M10.43 21.8229C11.908 21.8322 13.3731 21.5479 14.7404 20.9866C16.1077 20.4253 17.3499 19.5981 18.3951 18.553C19.4402 17.5078 20.2674 16.2656 20.8287 14.8983C21.39 13.531 21.6743 12.0659 21.665 10.5879C21.665 10.4129 21.665 10.2466 21.665 10.0716C22.4311 9.51032 23.0943 8.82054 23.625 8.03289C22.9036 8.34841 22.1402 8.55767 21.3587 8.65414C22.1873 8.16045 22.809 7.38335 23.1087 6.46664C22.3366 6.9299 21.4898 7.25557 20.6062 7.42914C20.0112 6.79509 19.2238 6.37482 18.3658 6.23336C17.5078 6.09189 16.6271 6.23713 15.86 6.64659C15.0929 7.05605 14.4821 7.70691 14.1222 8.49846C13.7622 9.29001 13.6731 10.1781 13.8688 11.0254C12.299 10.9483 10.7631 10.5415 9.36106 9.83146C7.959 9.12139 6.72222 8.12396 5.73125 6.90414C5.23156 7.77142 5.0801 8.79618 5.30754 9.77093C5.53498 10.7457 6.12433 11.5976 6.95625 12.1541C6.34254 12.1305 5.74302 11.9626 5.20625 11.6641V11.7079C5.2008 12.6142 5.50613 13.4951 6.07137 14.2036C6.6366 14.9122 7.42759 15.4056 8.3125 15.6016C7.74168 15.7552 7.14376 15.7791 6.5625 15.6716C6.81869 16.4446 7.30772 17.1194 7.96254 17.6035C8.61736 18.0875 9.40589 18.3572 10.22 18.3754C8.82806 19.4959 7.09808 20.1126 5.31125 20.1254C4.99796 20.1163 4.6854 20.09 4.375 20.0466C6.18359 21.1989 8.28555 21.8064 10.43 21.7966" fill="#FEFBFF"/>
</g>
</svg>
