<svg width="40" height="41" viewBox="0 0 40 41" fill="none" xmlns="http://www.w3.org/2000/svg">
<g id="package_FILL0_wght300_GRAD0_opsz24 1">
<path id="Vector" d="M16.6668 16.7841L18.9873 15.6367C19.3164 15.4807 19.654 15.4027 20.0001 15.4027C20.3463 15.4027 20.6839 15.4807 21.0129 15.6367L23.3335 16.7841V8.38668H16.6668V16.7841ZM12.9167 27.97C12.5621 27.97 12.2651 27.8503 12.0257 27.611C11.7864 27.3717 11.6668 27.0747 11.6668 26.72C11.6668 26.3653 11.7864 26.0683 12.0257 25.829C12.2651 25.5897 12.5621 25.4701 12.9167 25.4701H18.7502C19.1049 25.4701 19.4019 25.5897 19.6412 25.829C19.8805 26.0683 20.0001 26.3653 20.0001 26.72C20.0001 27.0747 19.8805 27.3717 19.6412 27.611C19.4019 27.8503 19.1049 27.97 18.7502 27.97H12.9167ZM8.84633 34.22C8.00444 34.22 7.29183 33.9283 6.7085 33.345C6.12516 32.7616 5.8335 32.049 5.8335 31.2071V8.89955C5.8335 8.05767 6.12516 7.34505 6.7085 6.76172C7.29183 6.17839 8.00444 5.88672 8.84633 5.88672H31.1539C31.9958 5.88672 32.7084 6.17839 33.2917 6.76172C33.8751 7.34505 34.1667 8.05767 34.1667 8.89955V31.2071C34.1667 32.049 33.8751 32.7616 33.2917 33.345C32.7084 33.9283 31.9958 34.22 31.1539 34.22H8.84633ZM8.84633 31.72H31.1539C31.2821 31.72 31.3997 31.6666 31.5065 31.5598C31.6134 31.4529 31.6668 31.3354 31.6668 31.2071V8.89955C31.6668 8.77133 31.6134 8.65379 31.5065 8.54693C31.3997 8.4401 31.2821 8.38668 31.1539 8.38668H25.8334V18.8033C25.8334 19.282 25.6336 19.6436 25.234 19.8882C24.8345 20.1329 24.421 20.1484 23.9937 19.9347L20.0001 17.9379L16.0065 19.9347C15.5792 20.1484 15.1658 20.1329 14.7662 19.8882C14.3666 19.6436 14.1668 19.282 14.1668 18.8033V8.38668H8.84633C8.71811 8.38668 8.60056 8.4401 8.4937 8.54693C8.38687 8.65379 8.33345 8.77133 8.33345 8.89955V31.2071C8.33345 31.3354 8.38687 31.4529 8.4937 31.5598C8.60056 31.6666 8.71811 31.72 8.84633 31.72Z" fill="#8790AB"/>
</g>
</svg>
