<svg width="20" height="21" viewBox="0 0 20 21" fill="none" xmlns="http://www.w3.org/2000/svg">
<g id="Iconly/Bold/Shield Done">
<g id="Shield Done">
<path id="Shield Done_2" fill-rule="evenodd" clip-rule="evenodd" d="M9.77276 19.0587C9.86505 19.1069 9.96824 19.1314 10.0714 19.1306C10.1746 19.1298 10.277 19.1045 10.3701 19.0554L13.3433 17.466C14.1865 17.0166 14.8467 16.514 15.3618 15.9289C16.4818 14.6542 17.0934 13.0272 17.0825 11.3495L17.0473 5.81564C17.0439 5.17825 16.6253 4.6095 16.0061 4.40275L10.475 2.54696C10.1419 2.43419 9.77696 2.43664 9.44977 2.55268L3.93955 4.47466C3.32376 4.68958 2.91268 5.26242 2.91604 5.90063L2.95127 11.4304C2.96218 13.1105 3.59475 14.7302 4.7332 15.9919C5.25335 16.5688 5.91947 17.064 6.77184 17.5061L9.77276 19.0587ZM8.98566 12.5548C9.10982 12.6741 9.2709 12.7329 9.43198 12.7313C9.59305 12.7305 9.75329 12.67 9.87578 12.549L13.125 9.34574C13.3692 9.10467 13.3666 8.71733 13.12 8.47953C12.8725 8.24174 12.474 8.24337 12.2299 8.48444L9.42275 11.2514L8.27339 10.1466C8.0259 9.90877 7.62824 9.91122 7.38326 10.1523C7.13913 10.3933 7.14165 10.7807 7.38914 11.0185L8.98566 12.5548Z" fill="#4796FF"/>
</g>
</g>
</svg>
